<?xml version="1.0" standalone="no"?>
<!DOCTYPE svg PUBLIC "-//W3C//DTD SVG 1.1//EN" "http://www.w3.org/Graphics/SVG/1.1/DTD/svg11.dtd">
<svg xmlns="http://www.w3.org/2000/svg">
<metadata>Copyright (C) 2019 by original authors @ fontello.com</metadata>
<defs>
<font id="odb_icons" horiz-adv-x="1000" >
<font-face font-family="odb_icons" font-weight="400" font-stretch="normal" units-per-em="1000" ascent="850" descent="-150" />
<missing-glyph horiz-adv-x="1000" />
<glyph glyph-name="triangle_down" unicode="&#xe800;" d="M489 47l-480 592c-5 6-4 15 3 20 2 2 5 4 9 4h958c8 0 15-7 15-15 0-3-2-6-4-9l-479-592c-5-6-14-7-20-2-1 1-2 1-2 2z" horiz-adv-x="1000" />

<glyph glyph-name="triangle_right" unicode="&#xe801;" d="M803 341l-592-479c-6-5-15-4-20 2-2 2-4 6-4 9v958c0 8 7 15 15 15 3 0 6-1 9-3l592-480c6-5 7-14 2-20 0-1-1-1-2-2z" horiz-adv-x="1000" />

<glyph glyph-name="triangle_up" unicode="&#xe802;" d="M509 655l480-592c5-6 4-15-3-20-2-2-5-3-9-3h-958c-8 0-15 6-15 14 0 3 1 7 3 9l480 592c5 6 14 7 20 2 1 0 2-1 2-2z" horiz-adv-x="1000" />

<glyph glyph-name="triangle_left" unicode="&#xe803;" d="M195 361l592 480c6 5 15 4 20-2 2-3 4-6 4-9v-959c0-8-7-14-15-14-3 0-6 1-9 3l-592 479c-6 5-7 14-2 21 0 0 1 1 2 1z" horiz-adv-x="1000" />

<glyph glyph-name="chevron_down" unicode="&#xe804;" d="M502 230l-423 373c-5 5-13 4-18-1l-51-58c-5-6-4-14 1-19l483-426c5-4 12-4 17 0l475 426c6 5 6 13 1 19l-51 57c-5 6-13 6-18 1l-416-372z" horiz-adv-x="1000" />

<glyph glyph-name="chevron_right" unicode="&#xe805;" d="M620 354l-373-423c-5-5-4-13 1-18l58-51c6-5 14-4 19 1l426 483c4 5 4 13 0 17l-427 476c-5 5-13 6-18 1l-57-52c-6-4-6-12-1-18l372-416z" horiz-adv-x="1000" />

<glyph glyph-name="chevron_up" unicode="&#xe806;" d="M495 473l423-373c6-5 14-5 19 1l51 58c4 5 4 13-2 18l-483 426c-4 4-12 4-17 0l-475-426c-5-5-6-13-1-19l52-57c4-5 12-6 18-1l415 373z" horiz-adv-x="1000" />

<glyph glyph-name="chevron_left" unicode="&#xe807;" d="M377 348l373 423c5 5 5 13-1 18l-58 51c-5 5-13 4-18-1l-426-483c-4-5-4-12 0-17l426-476c5-5 13-5 18-1l58 52c5 5 6 13 1 18l-373 416z" horiz-adv-x="1000" />

<glyph glyph-name="avatar" unicode="&#xe808;" d="M499 343c127 0 225 139 225 259 0 128-105 242-225 242-120 0-226-113-226-242 1-120 99-259 226-259z m0 437c84 0 161-85 161-178 0-89-72-195-161-195-90 0-161 106-161 195 0 93 76 177 161 178l0 0z m275-462h-550c-79 0-143-64-143-142v-55c0-57 34-108 87-131l275-118c36-15 76-15 112 0l275 118c53 23 86 74 86 131v55c0 78-63 142-142 142z m78-198c0-31-19-59-47-72l-275-118c-20-9-42-9-62 0l-275 118c-29 12-47 40-47 71v55c-1 43 33 79 76 80 1 0 1 0 2 0h550c43 0 78-35 78-78v-56z" horiz-adv-x="1000" />

<glyph glyph-name="postal" unicode="&#xe809;" d="M500 53c-153 0-305 0-457 0-24 0-32 9-32 32 0 177 0 354 0 531 0 23 9 32 31 32 306 0 611 0 917 0 1 0 2 0 3 0 18 0 28-10 28-27 0-101 0-201 0-302 0-79 0-158 0-237 0-19-10-29-29-29-154 0-308 0-461 0m-1 55c143 0 285 0 428 0 14 0 14 0 14 14 0 155 0 309 0 463 0 14 0 14-14 14-285 0-569 0-854 0-13 0-13 0-13-13 0-155 0-310 0-464 0-3-1-5 0-7 1-3 4-6 6-7 3-1 6 0 9 0 142 0 283 0 424 0m310 279c-19 0-38 0-57 0-19 0-29 9-29 28 0 38 0 76 0 114 0 18 10 28 28 28 39 1 79 1 118 0 18 0 28-10 28-28 0-38 0-76 0-114 0-18-10-28-28-28-20-1-40 0-60 0m1 49c10 0 20 0 30 0 5 0 7 2 7 7 0 19 0 39 0 58 0 5-2 7-7 7-20 0-40 0-60 0-5 0-8-2-8-7 0-20 0-39 0-58 0-5 3-7 8-7 10 0 20 0 30 0m-285 89c0 3 1 6 0 9-1 12-10 21-22 23-11 1-23-6-26-16-2-6-2-11-2-17 0-115 0-231 0-347 0-5 0-9 1-14 3-13 18-22 31-18 12 4 18 13 18 28 0 59 0 118 0 178 0 58 0 116 0 174m-163-199c15 0 30 0 46 0 12 0 21 9 24 20 2 12-4 23-16 27-4 2-9 2-14 2-90 0-179 0-268 0-2 0-5 0-7 0-11-1-20-8-22-18-5-17 7-31 25-31 46 0 92 0 138 0 31 0 62 0 94 0m43-91c14 0 24 7 26 19 4 16-8 30-26 30-35 0-70 0-104 0-56 0-113 0-169 0-8 0-15-2-21-8-7-7-9-17-5-26 5-10 13-15 24-15 46 0 92 0 138 0 46 0 91 0 137 0m-138-91c14 0 26 11 26 25 0 12-11 24-25 24-46 1-93 0-140 0-11 0-21-8-23-18-5-16 7-31 24-31 23 0 46 0 69 0 23 0 46 0 69 0" horiz-adv-x="1000" />

<glyph glyph-name="mobile" unicode="&#xe80a;" d="M220 351c0 130 0 259 0 389 0 11 1 22 3 33 10 37 43 65 81 69 7 1 15 1 22 1 118 0 235 0 353 0 23 0 45-5 64-20 25-19 36-46 38-77 0-2 0-4 0-6 0-260 0-520 0-780 0-24-5-46-20-65-19-25-45-38-76-38-36-1-71 0-107 0-87 0-173 0-260 0-25 0-48 7-66 24-21 18-32 41-33 68 0 60 0 120 0 180 1 74 1 148 1 222z m520-2v317c0 15 0 15-14 15-151 0-301 0-452 0-15 0-15 0-15-15v-633c0-2 0-4 0-6 1-7 1-8 9-8 1 0 2 0 4 0 152 0 303 0 455 0 2 0 5 0 7 0 4-1 6 2 6 6 0 3 0 5 0 8v316z m-241 372h205c10 0 19 0 28 0 6 0 8 2 8 8 0 7 0 14 0 21-1 13-6 25-15 35-12 13-28 18-46 18-72 0-145 0-218 0-48 0-97 0-146 0-28 0-51-20-55-48-1-7-1-15-1-22 0-11 0-12 12-12 76 0 152 0 228 0z m1-824l0 0c61 0 123 0 185 0 28 1 49 19 54 47 1 7 1 13 1 20 0 14 0 14-14 14-151 0-302 0-452 0-2 0-5 0-7 0-5 1-8-2-8-7 1-6 0-12 1-18 0-15 5-28 15-38 12-13 27-18 45-18 60 0 120 0 180 0z m-60 61c-13 0-21-8-21-20 0-12 7-20 20-20 41-1 81-1 122 0 2 0 4 0 6 1 8 2 13 8 14 17 1 13-7 22-21 22-20 0-40 0-60 0-20 0-40 0-60 0z" horiz-adv-x="1000" />

<glyph glyph-name="bookmark_empty" unicode="&#xe80b;" d="M922 202c0 188 0 376 0 564 0 10-1 21-4 31-10 29-39 49-72 49-231 0-461 0-691 0-39 0-79-31-79-77 1-142 1-285 1-427 0-137 0-274 0-411 0-41 36-71 74-73 24-1 43 9 60 25 89 85 179 170 268 254 7 7 13 13 20 20 3-2 4-3 5-4 46-44 92-87 137-131 50-47 99-94 149-140 20-19 44-28 72-22 39 10 61 39 61 78-1 88-1 176-1 264z m-69-273l-355 317-351-326-6 863h712v-854z" horiz-adv-x="1000" />

<glyph glyph-name="bookmark_filled" unicode="&#xe80c;" d="M409 279l368 355-57 55-312-306-122 116-54-54 177-166z m523-77c0 188 0 376 0 564 0 10-1 21-4 31-11 29-41 49-74 49-236 0-471 0-706 0-40 0-81-31-80-77 1-142 0-285 0-427 0-137 0-274 0-411 0-41 37-71 76-73 24-1 44 9 62 25 91 85 182 170 273 254 7 7 14 13 21 20 2-2 3-3 5-4 46-44 93-87 140-131 51-47 101-94 152-140 20-19 45-28 73-22 40 10 63 39 63 78-2 88-1 176-1 264z m-71-273l-363 317-358-326-6 863h727v-854z" horiz-adv-x="1000" />

<glyph glyph-name="calendar" unicode="&#xe80d;" d="M206 226h402v-62h-402v62z m0 185h588v-61h-588v61z m703 349h-178v65c0 11-8 19-18 19h-36c-10 0-18-8-18-19v-65h-318v65c0 11-8 19-18 19h-36c-10 0-18-8-18-19v-65h-180c-37 0-68-30-68-68v-768c0-37 31-68 68-68h820c37 0 68 30 68 68v768c0 38-31 68-68 68z m-830-68c0 6 5 10 10 10h180v-60c0-10 8-18 18-18h36c10 0 18 8 18 18v60h317v-60c0-10 9-18 19-18h35c11 0 19 8 19 18v60h177c6 0 10-4 10-10v-128h-839v128z m840-768c0-5-5-10-10-10h-820c-5 0-10 5-10 10v581h840l0-581 0 0z" horiz-adv-x="1000" />

<glyph glyph-name="box_empty" unicode="&#xe80e;" d="M18 844h964c7 0 12-6 12-12v-964c0-7-5-12-12-12h-964c-6 0-12 5-12 12v964c0 6 6 12 12 12z m37-49v-890h890v890h-890z" horiz-adv-x="1000" />

<glyph glyph-name="box_filled" unicode="&#xe80f;" d="M980 844h-963c-7 0-13-5-13-12v-963c0-7 6-13 13-13h963c7 0 12 6 12 13v963c0 7-5 12-12 12z m-575-790c-85 77-168 153-252 230 26 28 51 55 78 83 56-50 111-99 168-150 135 144 270 287 406 430 29-29 58-58 89-88-163-167-326-336-489-505z" horiz-adv-x="1000" />

<glyph glyph-name="close" unicode="&#xe810;" d="M500 280l-415-415c-12-12-31-12-43 0l-27 26c-12 13-12 32 0 44l415 415-415 415c-12 12-12 31 0 43l26 27c13 12 32 12 44 0l415-415 415 415c12 12 31 12 43 0l27-26c12-13 12-32 0-44l-415-415 415-415c12-12 12-31 0-43l-27-27c-12-12-31-12-43 0l-415 415z" horiz-adv-x="1000" />

<glyph glyph-name="comment" unicode="&#xe811;" d="M276 246h488c18 0 32-14 32-32 0-18-14-33-32-33h-488c-18 0-32 15-32 33 0 18 14 32 32 32z m0 150h488c18 0 32-14 32-32s-14-33-32-33h-488c-18 0-32 15-32 33s14 32 32 32z m0 151h228c18 0 32-15 32-33s-14-32-32-32h-228c-18 0-32 14-32 32s14 33 32 33z m-259-176c10 237 174 426 401 465 259 45 497-118 552-377 28-127 13-242-49-345-75-124-177-205-308-235-127-30-248-11-359 56-48-18-168-60-178-63l-58-16 18 57c25 83 44 143 56 180-54 85-80 178-75 278z m214-375c20 7 38 6 55-5 98-58 202-74 312-49 113 26 201 96 267 206 53 87 66 186 42 298-49 225-254 365-478 326-197-34-338-197-347-404-4-87 18-168 67-243 10-16 12-32 7-49-9-27-22-67-39-121 40 14 89 32 114 41z" horiz-adv-x="1000" />

<glyph glyph-name="contact" unicode="&#xe812;" d="M586-144c-30 0-57 9-84 20-53 23-101 54-146 90-97 75-182 161-252 262-27 39-51 80-66 126-16 51-13 100 20 144 25 34 57 60 100 68 27 6 53 1 77-13 45-26 80-61 107-106 18-30 14-59-3-88-4-8-9-15-14-23-13-17-13-36-2-54 8-14 18-27 28-39 24-28 51-55 80-77 11-8 23-15 35-21 14-8 28-6 42 3 10 6 19 12 29 18 29 16 59 18 88 0 10-5 19-11 27-17 26-20 48-43 67-69 38-52 36-104-3-155-28-37-64-62-111-68-6-1-13-1-19-1m2 50c2 0 6 0 11 1 2 0 4 0 6 0 34 6 57 28 76 55 18 27 20 55 2 82-21 31-48 58-80 78-15 9-28 8-43 0-10-7-19-13-30-19-23-14-48-18-73-8-13 4-26 11-38 18-40 26-73 59-103 94-15 18-28 37-40 57-17 30-16 61 2 91 3 5 7 11 10 16 4 6 7 11 11 17 6 12 6 23-1 35-13 23-30 42-50 59-13 10-26 20-39 28-12 7-25 10-38 7-45-10-75-38-89-81-8-26-2-52 7-77 13-36 32-69 53-100 65-94 144-175 233-247 43-34 89-66 140-88 22-10 46-18 73-18m-197 345c1 5 2 8 3 11 11 36 23 72 34 108 2 5 2 9-1 14-34 52-51 109-48 171 7 146 107 261 245 285 158 27 303-72 337-230 15-74 10-145-30-211-44-72-104-124-188-144-77-17-151-6-220 35-6 4-11 4-17 2-35-13-70-26-105-38-3-1-5-2-10-3m63 65c4 1 7 2 9 3 11 4 22 7 32 12 17 7 31 5 47-5 55-35 116-46 179-34 88 17 148 71 186 149 26 52 26 107 14 163-31 138-162 224-298 194-143-30-218-163-201-288 5-40 19-76 42-108 8-12 10-24 5-38-5-13-8-26-12-38-1-3-2-6-3-10m79 274c-30 0-54-24-54-55 0-30 24-54 54-54 30 0 53 24 54 54 0 30-24 54-54 55m283 0c-30 0-54-24-54-54 0-31 23-55 53-55 30-1 54 24 54 54 0 30-23 54-53 55m-196-53c0-33 23-56 56-56 28 0 52 25 52 55 0 29-24 53-53 54-30 0-54-24-55-53" horiz-adv-x="1000" />

<glyph glyph-name="email" unicode="&#xe813;" d="M638 449l0 0c-24 0-48 0-71 0h-204c-12 0-22-9-22-21 0-6 2-11 6-15 4-4 10-6 16-6h144c32 0 65 0 98 0h10c9 0 19 0 28 0 7 1 13 4 16 10 4 7 4 14 1 20-4 8-11 12-22 12m-251 105c-9 0-17 0-26 0-6 0-11-3-15-8-4-5-6-11-5-17 2-11 11-17 22-17 46 0 93 0 139 0h138c7 0 13 2 17 7 6 7 7 14 3 22-4 9-10 13-20 13h-234c-6 0-13 0-19 0m165-210l0 0c-21 0-42 0-63 0h-55-24c-16 0-32 0-48 0-11 0-21-9-21-20 0-12 9-22 21-22 31 0 62 0 92 0h33c22 0 44 0 66 0 12 0 21 9 21 21 0 6-2 11-6 15-4 4-10 6-16 6m-159 371c-7 1-12 6-15 12-4 8-2 18 5 23 11 10 23 20 35 31l66 55c6 6 12 8 17 8h2c5 0 9-1 13-5 21-18 42-36 64-54l15-13c9-7 17-14 25-21 9-8 10-21 2-30-7-8-20-10-29-3-8 6-15 13-23 19l-61 52c-1 1-2 2-3 3l-5 3-3-2c-6-6-12-11-18-16l-14-12c-18-15-36-30-54-45-6-5-13-7-19-5z m582-281c0 8-3 14-10 20-16 13-32 27-48 40l-26 22c-7 6-14 12-21 18-8 7-18 7-26 2-8-6-11-15-8-24 1-4 4-8 9-12l65-55c1-1 2-2 3-2l7-6-126-89 0 12c0 1 0 3 0 4v79 47c0 40 0 80-1 120 0 22-11 40-33 52-8 5-18 7-30 7h-1c-19 0-38 0-57 0h-154c-30 0-59 0-89 0h-78c-26 0-52 0-78 0-15 0-26-3-36-9-20-12-30-30-30-53 0-24 0-47 0-70v-35-154l-125 88 6 6c1 1 2 2 3 3l17 14c16 14 33 28 50 42 3 2 5 5 7 9 3 8 1 19-7 25-4 3-8 4-13 4-4 0-9-1-12-4-3-3-6-5-9-8-2-1-4-3-6-4l-22-19c-20-17-40-34-61-50-6-6-9-12-9-21v-19c0-13 0-25 0-37v-50c0-33 0-67 0-100l0-128v-65-86c0-27 8-48 25-65 17-17 38-26 63-26 8 0 17 0 25 0h591c23 0 46 0 70 0h20c24 0 48 0 72 0 45 2 81 40 82 85 0 15 0 29 0 44v20l0 151 0 128c0 33 0 66 1 100v49z m-727 11c0 50 0 99 0 149 0 4 0 8 1 11 0 13 8 21 21 21h31c21 0 42 0 63 0h35c35 0 70 0 105 0h45c22 0 44 0 67 0 16 0 33 0 50 0h37c9 0 18 0 27 0 13 0 21-8 21-21 0-14 0-27 0-41v-207c0-11 0-21 0-32 0-3 0-8-5-11-12-8-24-17-35-25l-211-149-12 8c-5 3-9 6-14 10-28 20-57 40-86 61-15 10-31 21-46 32l-36 26c-17 12-35 25-52 37-4 2-6 6-6 11 0 40 0 80 0 120z m684-232v-132-136c0-25-20-45-45-45h-225c-38 0-75 0-113 0h-386c-17 0-34-1-51 0-24 0-43 20-43 44v160c0 40 0 80 0 120v60c0 31 0 62 0 93 0 2 0 3 0 5l1 10 305-216-5-4c-7-5-13-10-20-16l-189-144c-6-5-9-11-9-18 0-9 4-15 12-19 7-4 14-3 21 2l175 133c15 12 30 23 45 35 5 4 9 4 14 0 12-8 24-17 36-25l30-22c8-5 15-7 21-5 4 2 9 5 13 8 21 15 42 29 62 44 5 4 10 4 14 0 24-18 48-37 72-55l122-92c9-7 18-14 27-21 9-7 21-5 29 4 7 8 6 21-2 28-7 6-14 11-21 17l-6 4c-25 19-50 39-75 58-31 23-61 46-92 70-4 3-8 6-12 9l-12 9 6 4 300 213 1-11c0-2 0-3 0-5v-164z" horiz-adv-x="1000" />

<glyph glyph-name="fax" unicode="&#xe814;" d="M868 472c5-1 9-3 13-3 21-4 28-11 28-32 0-168 0-337 0-505 0-24-10-33-37-33-100 0-200 0-300 0-72 0-144 0-216 1-13 0-23-3-31-14-13-16-30-27-50-28-36-2-73-3-109 1-42 5-76 46-76 89-1 166-2 332-2 498 0 12 2 24 5 36 10 43 46 72 91 75 6 0 12 1 18 0 10 0 14 5 14 15 0 4 0 9 0 14 0 69 0 139 0 209 0 7 0 14 1 21 2 17 11 26 29 28 5 0 10 0 15 0 152 0 304 0 456 0 21 0 35-6 47-24 29-44 59-88 90-131 9-12 13-25 13-40 0-53 0-105 0-158-1-6 0-12 1-19z m-264-520c78 0 156 0 234 0 18 0 19 1 19 19 0 141 0 283 0 425 0 19 0 20-19 20-155 0-310 0-465 0-19 0-19-1-19-20 0-141 0-283 0-424 0-20 0-20 20-20 76 0 153 0 230 0z m-334 837v-233c47-10 73-41 83-84h458c1 4 2 8 2 11 0 39 0 79 0 118 0 11-5 13-15 13-32 0-65 0-97 0-27 1-36 10-36 37 0 40 0 80 0 120 0 19-1 19-20 19-119 0-239 0-358 0-5 0-10 0-17-1z m-129-583l0 0c0-82 0-164 0-246 0-33 17-50 50-51 21-1 42-1 63 0 28 0 45 17 47 44 1 8 1 15 1 23 0 156 0 311 0 467 0 5 0 10-1 15-2 27-20 44-46 45-20 1-40 1-60 0-39-1-54-17-54-56 0-81 0-161 0-241z m578 463h85c-29 42-56 81-85 123v-123z m-113-453c-13 0-24-12-24-26 0-14 12-26 25-25 14 1 25 12 24 26 0 14-12 25-25 25z m99-25c0-14 10-26 24-26 14 0 26 12 25 26 0 13-11 25-24 25-14 0-25-11-25-25z m-198 108c1 15-9 26-23 27-14 1-25-10-25-24-1-14 9-25 22-26 15-1 25 8 26 23z m101-250c13 1 24 13 23 26 0 14-12 25-25 25-13-1-25-13-24-26 0-15 11-25 26-25z m-101 24c1 14-8 25-22 26-15 1-26-9-27-24 0-14 10-25 24-26 14 0 25 9 25 24z m223-24c13 0 24 11 24 25 1 14-10 25-24 25-15 0-24-9-24-24-1-16 9-26 24-26z m24 252c0 14-11 24-25 24-13 0-24-11-24-25 0-14 11-25 24-24 15 0 26 11 25 25z m-270-85c-13 0-25-11-26-25 0-14 11-26 25-26 14 0 24 11 24 25 1 15-10 26-23 26z m147 84c1 13-10 25-23 26-15 0-26-11-26-25-1-15 9-25 24-25 14-1 24 9 25 24z" horiz-adv-x="1000" />

<glyph glyph-name="hamburger" unicode="&#xe815;" d="M29 112h942c13 0 23-10 23-23v-31c0-13-10-23-23-23h-942c-13 0-23 10-23 23v31c0 13 10 23 23 23z m0 278h942c13 0 23-10 23-23v-31c0-13-10-23-23-23h-942c-13 0-23 10-23 23v31c0 13 10 23 23 23z m0 278h942c13 0 23-10 23-23v-31c0-13-10-23-23-23h-942c-13 0-23 10-23 23v31c0 13 10 23 23 23z" horiz-adv-x="1000" />

<glyph glyph-name="journal" unicode="&#xe816;" d="M685 608v136h-358c-1-5-1-27-1-32 0-52 0-103 0-155 0-5 0-10-1-15-4-24-20-38-45-38-55 0-129 0-184 0h-19v-549h608v35c0 25 0 51 0 76 0 4 2 10 6 13 20 19 47 41 63 58 0-7 0-9 0-13 0-63 0-126 0-189 0-32-16-48-49-48-167 0-334 0-501 0-49 0-98 1-147 0-30-1-50 16-50 47 0 4 0 8 0 13 0 193 0 387-1 580 0 25 8 44 26 61 71 67 141 136 210 204 15 14 31 21 52 21 135 0 270 0 405 0 5 0 10 0 15-1 21-1 39-17 40-38 0-33 0-83 0-116m240-210c0-23-8-40-28-55-123-89-246-178-369-269-17-12-35-18-56-21-57-6-114-14-171-21-14-2-27 1-37 12-10 11-10 23-4 37 21 48 42 96 63 144 23 51 11 37 56 70 119 87 238 173 357 260 16 12 33 15 53 11 71-18 125-76 133-147 1-7 2-14 3-21m-557-173c-13-30-26-59-38-87 16-20 29-38 44-56 31 4 65 8 97 12 6 67-57 128-103 131" horiz-adv-x="1000" />

<glyph glyph-name="information" unicode="&#xe817;" d="M454 560c0 16 6 28 16 37 11 8 24 13 41 13 17 0 30-5 41-13 10-9 16-21 16-37 0-15-6-26-16-35-11-9-24-13-41-13-17 0-30 4-41 13-10 9-16 21-16 35z m150-437h-182v26c7 3 14 6 21 8 7 3 14 5 23 7v242l-44 5v25c7 3 15 6 25 8 10 3 20 5 31 7 11 2 22 4 32 6 11 1 20 2 28 3h22v-296c9-2 17-4 24-7 7-2 14-5 20-8v-26z m-102 722c-273 0-494-222-494-494 0-273 221-494 494-494 272 0 494 221 494 494 0 272-222 494-494 494m0-910c-230 0-416 186-416 416 0 229 186 415 416 415 229 0 415-186 415-416 0-229-186-415-415-415" horiz-adv-x="1000" />

<glyph glyph-name="partner" unicode="&#xe818;" d="M848 317c4-4 7-8 11-12 23-23 26-57 8-84-11-16-25-28-44-34-1 0-3-4-3-6 3-37-34-73-64-76-5-1-10-1-16-1-4 0-5-1-7-5-7-24-22-41-46-49-28-10-51-3-72 15-3 3-6 6-8 8-8-10-15-19-24-27-24-25-64-26-90-3-14 12-27 25-41 38-1 1-3 2-4 4-7-7-14-14-21-21-12-13-26-26-45-31-18-4-35-1-50 9-13 8-24 19-32 33 0 1-1 2-2 3-7-2-13-4-20-5-33-4-58 10-75 37-5 9-9 13-20 11-41-7-96 42-78 93 1 4 0 5-3 6-13 8-25 17-34 29-19 26-17 60 5 84 12 12 24 25 36 38-7 6-14 12-21 18-20 17-41 34-60 51-26 23-30 60-8 87 15 19 32 37 49 56 13 14 26 29 39 44 18 19 38 31 64 33 17 1 33-4 49-11 10-4 21-9 31-13 28-12 56-11 83 1 15 7 29 12 44 18 33 12 66 10 98-6 6-3 13-9 20-9 6 0 12 7 19 10 31 15 62 12 93-2 20-9 40-20 60-29 23-11 46-11 68 3 23 14 46 29 69 43 31 19 71 12 94-17 27-33 53-66 79-99 21-27 19-68-4-93-41-45-83-90-124-136-1-1-2-2-3-3m-392 293c-1 1-1 1-1 1-2 1-3 2-4 2-20 8-40 8-59 0-16-6-32-12-47-19-34-14-68-15-102-1-15 6-29 12-44 18-21 9-38 6-55-11-10-11-20-23-30-34-19-21-37-41-56-62-10-11-9-25 3-34 7-7 15-13 23-20 17-14 34-28 51-43 3-3 6-3 10 0 4 5 9 9 14 13 12 12 27 18 44 19 33 0 67-26 75-59 1-3 1-6 6-6 41-3 74-43 69-84-1-4 1-5 4-7 11-4 20-10 28-19 10-12 18-25 22-40 0-2 3-5 4-5 18-1 32-10 45-22 22-19 31-49 20-74 0-1 1-4 2-5 15-14 30-28 45-42 9-8 22-7 31 2 3 2 5 5 7 7 9 11 9 22-1 32-12 11-25 22-37 33-8 8-16 15-24 23 10 11 20 21 30 32 2-2 3-3 4-4 38-35 76-69 114-104 12-11 21-11 34 0 1 2 3 3 4 5 12 12 12 24-1 36-35 32-70 64-105 96-4 3-7 7-12 11 9 10 18 19 26 28 3 3 5 3 8 0 7-6 14-12 20-18 36-33 72-65 108-98 12-12 23-12 35 0 2 1 3 2 4 3 11 12 11 24-1 35-35 33-71 66-107 100-10 9-20 18-30 28-2 2-2 5 1 7 7 8 15 16 23 25 1 1 2 2 3 3 2-2 3-3 4-4 42-39 84-78 126-116 14-13 24-13 38 1 1 1 2 2 3 4 11 11 10 22-1 32-31 29-62 58-94 87-47 41-99 78-150 113-17 12-34 13-52 4-10-5-19-11-29-17-15-8-30-12-47-10-26 3-43 17-57 38-20 30-14 68 16 89 13 9 26 18 38 27 1 1 3 3 4 4m359-264c1 2 2 3 3 4 40 43 80 86 119 130 16 17 17 30 2 49-23 29-46 59-69 88-13 16-27 18-45 8-22-14-45-29-68-42-31-19-63-22-96-8-24 10-47 21-70 33-23 12-45 11-66-4-29-20-58-40-86-60-8-6-12-15-8-24 10-20 27-33 49-19 7 4 13 8 20 12 19 12 40 17 62 16 19-2 35-11 51-21 62-43 122-89 178-140 8-7 16-14 24-22m-670-151c2-10 3-12 14-23 12-11 24-11 35 1 37 37 73 75 109 112 9 10 9 22 0 32-3 2-5 4-7 6-10 10-23 10-33-1-37-37-73-75-110-113-4-4-5-9-8-14m61 201c-6-3-12-4-16-8-29-28-57-57-85-86-4-5-7-11-5-18 5-12 13-21 26-25 7-2 13 0 18 5 29 29 57 59 85 88 9 9 8 17 1 27-3 3-6 7-9 10-5 3-10 4-15 7m128-153c-1 1-1 1-1 2-6-3-12-5-16-9-8-7-15-15-22-23-17-17-34-35-51-52-7-7-9-17-4-25 11-17 30-32 49-8 0 0 1 1 2 2 22 23 44 45 66 68 4 5 8 10 7 17-1 13-18 28-30 28m1-137c2-10 8-16 14-22 13-12 24-12 37 1 15 15 30 31 44 46 8 8 9 18 2 27-3 5-8 9-14 13-10 7-19 6-29-3-15-16-31-31-45-47-4-5-6-10-9-15" horiz-adv-x="1000" />

<glyph glyph-name="password" unicode="&#xe819;" d="M77 415c-13-12-24-22-35-32-11-10-23-11-31-2-8 9-6 21 5 31 23 22 47 44 70 66 12 11 22 10 32-1 24-25 47-51 70-76 8-10 8-22 0-29-8-8-20-8-28 1-14 15-27 29-41 44-1 0-2 0-4-1-1-28-3-56-2-84 5-97 38-183 101-256 71-83 161-132 269-145 186-24 366 82 439 258 104 250-50 537-314 581-140 24-264-14-368-113-8-7-15-13-26-8-13 7-16 23-4 34 27 23 54 47 84 66 103 63 214 83 332 58 187-39 330-188 361-376 40-235-100-460-326-526-258-75-522 86-579 353-10 49-12 99-6 149 0 1 0 3 1 8z m451-301c-52 0-105 0-157 0-11 0-21 3-29 11-8 7-13 15-13 26 0 33 0 65 0 98 0 42 1 85 0 127 0 21 15 38 35 40 3 1 3 2 3 4 0 18 0 35 0 52 0 24 5 47 16 68 12 24 29 43 51 58 22 16 47 25 75 28 30 4 60 0 88-13 17-7 33-18 46-31 25-24 41-52 46-86 2-18 1-36 1-54 0-7 0-14 0-21 0-3 1-4 4-4 8-1 15-5 21-10 8-7 13-16 13-27 0-29 0-58 0-88 0-45 0-90 0-135 0-11-2-20-9-28-8-9-18-14-31-14-36 0-72 0-108 0-18-1-35-1-52-1z m1 34l0 0c29 0 59 0 88 0 23 0 46 0 69 0 5 0 7 1 7 6 0 3 0 6 0 9 0 71 0 142 0 213 0 6-1 7-7 7-9 0-18 0-27 0-4 0-4 0-4 4 0 27 0 54 0 80 0 7-1 14-1 21-4 26-15 48-33 67-12 12-25 21-41 28-25 10-51 13-78 8-28-6-51-20-70-41-10-11-17-23-23-37-5-14-7-29-7-45 0-27 0-54 0-81 0-4 0-4-5-4-9 0-18 0-27 0-4 0-6-2-6-6 0-1 0-2 0-3 0-66 0-132 0-198 0-8 0-15 0-23 0-4 2-5 6-5 1 0 2 0 3 0 52 0 104 0 156 0m0 235c-34 0-68 0-101 0-5 0-5 0-5 5 0 28 0 57 0 85 0 46 32 86 77 98 31 8 60 4 86-13 28-17 44-42 48-74 1-14 0-27 0-41 0-18 0-36 0-55 0-5 0-5-5-5-33 0-67 0-100 0m-1 34c23 0 45 0 67 0 4 0 4 0 4 4 0 13 0 26 0 39 0 8 1 17-1 25-6 36-42 61-80 55-17-2-32-10-43-23-11-12-17-25-17-41 0-19 0-37 0-55 0-4 0-4 4-4 22 0 44 0 66 0" horiz-adv-x="1000" />

<glyph glyph-name="pause" unicode="&#xe81a;" d="M500 845c-273 0-494-222-494-494 0-273 221-494 494-494 272 0 494 221 494 494 0 272-222 494-494 494m0-910c-230 0-416 186-416 416 0 229 186 415 416 415 229 0 415-186 415-416 0-229-186-415-415-415m-147 609h78c5 0 8-4 8-8v-392c0-5-4-8-8-8h-78c-5 0-8 4-8 8v392c0 4 3 8 8 8m219 0h79c4 0 7-4 7-8v-392c0-5-3-8-7-8h-79c-4 0-8 4-8 8v392c0 4 4 8 8 8" horiz-adv-x="1000" />

<glyph glyph-name="play" unicode="&#xe81b;" d="M500 845c-273 0-494-222-494-494 0-273 221-494 494-494 272 0 494 221 494 494 0 272-222 494-494 494m0-910c-230 0-416 186-416 416 0 229 186 415 416 415 229 0 415-186 415-416 0-229-186-415-415-415m226 399l-331-216c-6-4-14-2-18 4-1 2-2 4-2 6v436c0 7 6 12 13 12 2 0 5-1 7-2l332-216c6-4 8-13 4-20-1-1-3-3-5-4z" horiz-adv-x="1000" />

<glyph glyph-name="phone" unicode="&#xe81c;" d="M689-143c-224 0-683 456-683 678 0 50 20 98 55 133 43 43 86 64 130 64 57 0 103-36 143-75 37-34 74-88 74-122 0-38-17-63-31-83-22-33-38-57 66-160 69-69 105-83 123-83 13 0 24 8 39 17 20 14 46 31 84 31 34 0 88-37 123-73 45-47 139-145 11-272-36-35-84-55-134-55m-581 764c-23-23-36-54-36-86 0-81 96-231 239-374 144-142 295-238 378-238 33 0 63 13 87 36 76 75 43 122-12 179-36 37-70 52-76 53-17 0-29-9-46-20-19-13-43-28-76-28-46 0-99 31-170 102-121 120-120 176-74 244 11 16 20 29 20 46-1 5-16 39-54 74-28 27-62 56-97 56-26 0-53-14-83-44m664-282c-18-1-34 12-36 30-15 112-111 197-224 198-18 0-33 14-35 32 0 10 3 19 9 25 7 7 15 11 24 11 149 0 275-112 293-259 1-9-2-18-7-25-6-7-15-12-24-12m191 33c-18-1-34 12-35 30-22 216-210 380-429 375-18 0-33 13-34 31-1 9 3 18 9 24 6 7 15 10 23 11 254 7 473-184 497-435 1-9-2-17-8-24-6-7-14-11-23-12" horiz-adv-x="1000" />

<glyph glyph-name="print" unicode="&#xe81d;" d="M954 655c-4 5-10 7-16 7h-102c-31 0-55 7-82 15-32 10-69 21-125 22-45 0-100-33-130-54-22 38-69 112-113 141-68 46-188 58-193 59-6 0-13-2-18-6-5-4-7-11-7-17v-164h-108c-13 0-23-11-23-23v-720c0-12 10-23 22-23 7 0 160-3 232 25 29 12 100 8 113 2 26-12 49-30 67-52 1 0 1 0 2-1 2-3 6-6 10-7 2-1 5-2 8-2 6 0 12 2 17 7 16 16 68 57 120 57 37 0 76-8 115-15 34-6 66-12 94-12h92c12 0 23 10 23 22l9 723c0 6-2 12-7 16z m-740 141c37-6 105-20 146-48 39-26 89-107 108-142v-629c-24 33-58 71-103 97-48 25-98 42-151 53v669z m60-836c-48-19-146-22-191-22v673h84v-502c0-12 8-21 20-23 54-10 107-27 156-52 33-19 59-46 79-72-28 12-110 13-148-2z m632-20h-70c-23 0-53 5-85 11-38 8-82 16-123 16-45 0-85-20-113-39v672c25 19 80 53 113 53 50-1 82-11 113-20 29-9 57-17 94-17h79l-8-676z" horiz-adv-x="1000" />

<glyph glyph-name="printer" unicode="&#xe81e;" d="M807 491v271c0 30-24 54-54 54h-505c-31 0-55-24-55-54v-271h-88c-55 0-99-44-99-98v-271c0-54 44-98 99-98h88v-86c0-30 24-55 54-55h505c31 0 55 25 55 55v86h88c55 0 99 44 99 98v271c0 54-44 98-99 98h-88z m-570 271c0 6 5 11 11 11h505c6 0 11-5 11-11v-271h-527v271z m526-825c0-6-5-10-11-10h-504c-6 0-11 4-11 10v207h527v-207z m187 185c0-30-25-54-55-54h-88v119h-614v-119h-88c-30 0-55 24-55 54v271c0 30 25 54 55 54h790c30 0 55-24 55-54v-271z m-252 108h87v44h-87v-44z m-418-162h440v43h-440v-43z m0-87h440v43h-440v-43z" horiz-adv-x="1000" />

<glyph glyph-name="question" unicode="&#xe81f;" d="M600 408l-62-64c-9-10-10-20-10-35v-14c0-12-10-22-22-22h-54c-12 0-22 10-22 22v26c0 23 3 41 21 59l62 64c12 12 12 26 12 40 0 23-5 44-37 44-23 0-34-18-34-40v-16c0-13-11-23-24-23h-52c-14 0-24 10-24 23v16c0 81 58 123 134 123 73 0 137-31 137-123-1-22-5-59-25-80z m-171-198c0 13 10 23 23 23h54c13 0 23-10 23-23v-51c0-13-10-23-23-23h-54c-13 0-23 10-23 23v51z m407-87l8 13c43 68 65 145 65 225 0 231-188 420-420 420-231 0-420-189-420-420 0-232 189-420 420-420 80 0 158 22 225 65l13 8 164-54-55 163z m-347-247c-267 0-484 218-484 485 0 267 217 484 484 484 267 0 485-217 485-484 0-87-23-172-67-246l86-258-258 86c-74-44-159-67-246-67z" horiz-adv-x="1000" />

<glyph glyph-name="scripture" unicode="&#xe820;" d="M184 844h631c11 0 20-9 20-20v-790c0-11-9-20-20-20h-138v-79h99c11 0 20-9 20-20 0-11-9-20-20-20h-99v-19c0-7-3-14-9-17-3-2-7-3-11-3-3 0-6 0-8 2l-70 35-70-35c-7-3-14-3-20 0-5 4-9 10-9 17v20h-296c-11 0-20 9-20 20v118 791c0 11 9 20 20 20z m341-316v97c0 4-4 7-8 7h-35c-4 0-7-3-7-7v-97h-78c-4 0-7-4-7-8v-34c0-5 3-8 7-8h78v-226c0-4 3-8 7-8h35c4 0 8 4 8 8v226h77c4 0 8 3 8 7v35c0 4-4 8-8 8h-77z m-321-593h276v79h-276v-79z m434-27l-51 25c-5 3-12 3-17 0l-51-25v106h119v-106z m-434 146h592v750h-592v-750z" horiz-adv-x="1000" />

<glyph glyph-name="search" unicode="&#xe821;" d="M756 159c71-70 141-139 212-208 13-13 23-29 20-49-3-21-15-37-37-43-21-7-39-1-53 14-42 43-84 86-127 128-28 29-58 56-89 84-103-76-221-105-350-74-101 23-182 79-242 163-124 173-100 411 54 556 153 145 383 152 548 18 158-127 217-382 64-589m-327 581c-174 0-315-142-315-317 0-174 140-318 310-318 177-1 318 139 319 317 1 176-140 318-314 318" horiz-adv-x="1000" />

<glyph glyph-name="support_empty" unicode="&#xe822;" d="M477-70l-370 354-3 2c-123 121-132 308-18 417 107 103 288 101 414 1 126 100 307 102 414-1 114-109 105-296-19-417l-2-3-370-354c-6-5-15-9-23-9-9 1-17 4-23 10z m23 74l344 329 3 3c97 95 103 237 19 317-81 77-222 77-323-3l-43-34-43 34c-101 80-242 80-323 3-84-80-78-222 19-318l347-331z" horiz-adv-x="1000" />

<glyph glyph-name="support_filled" unicode="&#xe823;" d="M500-80c-8 0-17 4-23 9l-370 355-3 2c-123 121-132 308-18 417 107 103 288 101 414 1 126 100 307 102 414-1 114-109 105-296-19-417l-2-3-370-354c-6-5-15-9-23-9" horiz-adv-x="1000" />

<glyph glyph-name="text" unicode="&#xe824;" d="M639 478c-28 0-51 23-51 52 0 28 23 50 51 50 27 0 50-22 50-50 0-29-22-52-50-52m84 51c0 29 22 51 50 51 28 0 50-22 51-50 0-29-22-52-51-52-28 0-50 22-50 51m-218-51c-28 0-50 22-50 51 0 29 22 51 50 51 28 0 51-22 51-50-1-29-22-52-51-52m-180-564c-19 0-39 0-58 0-9 0-15 4-19 13-3 8-3 17 4 23 5 4 11 7 16 7 38 0 76 0 114 0 13 0 20-7 22-19 1-11-5-20-15-23-3-1-7-1-10-1-18 0-36 0-54 0l0 0z m266 325c0-14 0-26 0-39 0-82 1-165 0-247 0-56-41-97-96-97-100 0-201 0-302 0-19 0-39-1-59 2-41 7-74 45-75 88-1 66 0 132 0 198 0 101 0 202 0 303 0 90-1 179 0 268 1 43 39 83 81 86 27 2 54 1 81 1 87 0 174 0 261 0 3 0 7 1 10 3 121 68 270 45 365-57 50-54 78-119 81-194 4-92-27-170-92-234-48-48-107-75-173-83-27-3-54-2-82 2z m-42-223c0 3 0 5 0 8 0 41 1 82 1 123 0 32-1 63 0 95 0 4-1 7-5 9-18 7-36 16-54 24-3 1-7 2-9 1-46-17-91-34-136-50-3-1-6-2-9-4 0 3 0 4 1 5 15 48 31 97 46 145 1 3 0 6-1 9-45 75-55 155-34 239 2 8 5 15 7 23h-255v-627h448z m-150 273c4 1 6 2 8 2 25 10 50 19 76 29 5 2 9 1 14-2 28-18 59-31 92-37 81-15 154 2 216 56 85 74 112 169 82 278-36 131-168 210-299 183-106-22-186-104-205-211-13-72 1-138 42-198 3-4 4-8 2-12-9-29-18-58-28-88z m-298-317c0-8 0-15 0-23 1-27 21-49 48-50 17-1 34 0 51 0 97 0 193 0 290 0 11 0 22 0 31 5 26 15 31 36 27 68h-447z m330 788c-16 0-29 0-43 0-78 0-156 0-234 0-12 0-23-4-32-11-22-16-22-39-20-63 1 0 2-1 3-1 89 0 177 0 265 1 3 0 6 2 8 5 11 16 22 32 34 48 5 7 12 13 19 21z" horiz-adv-x="1000" />

<glyph glyph-name="twitter" unicode="&#xe825;" d="M967 672c7 25-1 52-22 69-11 9-25 14-39 14-11 0-23-3-33-9-20-12-40-22-62-28-42 32-93 50-146 50-122 0-223-92-238-210-97 21-185 75-249 153-12 16-30 24-49 24-2 0-3 0-5 0-21-2-40-13-50-32-22-36-33-78-33-121 0-29 5-57 15-83-10-12-16-27-16-43 0-63 24-122 63-165-2-11-2-23 2-34 14-43 39-80 71-109-21-5-43-7-65-7-11 0-23 1-35 2-2 0-5 0-7 0-27 0-51-16-60-42-10-28 1-60 25-76 92-58 197-90 305-90 352 0 563 285 566 562 29 25 54 53 75 85 8 10 13 24 13 38 0 22-10 41-26 52m-126-144c1-7 1-15 1-23 0-234-178-505-502-505-100 0-193 29-271 80 14-2 28-3 42-3 83 0 159 28 219 76-77 2-142 53-165 124 11-2 22-4 34-4 16 0 31 3 46 7-81 16-142 88-142 174v2c24-13 51-21 80-22-47 32-78 86-78 148 0 33 9 63 24 89 87-107 217-178 364-185-3 13-5 26-5 40 0 98 79 178 177 178 51 0 97-22 129-56 40 8 78 23 112 43-13-41-41-76-77-98 35 4 69 14 101 28-24-36-54-68-89-93" horiz-adv-x="1000" />

<glyph glyph-name="instagram" unicode="&#xe826;" d="M820 618c0-28-24-52-53-52s-52 24-52 52c0 29 24 53 52 53s53-24 53-53m-71-268c0-137-112-249-250-249s-249 112-249 249 112 250 250 250 249-112 249-250m-74 0c0 97-79 176-176 176s-175-79-175-176 79-175 175-175 176 79 176 175m318 26l0-25 0-26c0-59 1-121-3-181-4-92-29-155-79-205-50-50-113-74-205-79-60-3-121-3-180-3l-26 0-27 0c-59 0-120 0-180 3-92 4-155 29-205 79-50 50-75 113-79 205-4 61-4 122-3 181l0 26 0 25c0 59-1 121 3 181 4 92 29 155 79 205s113 75 205 79c60 4 122 3 181 3l25 0 26 0c59 0 121 1 181-3 92-4 155-29 205-79s74-113 79-205c4-60 4-122 3-181m-74-26c0 11 0 22 0 35 1 82 2 206-21 264-9 24-21 42-39 60-19 19-36 30-61 40-58 23-181 22-263 21-26 0-45 0-71 0-81 1-205 2-263-21-24-10-42-21-61-40s-30-36-39-60c-23-58-22-182-21-264 0-13 0-24 0-35 0-10 0-22 0-35-1-81-2-205 21-263 9-24 21-42 39-61s37-30 61-39c46-19 135-22 211-22 19 0 36 1 52 1 26 0 45 0 71 0 81-1 205-2 263 21 24 9 42 21 61 39 18 19 30 37 39 61 23 58 22 181 21 263 0 13 0 25 0 35" horiz-adv-x="1000" />

<glyph glyph-name="whatsapp" unicode="&#xe827;" d="M502 840c236 0 439-167 485-396 44-225-78-454-290-542-151-62-299-52-442 25-5 3-13 4-18 2-53-18-106-36-159-54-14-5-26-5-36 6-11 10-11 22-7 35 17 53 33 106 49 160 1 6 0 14-3 19-51 83-78 174-72 272 12 204 114 348 299 432 64 30 128 41 194 41m-392-890c5 2 8 3 11 4 37 12 75 25 112 38 14 5 26 4 39-4 95-59 198-77 308-59 234 40 392 268 348 501-50 257-322 419-579 321-168-64-262-191-279-371-9-98 18-187 73-269 7-10 9-21 5-33-12-38-23-76-35-115-1-3-2-7-3-13m532 98c-45 0-87 13-127 33-89 44-161 109-222 186-43 53-76 111-92 178-8 37-9 74 5 110 22 55 66 84 121 98 14 4 24-5 31-17 27-44 54-88 82-132 5-8 10-17 15-26 7-12 6-26-4-36-8-8-16-15-24-24-2-2-3-8-1-10 33-53 72-99 127-131 8-5 13-5 19 2 8 9 16 17 25 25 10 10 25 11 36 4 52-32 104-64 156-96 19-12 23-24 15-45-7-14-13-29-22-42-32-52-80-77-140-77m-1 60c42 0 72 18 94 53 4 7 4 11-4 15-34 21-68 42-102 63-5 4-9 3-13-1-7-8-15-15-23-23-12-12-23-14-39-7-11 5-22 11-32 17-73 43-124 107-165 179-7 12-4 25 6 36 7 7 15 14 22 22 2 3 3 9 2 11-22 36-43 72-66 107-1 3-8 5-10 3-33-15-52-41-54-78-3-35 6-67 21-98 59-122 149-213 269-274 30-15 61-25 94-25" horiz-adv-x="1000" />

<glyph glyph-name="facebook" unicode="&#xe828;" d="M994 49c0 38 0 77 0 115 0 32 0 64 0 96 0 40 0 80 0 120 0 32 0 65 0 97 0 39 0 79 0 118 0 33 0 66 0 99 0 30 0 61-1 91-1 34-30 61-64 61-286 0-573 0-859 0-16 0-30-6-42-16-16-14-22-32-22-54 1-28 0-57 0-86 0-40 0-80 0-120 0-32 0-65 0-97 0-40 0-80 0-120 0 0 0 0 0 0v-12c0-41 0-82 0-122 0-38 0-76 0-114 0-32 0-65 0-97 0-31 0-61 1-92 1-29 30-57 60-57 21 0 42 0 64 0 47 0 95 0 143 0 45 0 90 0 134 0 41 0 82 0 123 0 44 0 89 0 133 0 39 0 77 0 116 0 38 0 76 0 115 0 14 0 29-1 44 1 31 5 54 31 55 67 0 40 0 81 0 122m-45-116c0-16-5-25-18-29-2-1-5-1-8-1-81 0-162 0-244 0-7 0-8 2-8 8 0 54 0 107 0 161 0 54 0 107 0 161 0 7 2 9 8 9 34-1 68 0 102 0 13 0 13 0 14 13 4 30 8 60 12 90 2 11 3 22 5 33 0 4-1 6-5 6-38-1-76-1-113-1-6 0-12 1-18 0-3 0-5 1-5 5 1 35 1 70 2 106 0 13 5 26 15 35 12 11 27 16 43 16 26 1 52 1 78 1 6 0 9 1 9 7-1 37-1 74 0 111 0 5-1 7-7 8-44 5-88 8-132 4-41-4-78-20-107-50-20-22-33-48-40-77-9-33-7-66-7-100 0-20 0-40 0-61 0-4-2-5-6-5-17 0-34 0-51 0-19 0-39 0-58 0-7 1-8-2-8-8 0-42 0-85 0-127 0-5 2-6 6-6 20 0 39 0 59 0 18 0 35-1 53 0 5 0 5-4 5-7 0-14 0-29 0-43 0-32 0-65 0-97 0-39 0-78 0-117 0-22 0-45 0-67 0-6-2-8-8-8-147 0-294 0-442 0-14 0-24 10-24 25-1 36 0 73 0 109 0 52-1 103-1 155 0 44 1 88 1 132 0 52-1 103-1 155 0 33 1 67 1 100 0 42-1 83-1 125 0 24 1 49 0 74 0 11 12 24 24 24 59-1 117-1 176-1 62 0 124 1 186 1 22 0 43 0 64 0v-1c33 0 66 0 99 0 41 0 82 0 122 0 34 0 67 1 100 1 34 0 69-1 103-1 15 0 25-10 25-25 0-2 0-4 0-7 0-278 0-557 0-836" horiz-adv-x="1000" />

<glyph glyph-name="share" unicode="&#xe829;" d="M327 650c-17 14-17 40 0 54l143 129c16 14 42 14 58 0l143-129c17-15 17-40 0-54-8-6-17-10-28-10s-22 4-30 11l-75 68v-464c0-21-17-37-39-37s-40 17-40 37v464l-76-67c-8-7-18-11-29-11-10-1-21 3-27 9m490-30h-127c-20 0-39-14-40-34-3-23 15-41 38-41h109c11 0 20-7 20-19v-565c0-11-9-15-20-15h-594c-11 0-20 4-20 15v566c0 11 9 18 20 18h107c20 0 39 14 40 34 3 24-16 41-39 41h-128c-44 0-76-31-76-73v-604c0-44 32-82 76-82h634c45 0 76 40 76 82v604c0 42-32 73-76 73" horiz-adv-x="1000" />

<glyph glyph-name="add_itunes" unicode="&#xe82a;" d="M927 597c-44 76-104 136-180 180-75 44-158 66-247 66s-172-22-247-66c-76-44-136-104-180-180s-66-158-66-247 22-172 66-247 104-136 180-180 158-66 247-66 172 22 247 66 136 104 180 180c44 75 66 158 66 247s-22 172-66 247z m-139-288c0-11-4-21-13-29-8-8-17-12-28-12h-165v-164c0-12-4-21-12-29-8-8-18-12-29-12h-82c-11 0-21 4-29 12-8 8-12 18-12 29v164h-164c-12 0-21 4-29 12-8 8-12 18-12 29v82c0 11 4 21 12 29 8 8 18 12 29 12h164v165c0 11 4 20 12 28 8 9 18 13 29 13h82c11 0 21-4 29-13 8-8 12-17 12-28v-165h165c11 0 20-4 28-12 9-8 13-18 13-29v-82z" horiz-adv-x="1000" />

<glyph glyph-name="download_mp3" unicode="&#xe82b;" d="M927 597c-44 76-104 136-180 180-75 44-158 66-247 66s-172-22-247-66c-76-44-136-104-180-180s-66-158-66-247 22-172 66-247 104-136 180-180 158-66 247-66 172 22 247 66 136 104 180 180c44 75 66 158 66 247s-22 172-66 247z m-107-277l-291-290c-8-8-18-12-29-12s-21 4-29 12l-291 290c-7 8-11 18-11 29 0 12 4 21 11 29l59 58c8 9 18 13 29 13 11 0 20-4 28-13l122-121v323c0 11 4 20 12 28 8 9 18 13 29 13h82c11 0 21-4 29-13 8-8 12-17 12-28v-323l121 122c8 8 18 11 29 11 12 0 21-3 29-11l58-59c8-7 12-17 12-28 0-12-4-22-11-30z" horiz-adv-x="1000" />

<glyph glyph-name="avatarbold" unicode="&#xe82c;" d="M-853 197c0 18 7 36 20 50-13-14-20-32-20-50z m0-55c0-2 0-4 1-5-1 1-1 3-1 5l0 0z m1337 191c131 0 232 142 232 264 0 132-108 247-232 247s-232-115-232-247c0-60 25-126 66-177 46-56 105-87 166-87z m0 434c80 0 154-81 154-170 0-41-17-88-46-125-2-2-4-5-6-7-2-2-4-5-6-7-1-1-2-2-3-3-2-2-4-4-6-6-2-2-4-4-6-6-6-4-11-8-17-12-3-2-7-4-10-6-5-2-9-5-14-6-7-3-15-5-22-6-2-1-5-1-7-1-4-1-7-1-11-1-39 0-78 22-109 61-28 37-45 84-45 125 0 89 73 169 154 170z m275-444h-550c-83 0-150-67-150-148v-55c0-59 36-112 91-135l275-117c19-8 39-12 59-12 20 0 40 4 59 12l275 117c55 23 90 76 90 136v54c0 82-66 148-149 148z m71-148v-55c0-29-17-54-43-65l-275-118c-18-7-38-7-56 0l-275 117c-17 7-29 20-37 35-1 3-2 7-3 10-1 1-1 3-2 5 0 3-1 7-1 10 0 2 0 3 0 5v55c-1 19 6 36 20 50 13 13 30 21 49 21h552c5 0 9 0 13-1 2 0 3-1 5-1 3-1 6-2 10-3 1-1 2-1 3-2 3-1 6-3 9-5 3-2 5-4 8-6 1-2 3-3 5-5 1-1 3-3 4-5 1-2 3-4 4-6 3-6 6-12 8-19 0-1 0-2 1-3 0-3 1-7 1-11 0-1 0-2 0-3z m-990 23l0 0c0 1 0 2 0 3 0-1 0-2 0-3z" horiz-adv-x="1000" />

<glyph glyph-name="bookmark_emptybold" unicode="&#xe82d;" d="M929 133c0 24 0 47 0 71 0 182 0 371 0 557 0 13-1 23-4 32-11 31-43 53-79 53-58 0-115 0-173 0-170 0-345 0-518 0-23 0-46-9-62-26-16-15-24-35-24-57 1-102 1-206 1-306 0-38 0-76 0-115 0-45 0-90 0-135 0-88 0-180 0-270 0-46 41-77 80-79 2 0 3 0 4 0 23 0 43 9 62 27 44 41 89 83 134 125 44 42 89 83 134 125 5 5 10 10 16 15l137-128c10-9 19-19 29-28 39-37 79-74 119-111 24-22 51-29 78-23 43 10 67 41 67 84-1 63-1 127-1 189z m-83 637v-820l-348 307-344-315-6 828h698z" horiz-adv-x="1000" />

<glyph glyph-name="bookmark_filledbold" unicode="&#xe82e;" d="M935 122v20c0 11 0 22 0 33s0 23 0 34c0 176 0 359 0 538 0 13-2 24-5 33-12 34-46 56-85 56-215 0-459 0-692 0-25 0-50-10-67-27-17-16-26-37-25-60 0-99 0-199 0-295v-503c0-49 45-81 87-83h0c1 0 1 0 2 0 1 0 2 0 3 0 24 0 45 9 66 27 51 46 104 94 159 144l8 7c33 30 68 61 101 92l3 2c3 2 5 5 8 8 21-19 43-39 64-58l1-1c22-20 45-41 68-61 5-4 9-8 14-12 8-8 17-17 26-24 41-37 75-68 109-98 25-23 55-31 84-24 46 11 73 43 72 88-1 54-1 110-1 164z m-97-144l-342 291-337-298-6 778h685v-771z m-54 639l5 4-80 67-302-287 0 0-115 106-4 4-5-5-67-65 0-1 199-170 369 347z m-491-110l-5 4 119-110-114 106z m-77-67l0 0 0 1 0-1z m569 176l5 5-1 0-374-351 370 346z m-66 71l70-66 0 0-70 66-5 5-5-4 5 4 5-5z m-436-181l-67-65 72 70-5-5z m426 182l-302-287 0 0 0 0 302 287z m0 0l-302-287 0 0 302 287z m-302-287l-119 110 4-4 115-106z m8-131l374 351-5-4-369-347z m304 417l-5 5-5-4 80-67-70 66z m-431-176l-72-70 67 65 5 5z m116-243l5-4 6 6-6-6-5 5-188 171-1 0 189-172z m5-4l6 6-199 170 188-171 5-5z" horiz-adv-x="1000" />

<glyph glyph-name="box_emptybold" unicode="&#xe82f;" d="M975 844h-950c-10 0-19-9-19-19v-950c0-11 9-19 19-19h950c11 0 19 8 19 19v950c0 10-8 19-19 19z m-44-63v-862h-862v862h862z" horiz-adv-x="1000" />

<glyph glyph-name="calendarbold" unicode="&#xe830;" d="M909 761h-171v58c0 14-11 25-25 25h-36c-14 0-25-12-25-25v-58h-304v58c0 14-11 25-25 25h-36c-14 0-25-12-25-25v-58h-173c-41 0-75-33-75-74v-757c0-41 34-74 75-74h820c41 0 75 33 75 74v757c0 41-34 74-75 74z m-823-74c0 2 2 3 3 3h173v-52c0-13 11-25 25-25h36c14 0 25 11 25 25v52h303v-52c0-13 12-25 26-25h35c15 0 26 11 26 25v52h170c2 0 3-1 3-3v-119h-825v119z m826-757c0-1-2-3-3-3h-820c-1 0-3 2-3 3v566h826v-566z m-111 413h-602v74h602v-74z m-186-183h-416v0l416 0 0 0z m0 0h-416v75h416v-75z" horiz-adv-x="1000" />

<glyph glyph-name="chevron_downbold" unicode="&#xe831;" d="M988 546l-51 58c-8 8-20 9-28 1l-407-368-414 369c-8 7-21 7-28-2l-50-58c-4-4-6-9-5-14 0-5 2-10 6-14l478-426c4-3 9-5 13-5 5 0 10 2 14 5l470 426c8 8 9 20 2 28z" horiz-adv-x="1000" />

<glyph glyph-name="chevron_leftbold" unicode="&#xe832;" d="M385 346l370 415c7 8 6 20-2 27l-58 50c-7 7-19 7-26-1l-426-479c-7-7-7-18 0-25l426-472c4-4 9-6 14-6 4 0 9 2 12 5l58 51c8 7 8 19 1 26l-369 409z" horiz-adv-x="1000" />

<glyph glyph-name="chevron_rightbold" unicode="&#xe833;" d="M766 375l-426 457c-13 14-34 15-48 3l-58-50c-6-6-10-14-11-23 0-8 3-17 9-23l360-387-360-393c-6-7-10-15-9-24 1-9 5-17 12-23l58-49c6-5 14-8 22-8 10 0 19 4 25 11l426 465c12 12 12 31 0 44z" horiz-adv-x="1000" />

<glyph glyph-name="chevron_upbold" unicode="&#xe834;" d="M996 167c-1 5-3 10-7 14l-478 426c-7 7-19 7-26 0l-471-427c-8-7-8-19-1-28l51-57c7-8 20-9 28-1l407 368 414-369c3-3 8-5 13-5 0 0 0 0 1 0 5 1 10 3 14 7l50 58c3 4 5 9 5 14z" horiz-adv-x="1000" />

<glyph glyph-name="commentbold" unicode="&#xe835;" d="M237 507c0 0 0 0 0 0 0-21 17-38 39-38h228c22 0 39 17 39 39 0 0 0 0 0 0 0-22-17-39-39-39h-228c-22-1-39 17-39 38z m527-256h-488c-22 0-39-17-39-39 0-21 17-39 39-39h488c22 0 39 18 39 39 0 22-17 39-39 39z m0-78h-488c-22 0-39 18-39 39 0 0 0 0 0 0 0-22 17-39 39-39h488c22 0 39 18 39 39 0 0 0 0 0 0 0-21-17-39-39-39z m-488 296h228c22 0 39 17 39 39 0 21-17 39-39 39h-228c-22 0-39-18-39-39 0-22 17-39 39-39z m0 77h228c22 0 39-17 39-39 0 0 0 0 0 0 0 22-17 39-39 39l-228 0c-22 1-39-17-39-38 0 0 0 0 0 0 0 21 17 38 39 38z m488-148h-488c-22 0-39-17-39-39 0-21 17-39 39-39h488c22 0 39 18 39 39 0 22-17 39-39 39z m0-147h-488c-22 0-39-17-39-39 0 0 0 0 0 0 0 22 17 39 39 39h488c22 0 39-17 39-39 0 0 0 0 0 0 0 22-17 39-39 39z m222 23c-8-58-28-113-59-164-77-125-182-204-313-234-39-9-77-13-115-13-86 0-168 22-246 68-50-18-165-58-175-61l-71-20 22 69c26 81 44 138 56 174-55 84-80 176-75 274 5 116 47 221 121 306 74 84 173 138 286 158 127 21 254-5 357-75 104-69 176-176 203-301 14-64 17-125 9-181z m-86 165c-48 217-249 352-470 315-95-16-178-62-240-133-62-70-97-160-101-258-4-83 18-162 66-235 11-16 13-34 7-53-7-22-18-56-34-106l7 3c34 11 73 25 94 33 9 3 17 4 25 4 13 0 24-3 36-10 95-56 198-72 307-47 110 25 196 90 262 199 52 83 65 178 41 288z m-136-40h-488c-22 0-39-18-39-39 0 0 0 0 0 0 0 21 17 39 39 39l488 0c22-1 39-18 39-39 0 0 0 0 0 0 0 21-17 39-39 39z m0-78h-488c-22 0-39 17-39 39 0 0 0 0 0 0 0-22 17-39 39-39l488 0c22-1 39 17 39 38 0 0 0 0 0 0 0-21-17-38-39-38z" horiz-adv-x="1000" />

<glyph glyph-name="closebold" unicode="&#xe836;" d="M575 350l383 403c7 7 11 16 11 26 0 10-4 20-10 27l-25 26c-7 7-16 11-25 11 0 0 0 0 0 0-10 0-19-4-26-11l-383-403-384 403c-6 7-15 11-25 11 0 0 0 0 0 0-9 0-18-4-25-11l-25-26c-6-7-10-16-10-26 0-10 3-20 10-27l384-403-384-403c-6-7-10-16-10-26 0-10 3-20 10-27l25-26c7-7 16-11 25-11 0 0 0 0 0 0 10 0 19 4 26 11l383 403 383-403c7-7 16-11 25-11 0 0 1 0 1 0 9 0 18 4 25 11l24 26c7 7 11 16 11 26 0 10-4 20-10 27l-384 403z" horiz-adv-x="1000" />

<glyph glyph-name="contactbold" unicode="&#xe837;" d="M657 157c-9 6-19 12-28 18-30 18-62 18-96-1-10-5-19-12-29-18-12-8-24-8-35-2-14 6-24 13-34 20-27 20-53 45-79 75-10 11-19 24-28 38-9 15-9 31 2 46 6 7 10 14 15 22 20 33 21 64 3 94-27 45-64 81-110 107-26 15-53 20-81 14-41-8-76-31-105-70-32-43-39-93-20-148 13-41 34-81 67-126 67-96 152-184 253-261 53-40 100-69 148-89 22-9 53-20 86-20h0 1c2 0 4 0 6 0 4 1 9 1 13 1 46 6 84 29 115 69 21 27 32 54 32 81 1 27-9 54-28 81-20 27-43 50-68 69z m18-185c-21-30-43-46-71-51-1 0-2 0-3-1-1 0-2 0-3 0-2 0-5 0-7-1-2 0-3 0-4 0-27 1-50 9-69 17-45 20-89 47-139 87-94 75-170 154-231 241-25 35-41 66-53 97-8 21-14 46-6 72 13 40 41 66 83 75 3 1 6 1 8 1 10 0 19-4 25-7 14-8 26-17 38-27 20-16 36-35 49-56 5-10 6-18 0-28-2-4-5-9-8-13 0-1-1-3-2-4-2-2-3-5-5-7-1-3-3-6-5-8-19-32-20-66-2-97 12-21 26-40 41-57 35-41 68-71 104-94 12-7 25-14 40-19 27-10 53-7 79 9 6 3 12 7 18 10 4 3 8 6 12 8 12 8 23 8 36 0 30-18 56-43 77-74 16-24 16-48-2-73z m292 636c-34 159-182 259-344 231-70-11-131-45-176-97-46-52-72-118-75-189-3-62 14-120 49-173 2-3 2-5 1-8-8-24-16-48-24-72-3-11-7-23-11-35-1-3-2-5-2-8 0-1-1-2-1-3l-3-12 12 3c1 1 2 1 3 1 3 1 5 2 8 3 34 12 69 24 104 37 5 1 7 1 12-1 48-29 100-44 153-44 24 0 47 3 71 9 80 18 145 67 193 145 38 62 48 132 30 213z m-66-165c-40-80-101-128-181-143-62-12-121-1-174 32-11 7-21 10-32 10-7 0-14-1-21-5-8-3-15-5-23-8-2 0-4-1-6-2 1 3 2 6 3 8 2 9 5 18 8 26 6 16 4 30-6 44-22 32-36 67-41 104-7 60 7 122 40 172 36 54 90 90 156 104 133 29 260-53 290-186 13-60 9-111-13-156z m-129 47c0-1 1-1 1-1 0 0-1 0-1 1z m47 103c-1 0-2 0-3 0 1 0 2 0 3 0z m-49-101c-1 1-1 1-2 2 1 0 1-1 2-2z m-15 38c0-14 5-26 13-36-8 10-13 22-13 36z m16-39c0 0 0 0-1 1 0-1 1-1 1-1z m87-2c12 12 18 27 18 43 0-16-6-31-18-43z m-46-17c1 0 2 0 3 0-1 0-2 0-3 0z m-38 16c0 0 0 0 0 0 0 0 0 0 0 0z m102 48c0 13-5 25-13 35 8-10 13-22 13-35z m-16 38c0 0 0-1 1-1-1 0-1 1-1 1z m1-1c1-1 1-2 2-2-1 0-1 1-2 2z m-3 3c0 0 1-1 1-1 0 0-1 1-1 1z m-1 1c0 0 0 0 0 0 0 0 0 0 0 0z m-243-43c-1-17 6-33 17-44 0 0 0 0 0 0-12 11-18 27-17 44 0 33 27 59 60 59 0 0 0 0 1 0 16 0 31-7 42-18-11 11-26 18-42 18 0 0 0 0-1 0-33 0-60-26-60-59z m-21 8c0-3 1-6 1-10 0-5-1-10-2-15 1 5 2 10 2 15 0 4-1 7-1 10z m-15-51c-2-2-4-4-7-6 3 2 5 4 7 6z m-88 85c-11-12-18-27-18-43 0 16 7 31 18 43z m98-17c-1 1-2 3-2 4 0-1 1-3 2-4z m1-3c2-5 3-9 4-14-1 5-2 10-4 14z m-56-84c15 0 28 5 39 13-11-8-24-13-39-13-3 0-7 0-10 1 3-1 7-1 10-1z m-27 6c-2 1-3 2-5 3 2-1 3-2 5-3z m14-5c-2 0-4 1-5 2 1-1 3-2 5-2z m58 18c2 3 4 5 5 7-1-2-3-4-5-7z m5 7c2 3 4 7 6 11-2-4-4-7-6-11z m-100-1c1-1 2-2 3-3-1 1-2 2-3 3z m101 69c-2 2-3 4-5 6 2-2 3-4 5-6z m5-57c1 1 1 3 2 5-1-2-1-4-2-5z m-10 63c-1 2-3 4-5 5 2-1 4-3 5-5z m-101-66c1-2 2-3 3-5-1 2-2 3-3 5z m12 70c0 0 0 0 0 0 0 0 0 0 0 0 12 11 27 17 43 17-16 0-31-6-43-17z m-18-43c0-4 1-9 1-13 0 4-1 9-1 13 0 0 0 0 0 0 0 0 0 0 0 0z m82 56c-1 1-3 1-5 2 2 0 4-1 5-2z m6-2c-2 1-4 2-6 2 2 0 4-1 6-2z m-77-90c-1 1-2 3-2 4 1-1 1-3 2-4z m-6 12c-2 4-3 7-4 11 1-4 2-7 4-11z m107 57c0-1 1-2 2-3-1 1-2 2-2 3z m-14 15c-3 2-5 3-8 5 3-2 5-3 8-5z m24-49c0-5-1-10-2-15-1-1-1-2-1-3-1-2-1-4-2-5-2-4-4-7-6-11-1-2-3-4-5-7s-4-4-7-6c-10-8-24-13-38-13-4 0-7 0-10 1-1 0-2 0-3 0-2 1-4 1-6 2-2 1-5 2-8 3-2 1-4 2-5 3-6 3-11 8-15 13-1 1-2 2-3 3-1 1-2 3-2 4-1 2-2 3-3 5-1 1-1 2-1 3-2 4-3 7-4 11-1 4-1 9-1 13 0 0 0 0 0 0 0 16 7 31 18 43 0 0 0 0 0 0 12 11 27 17 43 17 6 0 11-1 16-2 2 0 3-1 5-2 2 0 4-1 6-2 1 0 2-1 2-1 3-2 5-3 8-5 1-1 3-2 4-4 2-1 4-3 5-5 2-1 3-3 5-5 0-1 1-3 2-4 0-1 1-3 2-4 0-1 1-2 1-3 2-4 3-9 4-14 0-3 1-6 1-10z m141 1c0-16-7-33-19-44-11-11-25-17-40-17 0 0 0 0 0 0-18 0-34 7-45 18 0 0 0 0 0 0 11-11 27-17 45-18 0 0 0 0 0 0 15 0 29 6 40 17 12 12 19 28 19 44 0 17-7 32-18 42 11-10 18-25 18-42z m-59-61c-18 1-34 7-45 18-11 11-18 27-17 44 0 33 27 59 60 59 1 0 1 0 1 0 16 0 31-7 42-18 11-10 18-25 18-42 0-16-7-32-19-44-11-11-25-17-40-17 0 0 0 0 0 0z m200 64c0-1 0-2 0-4 0 1 0 2 0 4z m-60 57c-16 0-32-6-43-17 11 11 27 17 43 17z m41-16c-10 10-23 15-38 16 15-1 28-7 38-16z m-87-85c0 0 0 0 0 0 0 0 0 0 0 0z m-2 2c0 0 0 0 0 0 0 0 0 0 0 0z m-13 39c0-1 0-2 0-3 0 1 0 2 0 3z m103 43c0 0-1 1-1 1 0 0 1-1 1-1z m5-5c0 0 0 0 0 0 0 0 0 0 0 0z m-4 4c0 0 0 0 1-1-1 1-1 1-1 1z m-85-87c10-10 23-15 38-16-15 1-28 6-38 16z m87 85c0 0 0 0 0 0 0 0 0 0 0 0z m-45-101c16 0 31 6 42 17-11-11-26-17-42-17z m-43 17c0 0 1-1 1-1 0 0-1 1-1 1z m0 87c-12-11-18-27-18-43 0 16 6 32 18 43z m-2-85c1-1 1-1 1-1 0 0-1 0-1 1z m105 45c0-1 0-2 0-4 0-16-6-31-18-43s-26-17-42-17c-1 0-1 0-1 0-1 0-2 0-3 0-15 1-28 6-38 15 0 0 0 0 0 0 0 1-1 1-1 2-1 0-1 0-1 1 0 0-1 0-1 1 0 0-1 0-1 1 0 0 0 0-1 0 0 1-1 1-1 2 0 0 0 0 0 0-8 10-13 22-13 36 0 1 0 2 0 3 0 16 6 31 18 43 11 11 26 17 43 17 1 0 2 0 3 0 14-1 27-7 37-16 0 0 0 0 0 0 1 0 1-1 2-1 0 0 0-1 0-1 1 0 1 0 1-1 1 0 1-1 1-1 1 0 1 0 1 0 0-1 1-2 1-2 0 0 0 0 0 0 9-10 14-22 14-35z" horiz-adv-x="1000" />

<glyph glyph-name="emailbold" unicode="&#xe838;" d="M372 713c-5 11-2 24 6 31 6 5 12 10 18 15 6 5 12 10 18 15l66 54c7 6 14 9 22 9h1c7 0 12-2 17-6 11-9 22-18 32-27 11-8 21-17 32-26l16-13c2-2 5-5 8-7 5-4 11-9 16-13 12-10 13-27 3-38-5-7-13-10-21-10-6 0-12 2-17 5-6 5-12 10-17 14-2 2-4 4-6 5l-61 50c-1 1-2 2-3 3l-1 0c-4-4-9-8-14-11l-2-3-15-12c-9-7-18-14-26-22-9-7-18-14-27-22-8-6-17-8-26-6-8 2-15 7-19 15z m609-329c-1-33-1-65-1-97l1-124-1-167c0-14 0-28 0-43-1-47-40-87-88-89-24 0-49 0-72 0h-705c-27 0-50 10-68 27-18 18-27 40-27 68v147l0 125v199c0 11 4 19 12 26 14 11 28 23 42 34 6 5 12 10 19 15l22 19c2 1 3 2 5 4 3 2 6 5 9 7l0 0c5 4 11 6 17 6 7 0 13-2 17-6 10-8 14-21 9-32-2-5-5-9-9-12-16-13-33-27-50-41l-16-13c-1 0-1-1-2-1 0-1-1-1-1-2l106-73v171c0 7 0 15 0 22 0 15 0 31 0 46 1 24 12 44 34 57 11 7 24 10 40 10 25 0 52 0 77 0h378c14 0 25-2 34-7 24-13 37-33 37-57 0-30 0-59 0-88 0-10 0-19 0-29v-123c0 0 0-1 0-2l107 74-2 2-65 53c-7 5-10 10-12 15-3 12 1 24 12 31 10 7 23 6 33-2 4-3 8-6 11-9s7-5 11-8l26-22c15-13 32-26 48-39 8-7 12-14 12-24h0v-48z m-725-59c0-3 1-4 2-5 14-9 27-19 40-28l49-33c10-7 21-15 32-22 4-3 9-6 13-9 28-20 57-40 86-60 2-1 3-2 5-3 3-2 6-4 9-6l8-5 206 142c11 8 23 16 35 24 2 2 3 3 3 5v233c0 7 0 13 0 20s0 13 0 20c0 9-5 13-14 14-5-1-9 0-14 0s-9 0-13 0h-38c-16-1-33-1-49-1-12 0-23 0-34 0-11 0-22 0-33 0h-45c-11 0-23 0-35 0-23 0-47 0-70 0h-129c-9 0-14-5-14-13v0c0-4 0-7 0-11v-262z m668 54l-287-198 4-4c4-3 8-6 12-9 15-11 30-23 46-34 15-11 30-23 45-34 25-19 51-38 75-56l10-7c6-4 12-9 17-13 11-10 12-26 3-37-10-12-27-14-39-5-2 2-5 4-8 6-6 4-13 9-19 14l-121 90c-24 17-48 35-72 53-2 2-3 2-5 0-19-13-40-28-63-43-4-3-9-7-14-8-9-3-18-2-27 5l-31 21c-3 3-7 5-10 8-8 5-17 11-25 17-3 2-4 2-6 0-11-9-23-18-35-26-3-3-7-5-10-8l-174-129c-9-7-19-8-29-3-11 5-16 13-16 24 0 10 4 17 12 23l189 141c3 3 7 6 11 9 2 1 4 3 7 4l-287 199c-1-1-1-2-1-2v-422c0-20 16-36 37-36 12 0 25 0 37 0 5 0 9 0 13 0h386c37 0 75 0 112 0h225c21 0 38 16 38 37v420c0 1 0 2 0 3z m-562 176c-8 0-16-4-21-10 5 6 13 10 21 10z m44 0c0 0 0 0 0 0 0 0 0 0 0 0l0 0z m260-16c5-11 3-21-4-29-6-6-13-10-22-10h0c9 0 17 4 22 10 7 8 9 18 4 29-5 10-14 16-26 16h-1c13 0 22-5 27-16z m-274 16l0 0 0 0 0 0z m-28-55c-15 0-27 9-29 23-1 8 1 16 6 22-5-6-8-14-6-22 2-14 13-23 29-23z m-2-203h190c17 0 29 11 29 27v0c0-16-12-27-29-27l-190 0c-15 0-28 12-28 28l0 0c0-16 13-28 28-28z m-3 54c-13-1-25-13-25-26 1 13 12 25 25 26z m208 102c8 0 16 0 23 0 16 0 32 0 48 0 13 0 22-5 27-15 5-8 5-18 0-26-4-6-9-10-16-12 7 2 13 6 16 12 5 8 5 18 1 26-6 10-15 15-28 15-16 0-32 0-47 0-8 0-16 0-24 0h-204c-5 0-9-1-13-3 4 2 8 3 13 3h204z m-204-55h252c2 0 3 0 5 0s4 0 6 0c5 0 11 0 17 1 2 0 4 0 6 1-2 0-4-1-6-1-5 0-11 0-17 0-2 0-4 0-5 0-2 0-4 0-6 0h-252c-7 0-15 3-20 8-6 5-8 12-8 19 0 10 6 19 15 24-9-5-15-14-16-24 0-7 3-14 8-19 6-6 13-9 21-9z m-28 28c0-7 2-14 8-19 5-5 13-8 20-8h252c2 0 4 0 6 0 1 0 3 0 5 0 6 0 12 0 17 0 2 0 4 0 6 1 7 2 12 6 16 12 5 8 5 18 0 26-5 10-14 15-27 15-16 0-32 0-48 0-7 0-15 0-23 0h-204c-5 0-9-1-13-3-9-5-15-14-15-24z m57 129c5 0 10 0 14 0-4 0-9 0-14 0z m-57-32c2-14 14-23 29-23h276c9 0 16 4 22 10 7 8 9 18 4 29-5 11-14 16-27 16h-232-1c0 0 0 0 0 0-4 0-9 0-14 0l0 0h0c-1 0-3 0-5 0h-25c-8 0-16-4-21-10-5-6-7-14-6-22z m-1-198l0 0c0 0 0 0 0 0 0 0 0 0 0 0z m218 26c8 0 15-3 21-8 5-5 8-11 8-19l0 0c0 8-3 14-8 19-6 5-13 8-21 8l-190 0c-1 0-2 0-3 0 1 0 2 0 3 0h190z m-190-54h190c17 0 29 11 29 27 0 8-3 14-8 19-6 5-13 8-21 8h-190c-1 0-2 0-3 0-13-1-24-13-25-26 0 0 0 0 0 0 0-16 13-28 28-28z" horiz-adv-x="1000" />

<glyph glyph-name="facebookbold" unicode="&#xe839;" d="M994 108c0 19 0 38 0 57 0 16 0 31 0 47 0 16 0 32 0 47v428c0 6 0 12 0 18 0 24 0 48-1 72-1 37-33 67-70 67h-847c-17 0-32-6-46-18-16-14-24-34-24-58 0-20 0-40 0-60 0-8 0-16 0-24 0-20 0-40 0-60 0-20 0-39 0-59 0-16 0-32 0-48s0-32 0-48v-111h0v-361c0-25 0-51 1-77 1-32 33-63 66-63 14 0 28 0 42 0 7 0 14 0 21 0h2c45 0 92-1 139-1 44 0 89 1 132 1h122c21 0 44 0 65 0s44-1 65-1c20 0 39 1 58 1s38 0 57 0c19 0 38 0 57 0s37-1 56-1c3 0 7 0 10 0 4 0 7 0 11 0 8 0 16 0 24 1 35 6 59 36 60 73 0 32 0 65 0 96 0 9 0 17 0 25 0 19 0 38 0 57z m-58-171c0-15-5-20-13-22-1-1-3-1-7-1-79 0-160 0-241 0 0 0 0 0-1 0 0 0 0 0 0 1 0 53 0 106 0 158 0 14 0 27 0 40 0 39 0 80 0 120 0 0 0 1 0 1 0 0 1 0 1 0 25 0 51 0 75 0 9 0 17 0 25 0 17 0 20 3 22 19l12 89c1 10 3 21 4 32 0 3 1 7-2 10-3 4-8 4-10 4-37-1-75-1-111-1-2 0-4 0-6 0-3 0-6 0-9 0 0 13 0 27 0 40 0 20 1 41 1 62 1 12 5 23 13 30 10 9 22 13 38 14 26 1 52 1 77 0 4 0 15 0 15 15 0 36 0 73 0 109v0c0 4 0 13-12 15-53 6-94 7-132 4-45-5-82-22-110-52-19-21-33-46-41-78-7-28-7-56-7-82 0-6 0-13 0-19 0-19 0-38 0-58-8 0-16 0-24 0-8 0-17 0-25 0-19 0-38 0-57 1-3 0-8-1-11-4-4-3-4-8-4-12 0-41 0-83 0-125 0-8 4-13 13-13h58c6 0 12 0 17 0 11 0 22 0 33 0 0-14 1-28 1-42v-96c0-38-1-77-1-115 0-7 0-15 0-22 0-15 0-30 0-44 0-1 0-1 0-1 0 0 0 0 0 0-146 0-293 0-436 0-11 0-18 7-18 17 0 25 0 49 0 73 0 12 0 24 0 36 0 25 0 50 0 76s0 51 0 76c0 22 0 44 0 65 0 22 0 44 0 66 0 25 0 51 0 76s0 51 0 76c0 17 0 33 0 50s0 33 0 49c0 21 0 41 0 62 0 20 0 40 0 61 0 8 0 16 0 24 1 16 1 33 0 49 0 4 2 8 6 11 3 4 7 6 11 6 41-1 83-1 124-1 47 1 94 1 141 1 31 0 62 0 92 0h56v-1h225c16 0 33 0 49 0 34 0 67 0 100 0 17 0 34 0 51 0 11 0 18-6 18-18v-831z" horiz-adv-x="1000" />

<glyph glyph-name="faxbold" unicode="&#xe83a;" d="M918 436c0 23-9 33-33 38h-1c-2 0-4 1-7 1 0 1 0 1-1 1 0 0 0 0 0 1 0 4 0 8 0 12v0c0 52 0 104 0 155 0 17-5 31-14 44-30 41-61 85-90 129-13 19-29 27-52 27-102 0-205 0-305 0-50 0-101 0-152 0-1 0-2 0-3 0-4 0-9 0-13 0-21-3-33-13-35-34-1-6-1-12-1-18v-3c0-35 0-69 0-103 0-35 0-69 0-104 0-1 0-3 0-4 0-3 0-6 0-10 0-3 0-5-1-6-1 0-3-1-6-1-7 1-14 0-19 0-47-3-86-34-97-79-3-12-5-25-5-37 0-199 1-350 2-491 0-48 37-90 82-95 17-2 34-3 50-3 20 0 40 1 60 2 20 1 40 12 55 30 7 8 14 11 26 11 54 0 109 0 162 0 51 0 103 0 154 0 66 0 134 0 200 0 31 0 44 11 44 39 0 165 0 332 0 498z m-190 328c10-15 19-29 29-43 12-16 23-32 35-49h-64v92z m-431-322v-461c0-1 0-3 0-4 0-6 0-12-1-17-2-24-17-38-40-38-19-1-41-1-63 0-30 1-43 14-43 44 0 40 0 81 0 121s0 80 0 121v238c0 35 12 47 47 48 20 1 40 1 60 0 22 0 37-15 39-37 1-4 1-7 1-11 0-2 0-3 0-4z m-18 117v218c1 0 2 0 3 0 3 0 5 0 7 0h358c5 0 10 0 12 0 1-2 1-8 1-12 0-13 0-26 0-39 0-26 0-53 0-79 0-31 12-43 43-43 32 0 65 0 97 0 8 0 8-2 8-6 0-20 0-40 0-59 0-19 0-39 0-58 0-1 0-2-1-4h-446c-13 43-40 71-82 82z m573-583c0-3 0-9-1-11-1-1-8-1-11-1h-464c-4 0-11 0-12 1-1 2-1 8-1 13v418c0 4 0 10 0 11 2 1 8 1 12 1h465c4 0 10 0 12-1 0-1 0-7 0-12v-419z m-266 124c-6-6-9-14-9-22 0 0 0 0 0 0 0 8 3 16 9 22 6 6 14 10 22 10 17 0 32-13 32-30 0 0 0-1 0-1 0 18-15 31-32 31-8 0-16-4-22-10z m54-21c0-5-1-9-3-14 2 5 3 9 3 14z m-63-2c0-3 0-6 1-9-1 3-1 6-1 9z m178 23c5-5 9-13 8-22 0-8-3-16-9-22s-14-9-22-9c0 0 0 0 0 0 8 0 16 3 22 9 6 6 9 14 9 22 0 9-3 17-8 22-6 6-14 9-23 10 0 0 0 0 0 0 9-1 17-4 23-10z m8 202c0 0 0 0 0 0 0 17-14 31-32 31-8 0-16-4-22-10-6-6-9-14-9-22 0 0 0 0 0 0 0 9 3 17 9 23 6 5 14 9 22 9 18 0 32-13 32-31z m-9-132c0 1 1 1 2 2-1-1-2-1-2-2-2-1-3-3-5-4 2 1 3 3 5 4z m9 16c-1-3-2-5-3-7 1 2 2 4 3 7z m-32-25c-17 0-30 13-31 29 1-16 14-29 31-29z m32 32l0 0c0 6-2 12-5 18 3-6 5-12 5-18z m-63 3c0-1 0-2 0-3v0c0 1 0 2 0 3z m58 15c-3 4-7 7-11 10 4-3 8-6 11-10z m-57-9c1 2 2 4 3 6-1-2-2-4-3-6z m-61 98c0 4 0 8-2 12 2-4 2-8 2-12l0 0z m-53 24c-7-5-10-14-10-23 0 9 3 18 10 23z m48-6c2-2 2-4 3-6-1 2-1 4-3 6z m5-18c-1-18-14-30-32-30 18 0 31 12 32 30z m-8 23c-5 5-12 9-19 10 7-1 14-5 19-10 1-2 2-3 3-5-1 2-2 3-3 5z m-45-154c6-5 13-8 21-8-8 0-15 3-21 8-7 6-10 15-10 24 0 17 14 32 31 32 0 0 0 0 0 0-17 0-31-15-31-32 0-9 3-18 10-24z m-134 24c0 1 0 1 0 1 1 17 16 31 33 31 18-1 31-15 30-33 0 0 0 0 0 0 1 18-13 32-30 33-17 0-32-14-33-32z m61-13c1 3 2 7 2 11 0-4-1-8-2-11z m-3-121c-6-8-15-12-26-12-1 0-1 0-2 0-17 0-30 14-30 32 1 9 4 17 10 23 0 0 0 0 0 0-6-6-9-14-9-22-1-18 12-33 30-33 0 0 1 0 1 0 11 0 20 5 26 12z m220 102c7 0 13 2 18 5-5-3-11-5-18-5 0 0 0 0 0 0 0 0 0 0 0 0 0 0 0 0 0 0 0 0 0 0 0 0z m27 14c1 1 1 3 2 4 0-1-1-3-2-4z m-26 50c-8 0-17-4-23-10 6 7 15 10 23 10z m-32-32c0-1 0-2 0-3 0 1 0 2 0 3l0 0z m63 0l0 0c0-2 0-5 0-7 0 2 0 5 0 7z m-5 18c3-5 5-12 5-18 0-2 0-5 0-7-1-3-2-5-3-7-1-1-1-3-2-4-1-1-1-2-2-3s-2-1-2-2c-2-1-3-3-5-4-5-3-11-5-18-5 0 0 0 0 0 0 0 0 0 0 0 0-17 0-30 13-31 29 0 1 0 2 0 3 0 1 0 2 0 3 0 2 1 4 1 6s2 4 3 6c1 3 3 5 5 7 6 6 15 10 23 10 5 0 10-2 15-4s8-6 11-10z m-181-133c0 0 0-1 0-1 0 0 0 0 0 1 0 0 0 0 0 0z m63 1c0 0 0 0 0 0 0 0 0 0 0 0 0 0 0 0 0 0z m-9-23c3 3 5 6 6 9-1-3-3-6-6-9-5-6-13-9-21-10 0 0-1 0-1 0-9 0-17 3-22 9-4 3-7 8-9 13 2-5 5-9 9-13 5-5 13-8 22-8 0 0 1 0 1 0 8 0 16 3 21 9z m9 23c0-4-1-9-3-14-1-3-3-6-6-9-5-6-13-9-21-9 0 0-1 0-1 0-9 0-17 3-22 8-4 4-7 8-9 13 0 3-1 6-1 9 0 0 0 0 0 1 0 8 3 16 9 22 6 6 14 10 22 10 17 0 32-13 32-31 0 0 0 0 0 0z m92-32c0 0 0 0 0 0-19 0-32 13-31 32 0 9 3 17 8 23s14 8 23 8c0 0 0 0 0 0-9 0-17-3-22-8-6-6-9-14-9-23-1-19 12-32 31-32z m22 9c-6-6-14-9-22-9 0 0 0 0 0 0-19 0-32 13-31 32 0 9 3 17 9 23 5 5 13 8 22 8 9-1 17-4 22-10 6-5 9-13 9-22 0-8-3-16-9-22z m-238 135c0 0 0 1 0 1 0 0 0 0 0 0 0 0 0-1 0-1z m-63 2c0 0 0 0 0 0 0-8 4-17 10-23 6-6 13-9 22-9 0 0 0 0 0 0 14 0 24 7 29 19-5-12-16-19-29-19 0 0 0 0 0 0-8 0-16 3-22 9-6 6-10 14-10 23z m10-23c-6 6-10 15-10 23 1 18 16 32 33 32 17-1 31-15 30-33 0 0 0 0 0-1 0-4-1-8-2-11-5-11-15-19-29-19 0 0 0 0 0 0-9 0-16 3-22 9z m177 23c0 18-15 32-32 32 0 0 0 0 0 0 17 0 32-14 32-32z m0 0c1-17-13-32-30-32 17 0 31 15 30 32z m0 0c1-17-13-32-30-32-1 0-1 0-2 0-8 0-15 3-21 8-7 6-10 15-10 24 0 17 14 32 31 32 17 0 32-14 32-32z m-123-117c-1-6-3-12-6-17 3 5 5 11 5 17 2 18-11 33-29 34-9 0-17-2-24-8 0 0 1 0 1 0 6 6 14 9 24 8 17-1 30-16 29-34z m-1 0c0-6-2-12-5-17-6-8-15-12-26-12 0 0-1 0-1 0-18 0-31 15-30 33 0 9 3 16 9 22 7 6 15 8 24 8 18-1 31-16 29-34z m239 204c6 5 9 14 8 22 0 0 0 0 0 0 1-9-2-17-8-23s-14-9-24-9c0 0 0 0-1 0-7 0-15 3-20 8-7 6-10 14-10 23 0 0 0 0 0 0 0-9 3-17 10-23 5-5 13-8 20-8 1 0 1 0 1 0 10 0 18 3 24 10z m8 22c1-9-2-17-8-22-6-7-14-10-24-10 0 0 0 0-1 0-7 0-15 3-20 8-7 6-10 14-10 23 0 9 3 17 9 22 6 6 14 10 22 10 18 0 32-14 32-31z m-247-3c-1-17-13-29-31-29 17 0 30 12 31 29z m-8 24c6-6 9-15 8-24 1 9-2 18-8 24z m0 0c-5 6-13 10-22 10 9 0 17-4 22-10z m-54-20c1 18 15 31 32 30 9 0 17-4 22-10 6-6 9-15 8-24-1-17-14-29-31-29-1 0-1 0-2 0-18 1-30 15-29 33z m186-3c0 0 0 0 0 0l0 0c0 0 0 0 0 0z m-63 1c-1-17 12-31 31-31-19 0-32 14-31 31z m0 0c0 9 3 18 10 23 6 6 14 9 23 9 1 0 2 0 3 0 7-1 13-5 19-10 1-2 2-3 3-5 2-2 2-4 3-6 2-4 2-8 2-12 0 0 0 0 0 0-1-18-14-30-32-30 0 0 0 0 0 0-19 0-32 14-31 31z" horiz-adv-x="1000" />

<glyph glyph-name="hamburgerbold" unicode="&#xe83b;" d="M964 675h-928c-17 0-30-14-30-30v-31c0-17 13-30 30-30h928c17 0 30 13 30 30v31c0 16-13 30-30 30z m0-556h-928c-17 0-30-13-30-30v-31c0-16 13-30 30-30h928c17 0 30 14 30 30v31c0 17-13 30-30 30z m0 278h-928c-17 0-30-14-30-30v-31c0-16 13-30 30-30h928c17 0 30 13 30 30v31c0 16-13 30-30 30z" horiz-adv-x="1000" />

<glyph glyph-name="informationbold" unicode="&#xe83c;" d="M500 845c-273 0-494-222-494-494s221-494 494-494 494 221 494 494-222 494-494 494z m0-897c0 0 0 0 0 0l0 0 0 0c-4 0-7 0-11 0-103 3-196 44-266 110-1 1-1 1-1 1-2 2-3 3-5 4 0 1-1 2-2 3-1 1-2 2-3 3-1 1-3 2-4 4 0 0-1 1-1 1-66 70-108 163-110 266 0 4 0 7 0 11 0 222 180 402 402 402h0l0 0c0 0 0 0 1 0 222 0 402-180 402-403 0-222-180-402-402-402z m-403 403c0 222 180 402 403 402h0c-222 0-403-180-403-402z m805-1c0-222-180-402-402-402 221 0 402 180 402 402z m-690-281c-1 1-2 2-4 4 2-2 3-3 4-4z m6-6c-1 1-2 2-3 3 1-1 2-2 3-3z m-121 277c3-103 44-196 110-266-66 70-107 163-110 266z m403 413c222 0 402-180 402-403 0 223-180 403-402 403z m-277-695c0 1-1 1-1 1 0 0 0 0 1-1z m277-110l0 0c-4 0-7 0-11 0 4 0 7 0 11 0z m-293 126c1 0 1-1 1-1 0 0-1 1-1 1z m11-11c1-1 2-2 4-4-2 2-3 3-4 4z m5-5c70-66 163-107 266-110-103 3-196 44-266 110z m-8 8c-1 1-2 2-3 3 1-1 2-2 3-3z m285-118c0 0 0 0 0 0 0 0 0 0 0 0l0 0z m0 805l0 0c0 0 0 0 0 0 0 0 0 0 0 0z m-403-402c0-4 0-7 0-11 0 4 0 7 0 11z m349 206c0 18 6 32 18 41-12-10-18-23-18-41z m158-399l4-2v-37h-1 0v36l-3 2c-7 4-14 7-21 10-6 2-13 4-19 5v294h-29 0c-8-1-17-2-28-4-9-1-20-3-32-5-10-2-21-5-31-7-11-3-19-6-25-8l-5-2v0l5 2c6 2 14 5 25 8 10 3 21 5 31 7 13 2 23 4 32 5 11 2 20 3 28 4h1 29v-293c6-2 12-4 18-6 7-2 14-5 21-9z m-190-39h193v0l-193 0 0 36 4 2c6 4 13 7 21 10 6 2 12 3 18 5v227l-43 5v36l0 0v-36l43-5v-227c-6-2-12-3-18-5-8-3-15-6-21-10l-4-2v-36z m193 36v-36h-193v36l4 2c6 4 13 7 21 10 6 2 12 3 18 5v227l-43 5v36l5 2c6 2 14 5 25 8 10 2 21 5 31 7 12 2 23 4 32 5 11 2 20 3 28 4h0 29v-294c6-1 13-3 19-5 7-3 14-6 21-10l3-2z m-161 402c0 18 6 31 18 41 12 10 27 15 45 15s33-5 44-15c12-10 18-23 18-41 0-16-6-30-18-40-11-10-26-15-44-15s-33 5-45 15c-12 10-18 24-18 40z" horiz-adv-x="1000" />

<glyph glyph-name="instagrambold" unicode="&#xe83d;" d="M990 555c-5 92-29 156-80 207-50 50-114 75-206 79-57 4-115 4-170 4h-9-60c-55 0-113 0-169-4-93-4-157-29-208-79s-75-115-79-207c-3-57-3-114-3-170v-60c-1-60-1-120 3-179 4-92 29-156 79-206 51-51 115-76 207-80 53-3 107-3 160-3 3 0 6 0 9 0h9 62c55 0 112 0 168 3 93 4 157 29 207 80 51 50 76 114 80 207 3 56 3 114 3 169v60c1 63 1 120-3 179z m-84-239c1-80 2-201-20-258-9-22-20-39-37-57-18-17-35-28-57-37-57-22-178-21-258-20-26 0-44 0-69 0-16-1-34-1-52-1-66 0-159 2-206 21-23 9-40 20-57 37-17 18-28 35-37 57-23 57-21 178-21 258 0 7 1 13 1 19 0 6 0 11 0 15 0 11 0 22-1 35 0 80-2 201 21 258 9 22 20 39 37 57 17 17 35 28 57 37 45 18 132 21 206 21 18 0 36 0 52-1 25 0 43 0 69 0 80 1 201 2 258-20 22-9 39-20 57-37 17-18 28-35 37-57 22-57 21-178 20-258 0-7 0-13 0-19 0-6 0-11 0-15 0-11 0-22 0-35z m-84 299c0-32-26-59-58-59-33 0-59 27-59 59 0 32 26 58 59 58 32 0 58-26 58-58z m-575-265c0 140 113 254 253 254-140 0-253-114-253-254z m253 254c-140 0-253-114-253-254s113-253 252-253c140 0 253 114 253 253s-113 254-252 254z m-1-420c-92 1-166 75-165 167 0 91 74 166 166 165 91 0 165-74 165-166 0-92-74-166-166-166z" horiz-adv-x="1000" />

<glyph glyph-name="journalbold" unicode="&#xe83e;" d="M442 267c-7-15-13-31-20-46-5-11-9-21-14-32 10-13 19-24 28-36 3-4 7-9 11-14 17 2 35 5 53 7 11 1 22 3 33 4 1 27-10 56-31 80-18 20-40 34-60 37z m270-157c-10-9-20-17-29-26-5-4-7-13-7-18-1-19-1-38-1-57 0-6 0-13 0-19v-28h-585v535h11c18 0 38 0 58 0 43 0 87 0 124 0 28 0 47 16 51 44 1 5 1 10 1 16v155c0 4 0 17 1 25h339v-129h14v5l61 45 7 0 0 8c0 33 1 78 0 108-1 24-20 43-46 45-5 1-10 1-15 1-26 0-53 0-80 0-104 0-213 0-319 0-23 0-40-7-56-23-65-65-135-134-207-203-19-19-28-39-28-67 1-155 1-312 1-464 0-39 0-78 0-116l0-13c0-34 21-54 54-54 1 0 1 0 2 0 33 1 67 1 101 0 15 0 30 0 44 0 55 0 110 0 165 0 108 0 219 0 329 0 37 0 55 19 55 55v219l-12-12c-8-10-20-20-33-32z m282 339c-1 3-1 7-1 11-1 3-1 7-2 10-8 73-63 134-137 152-22 6-40 2-58-11-76-58-155-116-231-172-40-29-80-59-120-89-6-4-11-8-16-11-22-16-23-17-33-41-2-5-5-12-8-20-14-32-28-65-42-96-7-16-14-32-21-48-7-17-5-32 6-45 8-10 19-15 33-15 3 0 6 1 9 1 52 7 111 15 169 21 23 3 42 10 58 23 142 106 258 191 364 269 21 15 30 33 30 60l0 0 0 1z m-461-299c-11-1-22-3-34-4-17-2-35-5-53-7-3 5-7 10-11 14-8 12-17 23-27 36 5 11 9 21 14 32 6 15 13 31 20 46 19-3 42-17 60-37 20-24 32-53 31-80z" horiz-adv-x="1000" />

<glyph glyph-name="mobilebold" unicode="&#xe83f;" d="M788 741c-2 34-15 62-41 82-19 14-41 21-68 21h-353c-8 0-15-1-23-1-42-5-77-35-87-74-2-10-3-21-3-34 0-128 0-258 0-384 0-72 0-146-1-219 0-17 0-34 0-51 0-42 0-85 0-127 1-28 12-53 35-72 19-17 43-26 71-26h260c11 0 21 0 32 0 11 0 21 0 32 0 15 0 29 0 43 0 34 1 61 14 81 41 15 18 22 40 22 68v776l0 0z m-55-772c0-2 0-4 0-5 0-5 0-9-1-14-4-24-22-40-47-40-31 0-63 0-93 0-30 0-61 0-92 0-15 0-30 0-45 0-45 0-90 0-135 0-17 0-30 5-40 15-8 9-13 19-13 33-1 3-1 7-1 10 0 2 0 5 0 8 0 0 0 0 0 0 1 0 1 0 1 0 2 0 3 0 5 0 0 0 1 0 2 0h452c3 0 5 0 7 0 0-2 0-5 0-7z m0 387h0v-326h-461-4c-1 0-1 0-2 0 0 0 0 1 0 2v630c0 3 0 6 1 7 1 0 4 0 7 0h452c2 0 5 0 7 0 0-1 0-4 0-7v-306z m1 368c0-1 0-1 0-1-1 0-1 0-1 0-3 0-7 0-10 0-3 0-6 0-9 0-3 0-6 0-10 0h-205c-74 0-152 0-228 1-1 0-3 0-5 0 0 1 0 3 0 4v4c0 5 1 11 1 17 4 24 23 41 48 41 33 0 66 0 98 0 40 0 81 0 121 0 48 0 97 0 146 0 17 0 30-5 41-16 7-8 12-18 12-29 1-4 1-8 1-12 0-3 0-6 0-9z m-322-781c0 16 11 27 28 27 10 0 20 0 30 0-10 0-20 0-31 0-16 0-27-11-28-27 0-15 12-27 28-27 17 0 34 0 51 0 1 0 1 0 1 0-17 0-35 0-52 0-16 0-27 11-27 27z m156-26c0 0 0 0-1 0 1 0 1 0 1 0z m-8-1c-23 0-46 0-69 0 23 0 46 0 69 0z m-60 54c-10 0-20 0-30 0 10 0 20 0 30 0 0 0 0 0 0 0z m-9-54c0 0 0 0 0 0 0 0 0 0 0 0 0 0 0 0 0 0z m69 54c-13 0-27 0-40 0 13 0 27 0 40 0 9 0 16-3 21-9 5-5 8-12 7-20-1-12-8-20-19-23l-1-1c0 0 0 0 0 0 0 0 0 0 1 0l0 1c12 3 18 11 19 23 1 8-1 15-6 20-5 6-13 9-22 9z m1-54h0c2 0 4 1 6 1 0 0 0 0 1 0-1 0-1 0-1 0-2 0-4-1-6-1z m-1 0c0 0 1 0 1 0l-1 0c0 0 0 0 0 0z m9 2c11 3 18 11 19 23 1 8-2 15-7 20-5 6-12 9-21 9-13 0-27 0-40 0 0 0 0 0 0 0-6 0-13 0-20 0 0 0 0 0 0 0-10 0-20 0-30 0-10 0-20 0-30 0-17 0-28-11-28-27 0-16 11-27 27-27 17 0 35 0 52 0 0 0 0 0 0 0 23 0 47 0 69 0 0 0 0 0 1 0h0c2 0 4 1 6 1 0 0 1 0 1 0 0 0 0 0 0 0 0 0 0 0 1 0l0 1z" horiz-adv-x="1000" />

<glyph glyph-name="partnerbold" unicode="&#xe840;" d="M978 547c-23 29-47 61-78 99-25 32-68 40-102 18-25-15-47-29-68-42-19-13-39-13-60-3-8 4-16 7-23 11-12 6-25 12-37 18-34 17-67 17-98 2-2-1-5-3-7-5-3-2-6-4-8-4-3 0-7 3-11 5-2 1-4 2-6 3-33 17-68 19-102 6-14-5-29-11-44-18-26-12-51-12-76-1l-31 13c-19 9-35 13-51 12-25-2-48-14-68-36-12-14-26-29-39-44-4-6-10-11-14-17-12-12-23-25-34-39-24-30-20-71 9-96 14-13 28-25 42-37 6-5 11-10 17-14 5-5 9-9 14-13 1 0 1-1 2-1-11-11-21-22-31-33-24-26-27-64-6-92 9-12 20-22 36-30-8-24-2-50 15-71 19-22 46-34 69-30 8 1 9 0 14-7 19-32 46-46 80-41 5 0 9 2 14 3 0 0 1 0 2 1 8-14 19-25 32-34 17-11 35-14 55-10 21 5 35 19 48 33 4 5 9 9 14 14 0 1 1 1 2 2 4-5 9-9 14-13 8-8 17-17 26-25 13-12 30-18 47-18 19 0 37 7 51 21 6 7 12 13 18 21 0 0 1 1 1 1 1-1 2-1 3-2 24-22 49-27 77-17 25 9 42 27 50 53 0 1 0 1 1 1 5-1 10 0 16 0 33 4 72 44 69 84 18 6 32 17 45 36 20 30 17 67-9 93-2 2-3 4-5 6 0 0-1 1-1 1 20 22 40 44 60 66 20 23 41 45 61 68 25 28 27 73 5 102z m-845-287c-10 3-17 9-21 20-1 4 0 8 4 11 24 26 53 56 83 86 2 2 5 3 8 4 1 1 2 1 3 1 1 0 2 0 3-1 3-1 5-2 7-4 3-2 6-6 8-9 6-7 6-11 0-17-21-22-42-45-63-66-7-8-14-15-21-22-3-3-6-4-11-3z m61-89c-9-8-16-8-25 0-10 9-11 11-12 17 1 1 1 2 2 3 1 2 2 5 4 7l0 0c32 34 67 71 108 113 7 8 16 8 23 1 2-2 4-4 6-6 7-8 7-15 1-22l-1-1c-35-36-71-74-106-112z m95-42l-1-1c0 0 0 0 0 0 0-1-1-1-2-2-5-7-10-10-15-10-6 1-15 7-22 18-3 5 0 12 4 16 9 9 17 18 25 26 8 9 17 18 25 27 2 2 5 5 7 7 5 5 9 10 14 15 3 2 6 3 9 5 1 0 1 0 1 0h2c9 0 22-12 23-21 0-4-1-8-5-12l-65-68z m137 1c-3-4-7-8-11-12-10-11-21-23-33-34-9-10-16-10-26-1l0 1c-5 5-10 9-11 15 0 1 1 2 1 3 2 3 3 6 5 8 10 11 22 23 33 35 4 4 8 8 12 12 6 7 12 7 19 2 5-4 10-7 13-12 4-6 3-12-2-17z m393 111c-1-1-2-2-3-3l-1 0c-11-11-16-12-27-1l-125 116 0 1c-1 0-2 1-2 2-1 0-1 1-2 1l-4 4-5-4c-1-1-2-2-4-3-2-3-5-6-7-9-5-5-10-10-15-15-3-3-4-6-4-9 0-3 1-6 4-9 9-9 19-19 29-28 18-17 35-33 53-50 17-16 35-33 53-50 4-4 6-8 7-12 0-3-3-8-7-12l-3-4c-10-9-17-9-26 0-35 33-71 67-106 99-4 3-8 7-12 11-2 2-5 5-8 7-6 5-12 5-17-1-6-6-12-12-18-19-2-3-5-6-8-9l-4-5 5-4c1-2 2-3 3-4 3-3 6-6 9-8 34-31 69-64 103-96 5-5 7-9 7-13 0-4-2-8-6-13l-1 0c-1-2-2-3-4-4-9-9-14-9-23 0-19 17-37 34-56 51-19 18-37 35-56 52-1 1-2 2-4 3l-6 6-5-5c-3-4-6-7-9-11-7-7-13-14-20-21l-5-5 5-5c8-8 16-15 24-23 12-11 24-22 36-33 7-7 8-14 1-22-1 0-1-1-2-2-2-2-3-3-4-5l-1 0c-6-6-15-7-21-1-15 13-29 27-43 40 10 27 1 60-23 81-12 10-26 21-46 23 0 0 0 0 0 0-5 15-12 30-23 43-8 9-18 16-30 21 2 21-4 44-19 61-14 17-34 28-55 30v0l0 1c-9 36-45 65-81 64-18 0-34-7-48-20l0-1c-5-4-10-8-14-13-1 0-1 0-1 0s0 0 0 0c-13 12-26 23-39 34-4 3-7 7-11 10-8 7-17 14-23 19-4 3-6 8-7 12 0 4 2 9 5 13l5 5c16 18 33 37 50 56 10 11 20 23 30 34 14 15 28 18 47 9 7-3 14-6 21-9 7-3 15-6 22-9 34-14 70-14 106 1 14 7 30 13 46 20 16 6 32 7 48 1-3-2-6-4-9-6-8-6-16-12-24-17-32-23-39-66-17-99 16-25 36-38 61-41 17-2 35 2 51 11 3 2 6 4 9 6 6 4 12 8 19 11 15 8 30 7 44-3 54-38 102-73 147-113 25-23 50-46 74-69 6-6 13-12 19-18 8-7 8-14 1-23z m107 237c-38-43-78-86-116-128-6 6-13 11-19 17-49 46-105 91-176 140-14 10-32 21-53 22-24 2-46-3-66-16-3-2-6-4-9-6-4-2-7-4-10-6-7-4-14-6-20-4-7 2-13 9-18 20-3 5-1 11 4 15 27 19 55 39 85 60 19 13 38 15 59 4 26-14 48-24 69-33 34-15 68-12 101 8 17 10 35 21 52 32 5 3 10 6 15 10 15 9 25 7 35-6 6-7 11-14 16-21 18-22 35-45 53-68 12-16 12-25-2-40z" horiz-adv-x="1000" />

<glyph glyph-name="passwordbold" unicode="&#xe841;" d="M923 99c-60-98-153-170-263-203-42-12-85-18-128-18-20 0-41 1-61 4-61 8-119 29-172 61-55 33-101 77-138 129-39 54-66 116-80 182-9 47-12 94-7 141-8-7-14-14-21-20-7-6-15-10-23-10-7 1-13 4-17 9-11 12-9 28 5 41 22 22 45 43 69 66 7 7 14 10 21 9 8 0 14-4 21-11 23-26 47-52 68-76 11-12 11-29 0-39-5-5-11-7-18-7-7 0-14 3-20 9-10 11-20 22-30 33-1 1-1 2-2 3 0-5-1-10-1-15-1-19-2-38-1-57 5-95 38-180 98-251 68-82 156-130 261-144 88-11 176 8 254 54s137 115 172 200c48 119 41 253-21 366-60 111-164 186-283 206-136 24-257-14-358-112-5-4-17-16-33-8-8 4-14 12-15 21-2 9 2 17 9 24 6 4 11 9 16 14 22 18 44 38 68 53 103 64 215 84 332 59 92-20 175-66 240-134 65-69 107-154 122-248 19-115-3-233-64-331z m-228 355c0-5 0-9 0-14 0-6 0-13 0-19 8-2 15-5 22-11 10-9 15-19 15-32 0-19 0-39 0-59 0-9 0-19 0-29 0-15 0-30 0-45 0-30 0-60 0-90 0-14-3-24-11-33-9-11-21-16-35-16-24 0-48 0-72 0-12 0-24 0-35 0-17-1-34-1-51-1h-156c-13 0-23 4-32 12-10 9-15 20-15 32 0 22 0 44 0 65 0 11 0 22 0 33 0 12 0 24 0 36 0 30 0 61 0 91-1 24 15 43 37 47v49c0 25 6 49 17 71 11 24 29 45 51 61 24 16 50 26 78 29 31 4 62-1 91-14 18-8 33-18 47-32 26-25 42-56 47-91 2-13 2-27 2-40z m-12-80h0-26c-6 0-11 1-11 11v80c0 7-1 13-1 20-3 24-14 45-31 63-11 11-23 20-37 26-24 10-48 13-74 8-26-6-48-19-65-38-9-11-16-22-21-35-4-13-6-26-6-43v-81c0-9-3-12-12-12h-26v-220h2c51 0 103 0 153 0h155v221z m-94 188c-19 12-39 18-61 18 22 0 42-6 61-18 30-19 46-46 49-80 1-10 1-21 1-31 0-3 0-6 0-10v-55c0-9-3-12-12-12-33 0-66 0-99 0h0c33 0 67 0 100 0 8 0 11 3 11 12v55c0 4 0 7 0 10 0 10 1 21 0 31-3 34-20 61-50 80z m-172-176v85c0 49 34 92 82 105 10 2 20 4 29 4-9 0-19-2-30-4-48-13-81-56-81-105v-85c0-9 3-12 11-12h1c-9 0-12 3-12 12z m210-12c-33 0-66 0-99 0h-99c-9 0-12 3-12 12v85c0 49 34 92 82 105 10 2 20 4 29 4 22 0 42-6 61-18 30-19 46-46 49-80 1-10 1-21 1-31 0-3 0-6 0-10v-55c0-9-3-12-12-12z m-36 91c0 6 0 11-1 17-5 32-38 54-71 49-16-2-29-9-39-21-9-11-14-23-14-37-1-12 0-24 0-36 0-5 0-10 0-16h125c0 4 0 7 0 11 0 8 0 17 0 25 0 3 0 5 0 8z" horiz-adv-x="1000" />

<glyph glyph-name="pausebold" unicode="&#xe842;" d="M500 845c-273 0-494-222-494-494s221-494 494-494 494 221 494 494-222 494-494 494z m0-897c-222 0-403 180-403 403 0 222 180 402 403 402s402-180 402-403c0-222-180-402-402-402z m-147 600c0 0 0 0 0 0 0 0 0 0 0 0z m-13-401c0-4 1-7 4-10-3 3-4 6-4 10l0 386c0 0 0 1 0 1 0 0 0-1 0-1v-386z m4-10c0-1 2-2 3-2-2 0-3 1-3 2z m11 411c0 0 0 0 0 0 0 0 0 0 0 0l0 0z m-11-5c-2-2-3-4-3-6 0 2 1 4 3 6 0 0 0 0 0 0 0 0 0 0 0 0z m219 2c-1-1-2-2-3-3 1 2 2 2 3 3z m-3-3c-2-2-4-5-4-9v0c0 4 2 7 4 9z m-207 6c1 0 1 0 2 0-1 0-1 0-2 0z m0 0c-3-1-7-2-9-5 2 3 6 4 9 5z m79-416c4 0 7 1 9 3-2-2-5-3-9-3l0 0z m15 401v-386h0l0 386c0 8-7 15-15 15h0c8 0 15-7 15-15z m-6-398c1 1 2 2 3 4-1-2-1-3-3-4z m6 12l0 0c0-3-1-6-3-9-1-1-2-2-3-3-2-2-5-3-9-3h-77c-3 0-6 1-8 2-2 1-3 2-4 3-2 3-3 6-3 9v387c0 0 0 1 0 1 0 1 0 2 0 3 1 2 2 4 4 6 0 0 0 0 0 0 2 3 5 4 9 5 0 0 0 0 0 0 1 0 1 0 2 0 0 0 0 0 0 0h77c8 0 15-7 15-15v-386z m216 386c0 8-7 15-15 15 9 0 15-7 15-15z m0 0v-386c0-8-7-15-15-15h-77c-8 0-15 7-15 15v386c0 4 2 7 4 9 1 1 2 2 3 3 2 2 5 3 8 3h78c7 0 14-7 14-15z" horiz-adv-x="1000" />

<glyph glyph-name="phonebold" unicode="&#xe843;" d="M813 188l0 0c-19 20-41 38-63 52-17 11-42 24-64 24-39 0-65-18-86-32-14-9-24-16-35-16-13 0-46 10-116 81-46 46-71 79-77 103-6 20 2 31 13 47 13 20 32 48 32 88 0 22-13 47-24 65-14 21-32 44-51 62-41 40-88 76-147 76-45 0-88-21-132-65-37-37-57-86-57-138 0-54 26-124 75-203 46-73 108-151 181-224 73-74 150-137 222-182 79-50 149-76 202-76 51 0 100 20 137 57 56 56 77 114 60 172-13 48-47 85-70 109z m-46-224c-22-22-51-34-81-34-80 0-227 95-367 236-140 141-234 289-233 369 0 30 11 59 33 81 28 28 53 42 76 42 33 0 65-28 92-54 35-34 49-65 50-70 0-15-7-26-18-42-19-28-37-63-26-107 9-40 41-86 100-145 71-72 124-105 172-105 34 0 59 17 78 30l0 0c16 11 27 18 42 18 4-1 35-14 70-50 53-56 82-98 12-169z m218 415c-7-8-17-13-28-14-1 0-2 0-3 0-20 0-37 16-39 37-21 211-203 373-415 368-22-1-40 16-41 38-1 10 3 21 10 29 6 7 16 12 27 13h1c254 7 473-187 497-442 1-10-2-21-9-29z m-515 220c0 10 4 21 11 30 7 8 18 12 28 12 151 0 278-114 296-265 2-11-2-22-9-30-6-8-17-14-28-15-1 0-1 0-2 0-20 0-38 16-41 37-14 108-106 191-213 192-22 0-40 17-42 39z" horiz-adv-x="1000" />

<glyph glyph-name="playbold" unicode="&#xe844;" d="M500 845c-273 0-494-222-494-494s221-494 494-494 494 221 494 494-222 494-494 494z m0-897c-222 0-403 180-403 403 0 222 180 402 403 402s402-180 402-403c0-222-180-402-402-402z m-115 165c2-1 3-1 4-1 0 0 0 0 0 0-1 0-2 0-4 1-5 1-9 4-12 8-2 3-3 6-3 10v430c0 10 8 19 19 19 0 0 0 0 0 0-10 0-19-9-19-19v-430c0-4 1-7 3-10 3-4 7-7 12-8z m349 222l-1-1c-2-2-3-4-6-5l-327-214c-3-2-7-3-11-3 0 0 0 0 0 0 4 0 8 1 11 3l327 214c2 1 4 3 6 5l0 1c7 10 4 23-6 29l-327 213-1 0c-3 2-6 3-10 3 0 0 0 0 0 0 4 0 7-1 11-3l0 0 327-213c10-6 13-19 7-29z m-334-220c-3-2-7-3-11-3-1 0-2 0-4 1-5 1-9 4-12 8-2 3-3 6-3 10v430c0 10 9 19 19 19 4 0 7-1 10-3l1 0 327-213c10-6 13-19 6-29l0-1c-2-2-4-4-6-5l-327-214z" horiz-adv-x="1000" />

<glyph glyph-name="postalbold" unicode="&#xe845;" d="M957 655h-910c-26 0-38-12-38-39v-531c0-27 12-39 39-39h452c149 0 303 0 455 0 23 0 36 13 36 36v539c0 21-13 34-34 34z m-28-533c0-2 0-5 0-7-2 0-4 0-7 0h-423c-137 0-279 0-419 0-1 0-2 0-3 0s-3 0-3 0c-1 0-2 1-3 3 0 0 0 0 0 1 1 1 1 2 1 3v464c0 2 0 4 0 6 1 0 4 0 6 0h844c3 0 5 0 7 0 0-2 0-4 0-7v-463z m-509 258c-1 0-2 0-3 0 1 0 2 0 3 0 14-6 22-20 19-35-3-15-15-26-30-26-11 0-23 0-34 0 0 0-1 0-1 0 12 0 23 0 35 0 15 0 27 11 30 26 3 15-5 29-19 35z m-17 2c0 0 0 0-1 0 0 0 1 0 1 0 0 0 0 0 0 0z m-101-215c-1-16-15-30-32-30 17 0 31 14 32 30z m0 2c0 0 0 0 0 0 0 7-3 15-9 21-6 7-14 10-22 10 8 0 16-3 22-9 6-6 9-14 9-22z m-84 31c-29 0-58 0-86 0 28 0 57 0 86 0z m6-63c15 0 31 0 46 0-15 0-31 0-46 0z m-120 110c-5 12-3 25 6 34-9-9-11-22-6-34z m329 32c0 0 0 0 0 0 0 0 0 0 0 0 0 0 0 0 0 0 0 0 0 0 0 0z m6-27c0 2 1 5 1 7 0-2-1-5-1-7z m93-79v0c0-23-13-32-24-35-2-1-5-1-8-1-5 0-11 2-16 5-7 4-13 11-14 19-1 6-2 11-2 16 0 0 0 0 0 0 0-4 1-10 2-15 1-8 7-15 14-20 5-3 11-5 16-5 3 0 6 1 8 2 11 3 24 11 24 34z m0 361c0-2 0-5 0-7 0 2 0 5 0 7z m191 21c1 1 3 3 5 4-2-1-4-3-5-4z m-4-5c1 2 2 3 4 5-1-2-3-3-4-5z m160 12c2-1 4-2 6-3-2 1-4 2-6 3z m-10 2c2 0 5 0 7-1-2 1-5 1-7 1z m-34-184c10 0 20 0 30 0-10 0-20 0-30 0z m30 184c-20 0-39 1-58 1 19 0 38-1 58-1 1 0 2 0 4 0-2 0-3 0-4 0z m-448-184c-5 2-10 2-14 2 4 0 9 0 14-2z m-191 2c0 0 0 0 0 0 58 0 118 0 176 0-58 0-118 0-176 0z m-119-51c-6 8-7 18-5 27 3 13 14 23 28 24 3 0 6 0 8 0 0 0 0 0 0 0-2 0-5 0-7 0-14-1-26-11-29-24-2-9 0-19 6-27 6-8 16-12 27-12 0 0-1 0-1 0-10 0-20 4-27 12z m24 51c2 0 5 0 7 0 29 0 59 0 88 0 0 0 0 0 0 0 58 0 118 0 176 0 1 0 1 0 1 0 4 0 9 0 14-2 1 0 2 0 3 0 14-6 22-20 19-35-3-15-15-26-30-26-12 0-23 0-35 0-3 0-7 0-11 0h0-93c0 0 0 0 0 0-15 0-30 0-45 0 0 0 0 0 0 0-15 0-30 0-45 0 0 0 0 0 0 0-15 0-30 0-45 0-11 0-21 4-27 12-6 8-8 18-6 27 3 13 15 23 29 24z m759 173c-1 2-3 3-5 4 2-1 4-2 5-4z m0 0c2-2 3-3 4-5-1 2-2 4-4 5z m-169-164c2-2 4-4 7-6-3 2-5 4-7 6z m86 174c-10 0-20 0-30 0 10 0 20 0 30 0z m-73-183c3-1 7-2 11-2-4 0-8 1-11 2z m156 173c-1 2-3 3-5 4s-4 2-6 3c-1 0-2 1-3 1-2 1-5 1-8 1-1 0-2 0-4 0-19 0-38 1-58 1-9 0-19 0-29 0-10 0-19 0-29-1-8 0-15-2-20-5-2-1-4-3-5-4-2-2-3-3-4-5-4-6-5-13-5-21v-114c0-9 2-18 7-23 2-3 4-5 7-7 2-1 4-2 6-3 3-1 7-2 11-2 1 0 2 0 4 0h57c5 0 9 0 14 0h0c5 0 10 0 15 0 10 0 20 0 30 0 21 0 34 13 34 35v114c0 9-2 16-5 21-1 2-2 4-4 5z m-54-54v-58 0h0c-7 0-13 0-20 0-3 0-6 0-9 0h-30-1c0 0 0 0 0 0v58 0c0 0 0 0 0 0 20 0 40 0 60 0 0 0 0 0 0 0v0z m-396-242c0 7-2 14-7 20 5-6 7-13 7-20z m-34 32c-23 0-46 0-69 0 23 0 46 0 69 0 11 0 21-4 27-12-6 8-16 12-27 12z m-270 0c-11 0-19-3-26-10 7 7 15 10 26 10z m297-12c5-6 7-13 7-20 0-2-1-5-1-7-4-15-17-24-33-24-45 0-91 0-135 0h-137c-14 0-24 6-30 19-5 12-3 25 6 34 7 7 15 10 26 10h167c11 0 23 0 34 0h0c23 0 46 0 69 0 11 0 21-4 27-12 0 0 0 0 0 0 0 0 0 0 0 0z m35 245c0-77 0-155 0-231 0 76 0 154 0 231 0 8 1 14 3 19 3 13 18 23 33 21 15-2 26-14 28-29 0 0 0-1 0-1 0 0 0 0 0 0-2 15-13 27-28 29-15 2-30-7-33-21-2-5-3-11-3-18z m64 10c0-2 0-5 0-7 0-1 0-1 0-2v-352c0-23-13-31-24-34-2-1-5-2-8-2-5 0-11 2-16 5-7 5-13 12-14 20-1 5-2 11-2 15 0 39 0 77 0 116 0 0 0 0 0 0 0 76 0 154 0 231 0 7 1 13 3 18 3 14 18 23 33 21 15-2 26-14 28-29 0 0 0 0 0 0z m-430-371c-1 2-1 4-1 7 0-3 0-5 1-7z m23 36c-2 0-4-1-5-1 1 0 3 1 5 1z m177-32c0 1 0 1 0 1 0 0 0 0 0 0 0 0 0 0 0-1z m-31 33c-18 0-35 0-53 0 18 0 35 0 53 0z m-168-21c1 2 1 4 2 5-1-1-1-3-2-5z m10 15c-1-1-2-3-3-4 1 2 2 3 3 4z m180-4c6-6 9-14 9-21 0-1 0-1 0-2-1-16-15-30-32-30-15 0-31 0-46 0s-30 0-45 0c-7 0-15 0-23 0-7 0-15 0-23 0-10 0-20 5-26 13-3 4-4 8-5 13-1 2-1 4-1 7 0 2 1 5 1 7 0 1 1 2 1 3 1 1 1 3 2 4 1 3 3 5 5 7 1 1 2 2 3 3 2 2 5 3 7 4 1 0 3 1 5 1 2 1 5 1 7 1 29 1 57 1 86 1 18 0 35 0 53-1 8 0 16-3 22-10z" horiz-adv-x="1000" />

<glyph glyph-name="printbold" unicode="&#xe846;" d="M959 656c-5 5-13 9-21 9h-102c-30 0-53 6-79 14l-2 0c-33 10-70 21-126 22-1 0-1 0-2 0-43 0-95-30-126-50-25 41-69 107-111 135-71 47-195 59-196 59-9 1-18-2-24-8-6-5-9-13-9-21v-156h-101c-17 0-30-13-30-29v-710c0-16 13-29 29-29 2 0 160-4 235 25 27 11 96 7 107 2 25-11 47-28 65-49 1-1 2-2 2-2 4-4 7-7 12-9 4-1 8-2 12-2 8 0 15 3 21 9 14 14 66 54 115 54 36 0 74-7 111-14l3 0c37-7 68-13 95-13h92c17 0 30 13 30 29l10 713c-1 8-4 15-10 21z m-556-677c-38 7-100 5-132-7-46-19-143-21-181-22v1 650h70v-489c0-14 11-27 25-29 55-9 107-26 155-51 22-13 43-31 63-53 0 0 0 0 0 0 0 0 0 0 0 0z m58 24c-27 34-58 61-92 81l0 0c0 0-1 0-1 0-46 24-95 41-147 52v645c27-4 65-12 99-26 13-5 26-11 36-18 35-24 82-96 105-137v-597z m438-51l0 0 0 0h-63c-22 0-51 5-81 11l-3 1c-36 7-81 15-124 15-42 0-79-16-107-33v647c27 19 77 49 106 49 0 0 0 0 0 0 0 0 0 0 1 0 0 0 0 0 0 0 48-1 79-10 110-19l1-1c28-8 57-17 96-17h72 0l-8-653z m-62 0h62v0h-63c-22 0-51 5-81 11l-3 1c-36 7-81 15-124 15-42 0-79-16-107-33v647c27 19 77 49 106 49 0 0 0 0 0 0-29 0-78-30-105-49v-647c27 17 64 33 106 33 43 0 88-8 125-15l2-1c31-5 60-11 82-11z m-616 184c52-11 101-29 147-52-46 23-95 41-147 52z m135 601c-10 7-23 13-36 18 13-5 26-11 36-18z m47-758c0 0 0 0 0 0-20 22-41 40-63 53-48 24-100 41-155 51-14 2-25 14-25 29 0-14 11-27 25-29 55-9 107-26 155-51 22-13 43-31 63-53z m335 644c-31 9-62 18-110 19 0 0 0 0 0 0 48-1 79-10 110-19l1-1c28-8 57-17 96-17h0c-39 0-68 9-96 17l-1 1z m169-18l0 0-8-653h0l8 653z m-587 150c-34 14-72 22-99 26 27-4 65-12 99-26z m49-671l0 0 0 0c0 0-1 0-1 0 0 0 1 0 1 0z m92-81c-27 34-58 61-92 81 34-20 65-47 92-81z m-58-24c0 0 0 0 0 0-38 7-100 5-132-7-46-19-143-21-181-22v1c38 0 135 2 181 21 32 12 94 14 132 7z" horiz-adv-x="1000" />

<glyph glyph-name="printerbold" unicode="&#xe847;" d="M890 498h-80v264c0 34-27 61-61 61h-498c-16 0-32-6-43-18-12-11-18-27-18-43v-264h-80c-57 0-104-47-104-105v-271c0-58 47-105 104-105h80v-79c0-34 27-62 61-62h498c34 0 61 28 61 62v79h80c57 0 104 47 104 105v271c0 58-47 105-104 105z m-643 264c0 2 2 4 4 4h498c2 0 4-2 4-4v-264h-506v264z m506-818l0 0 0-7c0-2-2-3-4-3h-498c-2 0-4 1-4 3v200h506v-193z m184 178c0-26-21-47-47-47h-80v119h-620v-119h-80c-26 0-47 21-47 47v271c0 26 21 47 47 47h780c26 0 47-21 47-47v-271z m-213-61h-447v57h447v-57z m-36 220h100v-58h-100v58z" horiz-adv-x="1000" />

<glyph glyph-name="questionbold" unicode="&#xe848;" d="M906 120c43 74 65 157 65 243 0 266-216 482-482 482s-481-216-481-482 216-483 481-483c86 0 169 22 242 65l263-88-88 263z m-34-140l-151 50-15-10c-65-41-139-63-216-63-224 0-405 182-405 406s181 405 405 405 404-182 404-405c0-77-21-152-62-217l-10-16 50-150z m-493 592c7 8 14 14 23 20-9-6-16-12-23-20z m-26-56c1 4 2 9 3 13-1-5-2-9-3-13z m112 98c-12-2-23-4-34-8 10 4 22 6 34 8z m-109-85c1 4 2 8 4 12-2-4-3-8-4-12z m132-9c0 0 0 0 0 0-19 0-26-17-26-32v-16c0-16-14-30-30-30h0c16 0 29 14 29 30v16c0 15 8 32 27 32z m141-32c0-49-17-73-26-83l-61-64c-7-7-8-16-8-30v-13c0-16-12-28-28-28h-1c16 0 29 13 29 28v13c0 14 1 23 8 30l61 64c9 10 25 34 26 83 0 76-44 121-124 126 80-5 124-50 124-126z m-94-274c0 17-13 29-29 29h-54c-16 0-29-12-29-29v1c0 16 13 29 29 29h54c16 0 29-13 29-30z m0 0v-50c0-16-13-29-29-29h-54c-16 0-29 13-29 29v50c0 17 13 29 29 29h54c16 0 29-12 29-29z m-155 228c-16 0-30 13-30 30v0c0-17 14-30 30-30z m73-172l0 0c-16 0-28 13-28 28v26c0 21 1 42 22 63l60 62c10 10 11 21 11 34 0 27-8 37-29 37 0 0 0 0 0 0 21 0 29-10 29-37 0-13-1-24-10-34l-61-62c-20-21-22-42-22-63v-26c0-15 13-28 28-28z m52 0h-52c-15 0-28 13-28 28v26c0 21 2 42 22 63l61 62c9 10 10 21 10 34 0 27-8 37-29 37 0 0 0 0 0 0 0 0 0 0-1 0-19 0-27-17-27-32v-16c0-16-13-30-29-30h-52c-16 0-30 13-30 30v16c0 10 1 19 3 28 1 4 2 9 3 13 1 4 2 8 4 12 5 11 11 22 19 31 7 7 14 14 23 20 9 5 18 10 29 14s22 6 34 7c8 1 16 2 23 2 6 0 12-1 17-1 80-5 124-50 124-126-1-50-17-74-26-84l-61-63c-7-8-8-17-8-30v-13c0-15-13-28-29-28z" horiz-adv-x="1000" />

<glyph glyph-name="scripturebold" unicode="&#xe849;" d="M815 844h-631c-15 0-27-12-27-27v-896c0-14 12-26 27-26h289v-13c0-9 5-17 13-22 4-3 9-4 14-4 4 0 8 1 12 3l67 33 66-33c4-2 8-3 12-3 5 0 10 2 14 4 8 5 13 14 13 23v12h92c15 0 27 12 27 27 0 14-12 26-27 26h-92v64h131c15 0 27 12 27 27v778c0 15-12 27-27 27z m-342-896h-262v64h262v-64z m316 117h-578v726h578v-726z m-257 467l0 0 70 0c8 0 15-6 15-14v0c0 7-7 14-15 14h-70z m-147-56c0 0-1 1-1 2 0-1 1-2 1-2z m2-2c0 0-1 1-2 2 1-1 2-2 2-2z m81 147l0 0c0 8 6 14 14 14h35c8 0 15-6 15-14v0c0 7-7 14-15 14h-35c-8 0-14-7-14-14z m-85-103l0 0c0 8 6 14 14 14h71v0h-71c-8 0-14-6-14-14z m1-40c-1 2-1 4-1 6v0c0-2 0-4 1-6z m233 6l0 0c0-8-7-15-15-15h-70v0h70c8 0 15 7 15 15z m-85-231l0 0c0-8-7-14-15-14h-35c-8 0-14 6-14 14v0c0-7 6-14 14-14h35c8 0 15 7 15 14z m-148 225c-1 2-1 4-1 6v34c0 8 6 14 14 14h71v0 89c0 7 6 14 14 14h35c8 0 15-7 15-14v-89 0h70c8 0 15-7 15-14v-34c0-8-7-15-15-15h-70v0-216c0-7-7-14-15-14h-35c-8 0-14 7-14 14v216h-71c-4 0-7 2-10 5 0 0-1 1-2 2s-1 1-1 2z" horiz-adv-x="1000" />

<glyph glyph-name="searchbold" unicode="&#xe84a;" d="M973-38c-35 33-69 67-104 100-34 33-69 67-103 100 69 96 98 209 82 321-16 104-71 201-151 265-168 134-403 127-558-18-76-70-123-166-133-268-11-103 17-206 78-289 62-86 145-141 246-164 35-8 69-12 103-12 88 0 171 28 248 83 8-7 16-14 24-21 21-20 41-38 61-58 30-28 59-58 87-86 13-14 26-27 39-40 13-12 27-19 43-19 6 0 12 1 18 3 23 7 38 24 41 49 4 25-10 43-21 54z m-328 242c-59-57-137-89-220-89-1 0-1 0-1 0-81 1-156 33-214 91s-89 135-89 216c0 82 32 159 91 217 58 58 135 89 216 89 1 0 1 0 1 0 82 0 159-32 217-89 59-58 91-135 90-218 0-83-33-160-91-217z" horiz-adv-x="1000" />

<glyph glyph-name="sharebold" unicode="&#xe84b;" d="M322 638c8-8 21-11 32-10 13 0 25 5 34 12l64 57v-445c0-25 21-44 47-44s46 19 46 44v444l64-57c8-8 21-12 34-12 12 0 23 3 32 11l0 0c10 8 15 19 16 31 0 12-6 24-15 33l-144 128c-18 16-48 16-67 0l-143-128c-10-8-15-20-15-32 0-13 5-24 15-32z m495-17h-127c-25 0-46-18-47-40-2-13 2-25 10-34 9-9 21-14 35-14h109c6 0 13-3 13-12v-560c0-3 0-8-13-8h-594c-13 0-13 5-13 8v560c0 8 7 12 13 12h107c25 0 46 17 47 39 2 13-2 24-10 33-9 10-22 16-36 16h-128c-48 0-83-34-83-80v-598c0-24 8-45 23-62 16-17 37-27 60-27h634c46 0 83 40 83 89v598c0 46-35 80-83 80z" horiz-adv-x="1000" />

<glyph glyph-name="support_emptybold" unicode="&#xe84c;" d="M913 708c-52 51-124 78-202 78h0c-75 0-150-26-211-73-61 47-136 73-211 74 0 0 0 0-1 0-77 0-149-28-201-79-52-50-80-119-81-194-1-84 35-169 99-232l2-3 366-354c7-7 16-11 27-12 10 0 20 4 27 11l365 354 2 3c64 63 100 148 100 233 0 75-29 144-81 194z m-76-367l-3-4-334-323-337 326c-48 48-75 111-75 173 1 53 21 100 56 135 38 37 90 55 145 55 56 0 115-20 164-59l47-37 47 37c96 78 231 79 309 4 36-35 55-82 56-135 0-62-27-125-75-172z" horiz-adv-x="1000" />

<glyph glyph-name="textbold" unicode="&#xe84d;" d="M949 551c-3 75-31 141-83 197-96 102-250 126-374 57-1-1-4-2-6-2-43 0-88 0-130 0-43 0-87 0-131 0-6 0-12 0-18 0-20 0-42 0-63-1-46-3-87-46-88-92 0-68 0-138 0-205 0-20 0-39 0-59v-299c0-16 0-32 0-49 0-48 0-97 0-146 1-46 36-87 81-94 17-2 34-2 50-2 4 0 7 0 10 0 51 0 102 0 151 0 50 0 101 0 151 0 0 0 0 0 1 0 28 0 54 10 73 29 19 19 29 45 29 73 1 54 0 110 0 163 0 27 0 54 0 81v31c27-4 51-4 75-1 70 9 130 37 178 84 66 64 98 143 94 235z m-819 187c8 6 17 9 28 9h260c-2-3-5-6-8-10-6-8-12-16-18-25-5-7-10-15-16-22l0 0c-1-1-2-2-2-2-87 0-176 0-262 0-2 33 8 43 18 50z m392-821c-8-5-17-5-28-5h-290c-4 0-8 0-13 0-12 0-25 0-38 0-23 1-40 20-41 43 0 5 0 9 0 14 0 1 0 1 0 2h434c2-29-4-43-24-54z m24 327c0-21 0-42 0-63 0-11 0-21 0-32 0-20 0-40 0-60 0-20 0-40 0-60v-2h-434v605h239c-2-5-3-9-4-14-22-85-11-166 34-241 0-1 0-2 0-3-15-48-31-96-46-143 0-1 0-2-1-4l-3-13 12 4c3 1 6 2 9 3 19 7 38 14 58 21 26 9 52 19 78 28 0 0 2 0 4-1 7-3 15-6 22-9 11-5 21-10 32-14 0 0 0 0 1 0 0-1 0-1-1-2z m259 99c-59-51-130-69-211-55-31 6-61 18-89 37-4 2-8 3-12 3-3 0-6 0-9-1-16-6-32-12-48-18-7-3-15-5-22-8 8 25 16 49 24 74 2 6 1 12-3 17-40 57-54 121-42 190 10 51 33 97 69 133 35 36 80 60 131 70 129 27 257-50 292-175 29-106 2-196-80-267z m30 185c0-33-25-58-58-58 33 0 58 25 58 58z m-214-54c1-1 3-1 5-2-2 1-3 1-5 2z m-7 4c-2 1-4 2-5 3 1-1 3-2 5-3z m-141 94c2 1 4 3 7 4-3-1-5-3-7-4z m79-6c-2 1-3 2-4 3 1-1 2-2 4-3z m-83 2c-11-11-17-26-17-41 0 15 6 30 17 41z m-17-41c0-16 6-30 16-41-10 11-16 25-16 41z m108 28c1-3 2-5 3-8-1 3-2 5-3 8z m-2 2c-1 2-2 3-3 5 1-2 2-4 3-5z m-49 27c-9 0-17-2-25-5 8 3 16 5 25 5 5 0 10 0 14-2-4 2-9 2-14 2z m14-2c3 0 6-1 8-2-2 1-5 2-8 2z m11-3c5-3 10-6 14-10-4 4-9 7-14 10z m-54-3c1 1 3 2 4 3-1-1-3-2-4-3z m-226-657c1-1 2-1 3-2-1 1-2 1-3 2z m129-5c3 0 8 0 12 1-4-1-9-1-12-1z m-133 9c-1 1-1 2-2 2 1 0 1-1 2-2z m-7 20c1 7 3 13 9 18-6-5-8-11-9-18z m3-14c0 0 1-1 1-1 0 0-1 1-1 1z m483 565c2-2 4-4 5-6-1 2-3 4-5 6z m7 74c-10-11-16-26-16-41 0 15 6 30 16 41z m2-84c2-2 4-3 7-5-3 2-5 3-7 5z m12-8c1 0 3-1 5-2-2 1-4 1-5 2z m27 108c-15 0-30-6-41-16 11 10 26 16 41 16z m58-56c0-33-25-58-58-58-8 0-16 1-22 4-2 1-4 1-5 2-2 1-4 2-5 3-2 2-5 3-7 5-1 1-2 3-3 4-2 2-4 4-5 6-6 9-10 21-10 33 0 15 6 30 17 41 10 10 25 16 40 16 31 0 57-25 58-56z m-250 0c0-16 7-31 18-42-12 11-18 26-18 42z m115 0c0-33-25-58-57-58 0 0 0 0 0 0-6 0-12 1-17 2-2 1-3 1-5 2-3 1-5 2-8 4-1 1-3 2-4 3-2 1-5 3-7 5-11 11-17 26-17 42 0 31 26 56 58 56 31 0 57-25 57-56z m-452-603c0 1-1 2-1 3 0-1 1-2 1-3z m-2 5c0 0 0-1 0-1 0 0 0 1 0 1-2 5-3 9-3 13 0-4 1-8 3-13z m6-10c-1 1-1 2-2 3 1-1 2-2 2-3z m0 41c0 0 0 0 0 0 0 0 0 0 0 0 1 1 2 2 4 3-2-1-3-2-4-3z m134 8c16 0 27-9 29-24-2 15-13 24-29 24z m29-24c1-14-7-27-20-30 13 3 21 15 20 30z m-20-30c-4-1-9-1-12-1h-112c-5 0-10 1-14 3-1 1-2 1-3 2-1 1-1 1-1 1-1 1-2 2-3 3-1 1-1 2-2 2 0 1 0 2-1 3 0 0 0 1 0 1-1 0-1 1-1 1-2 4-2 9-2 13 0 7 3 13 8 18 0 0 0 0 0 0 1 1 3 2 4 3 5 2 10 5 16 5 38 0 77 0 114 0 16 0 27-9 29-24 1-15-7-27-20-30z m114 555c0 0 0 0 0 0 0 0 0 0 0 0-16 0-30 6-41 16 11-10 25-16 41-16z m15 2c3 1 7 2 10 3-3-1-7-2-10-3z m22 11c-3-3-6-5-9-6 3 1 6 4 9 6z m8 8c-2-3-4-5-6-6 2 2 4 4 6 6z m13 34c-1-3-1-6-2-9 1 3 1 6 2 9z m-10-30c1 2 2 3 3 5-1-2-2-3-3-5z m5 10c1 3 2 5 3 8-1-3-2-5-3-8z m1 42c2-6 4-13 4-19 0-1 0-2 0-3-1-3-1-6-2-9 0-1 0-2 0-3-1-3-2-5-3-8-1-2-1-3-2-5-1-2-2-3-3-5-1-1-2-3-3-4-2-2-4-4-6-6 0-1-1-1-2-2-3-2-6-4-9-6-1-1-1-1-2-1-4-2-7-3-11-4-4-1-9-2-14-2 0 0 0 0 0 0 0 0-1 0-1 0-15 0-29 6-40 16-11 11-17 25-17 41 0 16 6 30 17 41 1 1 3 3 4 4 2 2 5 3 7 5 2 1 3 1 5 2 7 4 16 6 24 6 5 0 10-1 15-2 3-1 5-2 8-3 1 0 2-1 2-1 5-2 10-5 14-9 2-1 3-3 4-4 1-1 3-3 4-4 1-2 2-3 3-5 0-1 1-1 1-2 1-3 2-5 3-8z" horiz-adv-x="1000" />

<glyph glyph-name="whatsappbold" unicode="&#xe84e;" d="M985 445c-46 232-249 400-485 400-73 0-135-13-195-41-186-86-286-233-298-437-6-93 18-186 72-275 2-3 3-9 2-13-13-43-26-87-39-129-3-10-6-20-9-30-3-11-6-28 8-42 11-11 25-14 43-7 50 17 103 35 156 53 4 2 10 1 13-1 81-44 163-66 245-66 65 0 131 13 196 41 103 43 189 121 242 222 53 99 70 215 49 325z m-139-332c-64-94-160-156-270-175-27-5-54-7-80-7-78 0-151 22-219 64-9 6-18 8-27 8-5 0-11-1-17-3-24-9-49-17-72-25-4-1-9-3-13-4-4-2-8-3-12-4-5-2-9-3-13-5 0 0 0 0 0 0 0 0 0 0 0 0 0 0 0 0 0 1 0 0 0 0 0 0 4 12 7 24 11 36 7 26 15 52 23 78 2 4 2 9 2 13 1 9-2 17-8 26-48 73-72 150-72 229 0 11 1 23 2 34 3 37 10 71 20 103 0 2 1 4 1 5 1 2 1 3 2 5 1 3 2 6 3 10 0 0 0 0 0 1 2 4 4 8 5 13 0 0 1 1 1 2 2 3 3 7 5 11 12 27 26 52 43 75 45 61 110 107 191 139 60 23 122 32 184 27 60-5 116-23 169-52 102-58 175-154 203-267 2-8 3-15 5-23 21-110-3-222-67-315z m-744 374c1 2 1 3 2 5-1-2-1-3-2-5z m-21-108c-1-12-2-23-2-34 0 11 1 23 2 34 3 37 10 71 20 103-10-32-17-67-20-103z m26 124c0-1 0-1 0-1 0 0 0 0 0 1z m54-528c23 8 48 16 72 25-24-9-49-17-72-25-4-1-9-3-13-4 4 1 9 3 13 4z m0 628c-17-22-31-47-43-74 12 27 26 52 43 74 46 62 110 108 191 140 60 23 122 32 184 27 60-5 117-23 169-52 102-58 175-154 203-267-28 113-101 209-203 266-52 30-109 47-169 52-62 6-124-3-184-27-81-31-145-78-191-139z m-38-640c0 0 0 0 0 0 0 0 0 0 0 0 4 12 7 24 11 36 7 26 15 52 23 78 2 4 2 9 2 13 0-4 0-9-2-13-8-26-16-52-23-78-4-12-7-24-11-36z m-10 555c0-1 0-2-1-2 1 0 1 1 1 2z m10-556c4 2 8 3 13 5-5-2-9-3-13-5 0 0 0 0 0 0z m373-31c26 0 53 2 80 7-27-5-54-7-80-7z m-373 32c0-1 0-1 0-1 0 0 0 0 0 0 0 0 0 0 0 1z m-21 524c0-2-1-3-1-5 0 2 1 3 1 5z m131-487c6 2 12 3 17 3-5 0-11-1-17-3z m44-5c68-42 141-63 219-64-78 1-151 22-219 64z m-170 507c-1-4-2-7-3-10 1 3 2 6 3 10z m29-535c4 1 8 2 12 4-4-2-8-3-12-4z m-18 562c-2-4-3-8-5-11 2 3 3 7 5 11z m-6-14c-1-4-3-8-4-12 1 4 3 8 4 12z m47-425c1 9-2 17-8 26-48 73-72 150-72 229 0-79 24-156 72-229 6-8 9-17 8-26z m351-14c44-22 86-33 128-34 0 0 0 0-1 0-41 1-83 12-127 34-82 40-154 101-222 187-48 60-78 119-91 180-10 44-9 80 4 113 21 52 61 86 125 103 2 1 5 1 8 1-3 0-6 0-8-1-64-17-104-51-124-103-13-33-15-69-5-113 14-61 44-120 91-180 68-86 140-147 222-187z m49 205c2 0 3 1 4 3 7 8 15 16 23 23l2 2c7 7 16 10 25 10-9 0-18-3-25-10l-2-2c-8-7-16-15-22-23-2-2-3-3-5-3z m245-116c-6-13-13-29-22-43-33-53-82-80-144-80 0 0 0 0 0 0 62 0 111 27 144 80 9 14 16 29 21 43 10 24 5 39-17 53l-153 96c-6 4-13 6-20 5 7 1 14-1 20-5l153-96c22-13 28-29 18-53z m-470 495c9 0 20-5 30-21 14-22 27-44 40-66 14-22 27-44 40-66 2-2 3-4 4-6 4-6 8-13 12-20 8-15 6-32-6-44-3-4-7-7-10-10-4-5-9-9-13-14 0 0 0-1 0-2 37-60 76-100 122-128 3-2 5-2 6-2-1 0-3 0-6 2-46 28-85 68-122 128 0 1 0 2 0 2 4 5 8 9 13 14 3 3 7 6 10 10 12 12 14 29 6 44-4 7-8 14-12 20-1 2-3 4-4 6-13 22-26 44-40 66s-27 44-40 66c-10 16-21 21-30 21z m448-538c9 14 16 29 21 43 10 24 5 39-17 53l-153 96c-6 4-13 6-20 5-9 0-18-3-25-10l-2-2c-8-7-16-15-22-23-2-2-3-3-5-3-1 0-3 0-6 2-46 28-85 68-122 128 0 1 0 2 0 2 4 5 8 9 13 14 3 3 7 6 10 10 12 12 14 29 6 44-4 7-8 14-12 20-1 2-3 4-4 6-13 22-26 44-40 66s-27 44-40 66c-10 16-21 21-30 21-3 0-6 0-8-1-64-17-104-51-124-103-13-33-15-69-5-113 14-61 44-120 91-180 68-86 140-147 222-187 44-22 86-33 128-34 62 0 111 27 144 80z m-58 44c-4-7-9-13-13-18-19-22-43-32-74-32h0c-29 0-58 8-89 24-117 60-206 151-263 270-15 33-22 64-20 94 1 18 7 33 16 45 8 11 19 20 33 27 1 0 2-1 2-1 21-33 42-67 64-105 0-1 0-3 0-3l-1-1c-2-2-4-4-6-7-2-2-5-4-7-6-3-3-5-6-8-9-13-13-15-29-7-44 49-85 101-142 165-180 10-6 21-12 32-17 18-8 32-6 47 8 4 4 8 8 12 12 4 3 7 7 10 10 0 1 1 1 1 1 1 1 1 1 1 1s1 0 2-1c33-21 67-42 102-63 1-1 2-1 2-2 0 0 0-1-1-3z m-13-18c-19-22-43-32-74-32h0c-29 0-58 8-89 24-117 60-206 151-263 270-15 33-22 64-20 94 1 18 7 33 16 45-9-12-15-27-16-45-2-30 5-61 21-94 57-119 145-209 262-269 31-17 60-24 89-24h1c30-1 54 9 73 31z m-104 75c4 3 7 7 10 10 0 1 1 1 1 1 0 0 0 0-1-1-3-3-6-6-10-10z m-241 230c3 2 5 4 7 6-2-2-5-4-7-6-3-3-5-6-8-9 0 0 0 0 0 0 3 3 5 6 8 9z m-8-9c0 0 0 0 0 0-13-13-15-29-7-44 49-85 101-142 165-180 10-6 21-12 32-17 18-8 32-6 47 8 4 4 8 8 12 12-4-4-8-8-12-12-15-14-29-17-47-8-11 5-22 10-32 16-64 39-117 96-165 181-9 15-6 31 7 44z m-77 105c8 11 19 20 33 27 1 0 2-1 2-1 21-33 42-67 64-105 0-1 0-3 0-3l-1-1c1 1 1 3 1 3-23 39-44 73-64 106 0 0-2 0-2 1-14-7-25-16-33-27z m98-83l0 0c-2-2-4-4-6-7 2 3 4 5 6 7z m346-297c0 0 0-1-1-3-4-7-9-13-13-18 4 5 9 11 12 17 2 3 2 4 2 4 0 0-1 1-3 2-34 21-68 42-101 63-1 1-2 1-2 1 0 0 0 0-1-1 1 1 1 1 1 1s1 0 2-1c33-21 67-42 102-63 1-1 2-1 2-2z" horiz-adv-x="1000" />

<glyph glyph-name="camerabold" unicode="&#xe84f;" d="M504 537c-131 0-238-107-238-238 0-131 107-238 238-238 131 0 238 107 238 238 0 131-107 238-238 238z m171-238c0-94-77-171-171-171-94 0-171 77-171 171 0 94 77 171 171 171 94 0 171-77 171-171z m183 356h-173v29c0 42-28 70-69 70h-226c-42 0-70-28-70-70v-29h-179c-75 0-135-62-135-137v-435c0-76 60-138 135-138h717c75 0 136 62 136 138v435c0 75-61 137-136 137z m-206-68h206c38 0 68-31 68-69l0-435c0-38-30-69-68-69h-717c-37 0-68 31-68 69v435c0 38 31 69 68 69h213c19 0 34 15 34 34v63c0 0 0 1 0 2 1 0 1 0 2 0h225c1 0 2 0 2 0 0-1 0-2 0-2v-63c1-19 16-34 35-34z m-430-115c0-19-16-35-36-35s-36 16-36 35 16 36 36 36 36-16 36-36z" horiz-adv-x="1000" />

<glyph glyph-name="camera" unicode="&#xe850;" d="M504 533c-129 0-234-105-234-234s105-235 234-235 235 105 235 235c0 129-106 234-235 234z m0-414c-99 0-180 80-180 180s81 180 180 180 180-81 180-180-81-180-180-180z m359 533h-182v36c0 39-26 65-64 65h-228c-39 0-64-26-64-65v-36h-189c-72 0-130-59-130-132v-441c0-73 58-132 130-132h727c72 0 131 59 131 132v441c0 73-59 132-131 132z m76-573l0 0c0-42-34-77-76-77h-727c-42 0-76 34-76 77v441c0 43 34 77 76 77h216c15 0 27 13 27 28v64c0 8 3 9 10 9h228c7 0 9-1 9-9v-64c0-15 13-28 28-28h209c42 0 76-34 76-77v-441z m-757 425c16 0 29-13 29-30 0-16-13-29-29-29s-30 13-30 29c0 17 13 30 30 30" horiz-adv-x="1000" />

<glyph glyph-name="google" unicode="&#xe851;" d="M509 419v-170h280c-11-72-85-213-280-213-169 0-307 140-307 312 0 172 138 312 307 312 96 0 160-41 196-76l134 129c-85 81-197 129-330 129-274 0-494-221-494-494 0-273 220-494 494-494 285 0 474 201 474 483 0 32-4 57-8 82h-466l0 0 0 0z" horiz-adv-x="1000" />

<glyph glyph-name="googleplay" unicode="&#xe852;" d="M924 378c-7 32-28 54-54 71-48 29-96 58-144 86-135 80-270 160-406 240-35 20-69 42-105 60-36 18-74 19-108-7-31-24-43-58-43-96-1-126 0-252 0-378h-1c0-120 0-239 0-359 0-14 1-28 3-43 11-72 71-109 138-84 21 8 41 20 61 32 176 103 351 207 527 311 31 19 62 36 91 58 35 26 53 63 41 109z m-569 315c106-63 212-125 319-189-29-36-57-72-86-109-79 100-157 198-235 296 1 1 2 1 2 2z m-123-747c-18-22-42-31-69-33-17-1-31 7-37 23-6 15-11 31-11 47 0 247 0 494 0 741 0 13 3 26 7 38 8 26 28 37 54 31 24-6 44-17 60-38 103-130 207-260 310-390 3-4 5-7 8-12-60-76-119-150-178-225-48-61-96-121-144-182z m123 68c0 1-1 1-2 2 78 98 156 196 235 296 29-37 57-73 86-109-106-64-213-126-319-189z m492 293c-30-21-62-39-94-58-11-6-22-13-33-20-33 42-66 83-99 124 33 42 65 83 99 125 43-26 86-50 127-78 40-27 40-65 0-93z" horiz-adv-x="1000" />

<glyph glyph-name="itunes" unicode="&#xe853;" d="M499-144c-273 0-494 222-494 494 0 273 222 494 494 494 273 0 494-222 494-494 0-273-222-494-494-494m451 494c0 247-197 447-443 451-253 4-454-197-459-442-5-257 202-460 451-460 249 0 451 201 451 451m-236 257c0 15-12 24-26 22-28-5-55-11-83-16-34-6-68-13-102-19-34-7-69-14-103-19-22-4-30-17-30-37 0-92 0-185 0-277 0-12-6-20-17-23-23-6-47-12-70-17-17-4-32-12-44-25-20-22-25-57-11-83 15-27 39-40 69-42 38-1 69 13 93 43 16 20 23 43 23 69 0 74 0 148 0 223 0 17 12 29 26 32 40 7 80 15 120 23 28 5 57 10 85 16 12 3 27-5 27-22 0-43 0-86 0-130 0-11-6-19-18-22-20-5-40-10-60-15-11-3-22-5-32-10-47-25-57-93-8-127 20-14 43-18 67-14 53 8 94 54 94 108 0 60 0 119 0 179 0 61 0 122 0 183" horiz-adv-x="1000" />

<glyph glyph-name="rss" unicode="&#xe854;" d="M487 453c55-43 103-92 144-149 39-55 69-116 90-180 21-66 32-136 32-205 0-21-18-37-38-38-21-1-38 18-38 38 0 27-2 55-5 82-8 50-21 99-41 147-13 32-30 63-49 92-8 13-17 26-27 40-1 1-1 1-2 2-2 3-4 6-7 9-5 6-10 12-15 18-21 24-44 46-67 66-5 4-11 8-16 12 2-1 0 0-2 2 0 0 0 0-2 1 0 1-1 1-2 2-3 2-6 4-9 6-13 10-26 19-39 27-26 16-54 30-82 42-47 19-97 33-147 40-27 4-55 6-82 6-21 0-37 17-38 38-1 20 18 38 38 38 8 0 17-1 26-1 69-3 137-16 202-40 64-23 123-55 176-95z m-204-455c0 27-9 56-25 78-18 25-41 42-70 53-52 19-116 2-152-41-20-24-31-52-33-83-3-28 5-57 19-81 14-23 35-43 60-54 29-13 59-17 90-11 64 12 110 71 111 135 0 1 0 1 0 2 0 0 0 0 0 0 0 1 0 1 0 2z m-76-11c-1-5-3-11-5-16-2-4-4-8-7-12 0-1-1-2-1-2-2-2-4-4-6-6-2-2-4-4-6-6 0 0-1 0-1-1-4-3-9-5-13-7-5-2-10-3-16-4-6-1-12-1-18 0-6 1-11 2-16 4-4 2-8 4-12 7-1 0-2 1-3 1-2 2-4 4-5 6-2 2-4 4-6 6 0 0-1 1-1 1-3 5-5 9-7 13-2 5-3 10-5 16 0 6 0 12 0 19 1 5 3 10 5 15 2 4 4 9 7 12 0 1 1 2 1 3 2 2 4 4 6 6 2 2 4 3 6 5 0 0 1 1 1 1 4 3 9 5 13 7 5 2 10 4 16 5 6 0 12 0 18 0 6-1 11-3 16-4 4-2 8-5 12-7 1-1 2-1 3-2 2-2 4-3 5-5 2-2 4-4 6-6 0-1 1-1 1-2 3-4 5-8 7-13 2-5 4-11 5-16 0-3 0-6 0-9 0-3 0-6 0-9z m32 328c79-29 146-80 195-149 48-67 73-150 73-232 0-21-18-37-38-38-21-1-38 18-38 38 0 15-1 30-3 45-4 28-11 55-22 81-8 18-17 36-27 52-5 7-9 14-14 20 1-1-1 1-2 2 0 0 0 0 0 0 0 0 0 0 0 1-1 1-2 2-3 3 1-1 1-2 2-2-1 1-2 2-3 3-3 4-6 7-9 10-11 14-24 27-38 38-2 2-4 3-6 5 0 0 0 0-1 1 1-1 2-1 0 0-1 1-3 3-4 3 0 0 0 0 1 0-2 1-4 2-5 3-7 5-15 10-22 15-15 9-31 17-47 24-26 11-53 18-81 22-15 2-30 3-45 3-21 0-37 17-38 38-1 21 18 38 38 38 47 0 94-8 137-24z m589 135c54-77 96-161 125-250 30-92 45-189 45-286 0-21-18-37-38-38-21-1-38 18-38 38 0 39-3 78-8 116-2 16-4 31-7 46-11 57-28 114-51 168-19 45-42 89-69 131-12 19-25 37-38 55-2 3-4 5-6 8-3 4-6 8-10 12-7 9-14 17-21 25-29 34-61 65-95 93-8 7-16 14-26 21-1 1-2 2-4 3 2-1 3-2 3-2-2 2-4 3-6 5-4 3-9 6-13 9-18 13-37 26-56 37-37 23-76 44-117 61-13 5-27 11-41 16-56 19-113 34-172 42-38 5-78 8-117 8-21 0-37 17-38 38-1 20 18 38 38 38 12 0 24 0 36-1 96-4 192-22 282-55 88-32 170-77 245-134 75-58 142-126 197-204z" horiz-adv-x="1000" />

<glyph glyph-name="rssbold" unicode="&#xe855;" d="M293 2c-1 30-10 59-26 81-19 26-43 44-72 55-54 20-121 2-158-43-20-25-32-54-34-86-3-28 5-58 20-84 15-25 37-45 62-56 20-9 42-14 63-14 10 0 20 1 30 3 64 12 113 72 115 140 0 1 0 1 0 2 0 1 0 2 0 2z m-89-10c-1-4-2-9-4-14-2-4-4-7-6-11-1-1-1-1-1-2l-1 0c-1-2-3-4-4-5-2-2-3-3-5-5-1 0-1 0-2-1-3-2-7-4-11-6-5-2-9-3-14-4-5 0-11 0-16 0-5 1-9 2-14 4-4 2-7 4-11 6 0 1-1 1-2 1l0 1c-2 1-3 3-5 4-1 2-3 3-5 5 0 1 0 1 0 2-3 3-5 7-7 11-2 5-3 9-4 14 0 5 0 11 0 16 1 5 2 9 4 14 2 4 4 7 6 11 1 0 1 1 2 2l0 0c2 2 3 3 4 5 2 1 4 3 6 5 0 0 0 0 1 0 3 3 7 5 11 7 5 2 9 3 14 4 5 0 11 0 16 0 5-1 10-2 14-4 4-2 7-4 11-6l0 0c1-1 1-1 2-2l0 0c2-2 4-3 5-4 2-2 3-4 5-6 0 0 0 0 1-1 2-3 4-7 6-11 2-5 3-10 4-15 0-2 1-5 1-7-1-2-1-5-1-8z m794-73c0-24-19-43-44-44-1 0-1 0-2 0-10 0-20 4-29 12-9 8-14 20-14 32 0 38-2 76-7 114-3 16-5 31-8 44-11 56-27 111-49 164-19 45-42 88-68 129-12 18-24 36-37 54-1 1-2 3-4 4-1 1-1 2-2 3-3 4-6 8-9 12-7 8-14 16-21 25-29 32-60 63-93 91-7 6-15 12-25 20-1 0-1 1-1 1l0 0c-1 1-2 1-3 2-1 1-2 2-3 2-2 2-4 4-6 5-3 2-5 4-7 5-17 13-36 25-54 36-37 23-76 43-115 60-15 6-28 11-40 15-54 19-110 33-168 41-38 5-77 8-115 8-24 0-43 20-44 44-1 11 3 22 12 31 8 9 20 14 32 14l0 0c12 0 24 0 35-1 98-4 193-22 281-55 89-33 171-77 243-133 76-58 142-126 196-203l0 0c54-75 95-158 124-248 30-91 45-186 45-284z m-557 253c47-66 73-149 73-233 0-24-19-44-44-45-1 0-1 0-2 0-10 0-20 5-29 12-9 9-14 21-14 33 0 15-1 29-3 43-4 27-11 53-21 78-8 19-17 35-27 51-4 6-8 12-13 19l0 0c0 1-1 1-1 2l-1 0c0 1 0 1-1 1l0 0c-1 1-2 3-2 4-3 3-6 6-9 9-11 13-24 26-37 37-2 1-4 3-5 4l-1 1c0 0 0 0-1 1l-3 2c0 1-1 1-2 2 0 0-1 1-2 1-7 5-14 10-22 15-14 8-29 16-45 23-24 10-51 17-77 21-15 2-30 3-44 3-24 0-43 19-45 44 0 11 4 22 12 30 9 9 21 15 33 15 48-1 95-9 138-24l0 0c78-29 146-81 195-149z m283-44c21-64 32-133 32-204 0-24-19-43-44-44-1 0-1 0-2 0-10 0-20 4-28 12-9 8-15 20-15 32 0 26-1 53-5 80-7 49-20 97-39 143-13 31-29 62-47 90-9 14-18 26-27 39l-2 2c-2 3-4 5-6 8-5 6-10 12-16 18-19 23-41 44-65 64-5 5-10 9-15 13l0 0c0 0-1 0-2 1 0 0 0 0-2 1l-10 8c-14 10-26 18-39 26-25 15-52 29-80 41-46 19-94 32-143 39-27 4-53 5-80 5-23 0-43 20-44 44-1 11 4 22 12 31 8 9 20 14 32 14 10 0 18 0 26-1 71-2 139-16 202-39 64-24 123-56 175-96 55-42 103-91 143-147 38-54 68-114 89-180z" horiz-adv-x="1000" />

<glyph glyph-name="soundcloud" unicode="&#xe856;" d="M16 307c-2 0-3-1-4-3l-7-55 7-54c0-2 2-4 4-4 2 0 4 2 4 4l0 0v0c0 0 0 0 0 0l9 54-9 55c0 2-2 3-4 3z m41 30c-1 3-2 4-4 4-2 0-4-1-5-4 0 0-9-88-9-88l9-87c1-3 2-4 5-4 2 0 3 1 4 4l11 87-11 88z m153 82c-4 0-7-3-8-7l-7-163 7-106c1-4 4-7 8-7 4 0 7 3 7 7v0l9 106-9 163c0 4-3 7-7 7z m-79-57c-3 0-6-2-6-5l-9-109 9-104c0-3 3-6 6-6 3 0 5 3 5 6l10 104-10 109c0 3-2 5-5 5z m159-226c5 0 9 4 10 9l7 103-7 218c-1 5-5 9-10 9-5 0-9-4-9-9 0 0-7-218-7-218l7-103c0-5 4-9 9-9z m165-1c7 0 13 6 13 13v0 0l5 100-5 251c0 7-6 13-13 13-7 0-12-6-12-13l-5-251c0 0 5-100 5-100 0-7 5-13 12-13z m-83 1c6 0 11 4 11 10v0l6 103-6 219c0 6-5 10-11 10-6 0-11-4-11-10l-5-219 5-103c0-6 5-10 11-10z m-202 1c4 0 6 2 7 6l9 106-9 100c-1 4-4 7-7 7-4 0-6-3-7-7l-8-100 8-106c1-4 4-6 7-6z m-78 5c2 0 4 2 5 5l10 102-10 105c-1 3-3 5-5 5-3 0-5-2-5-5 0 0-10-105-10-105l10-102c0-3 2-5 5-5z m321 329c-6 0-11-5-11-12l-6-211 6-101c0-6 5-12 11-12 7 0 12 6 12 12v0l6 101-6 211c0 7-5 12-12 12z m-163-336c4 0 8 4 8 9l9 104-9 201c0 5-3 8-8 8-4 0-8-3-8-8 0 0-8-201-8-201l8-104c0-5 3-9 8-9z m91 10l0 0 7 104-7 224c0 6-5 10-10 10-5 0-10-4-10-10l-6-224 6-104c0-5 5-9 10-9 6-1 10 4 10 9l0 0z m530 233c-16 0-32-3-47-9-9 109-101 195-213 195-27 0-54-5-78-15-9-3-11-7-11-14v-386c0-7 5-13 13-14 0 0 334 0 337 0 67 0 121 54 121 121s-54 122-122 122z m0-205c-2 0-234 0-312 0v345c17 5 35 8 52 8 44 0 87-17 119-47 33-29 53-70 56-114 1-12 8-23 19-29 6-4 12-5 19-5 5 0 10 1 15 3 10 4 21 6 32 6 46 0 84-37 84-84 0-46-37-83-84-83z m-374 363c-8 0-14-6-14-14l-5-274 5-99c0-7 6-13 14-13 7 0 13 6 13 13v0l6 99-6 274c0 8-6 14-13 14z" horiz-adv-x="1000" />

<glyph glyph-name="subscribe" unicode="&#xe857;" d="M500 845c-273 0-494-222-494-494s221-494 494-494 494 221 494 494c0 272-222 494-494 494z m0-910c-230 0-416 186-416 416 0 229 186 415 416 415s415-186 415-416c0-229-186-415-415-415z m203 455v-79c0-4-3-7-7-7h-149v-149c0-5-4-8-8-8h-79c-4 0-7 3-7 8v149h-149c-5 0-8 3-8 7v79c0 4 3 8 8 8h149v149c0 4 3 7 7 7h79c4 0 8-3 8-7v-149h149c4 0 7-4 7-8z" horiz-adv-x="1000" />

<glyph glyph-name="subscribeaudio" unicode="&#xe858;" d="M949 125h-135v135c0 25-20 45-45 45s-45-20-45-45v-135h-135c-24 0-45-20-45-45s20-45 45-45h135v-134c0-25 20-45 45-45s45 20 45 45v134h135c25 0 45 20 45 45s-20 45-45 45m-459-142c-7 3-12 4-12 4-213 0-386 173-386 386 0 212 173 385 386 385 212 0 385-173 385-385 0-24 20-43 43-43 22 0 41 17 43 38 0 2 0 3 0 5 0 259-211 471-471 471-260 0-472-212-472-472 0-260 212-471 472-471 23 0 42 19 42 42 0 18-12 35-30 40m459 142c25 0 45-20 45-45s-20-45-45-45h-135v-134c0-25-20-45-45-45-25 0-45 20-45 45v134h-135c-24 0-45 20-45 45s20 45 45 45h135v135c0 25 20 45 45 45 25 0 45-20 45-45v-135h135m-459-142c-7 3-12 4-12 4-213 0-386 173-386 386 0 212 173 385 386 385 212 0 385-173 385-385 0-24 20-43 43-43 22 0 41 17 43 38 0 2 0 3 0 5 0 259-211 471-471 471-260 0-472-212-472-472 0-260 212-471 472-471 23 0 42 19 42 42 0 18-12 35-30 40m161 349c13 10 13 25 0 35l-217 158c-13 9-24 4-24-12v-327c0-16 11-21 24-12l217 158z" horiz-adv-x="1000" />

<glyph glyph-name="subscribeaudiobold" unicode="&#xe859;" d="M525-53c0-26-22-48-48-48-261 0-472 212-472 472 0 260 211 472 472 472 260 0 471-212 471-472 0-2 0-3 0-5-2-25-23-44-49-44-27 0-49 22-49 49 0 206-168 373-373 373-206 0-374-167-374-373 0-206 168-374 374-374 1 0 2 0 14-4 20-6 34-24 34-46z m-88 580c-11 8-19 6-23 4-4-2-11-8-11-22v-322c0-14 7-19 11-21 2-1 4-2 8-2 4 0 9 1 15 6l214 156c8 6 13 14 13 22 0 9-5 17-13 23l-214 156z m505-393h-126v126c0 28-23 51-52 51s-51-23-51-51v-126h-126c-28 0-51-23-51-51s23-51 51-51h126v-126c0-28 23-51 51-51s52 23 52 51v126h126c28 0 51 23 51 51s-23 51-51 51z" horiz-adv-x="1000" />

<glyph glyph-name="subscribebold" unicode="&#xe85a;" d="M703 399c3-3 5-7 5-11v-77c0-8-7-15-15-15h-140v-140c0-8-7-14-15-14h-77c-8 0-15 6-15 14v140h-140c-8 0-14 7-14 15v77c0 8 6 15 14 15h140v140c0 8 7 14 15 14h77c8 0 15-6 15-14v-140h140c4 0 7-1 10-4z m291-49c0-273-222-494-494-494s-494 221-494 494 221 494 494 494 494-222 494-494z m-92-1c0 223-180 403-402 403s-403-180-403-402c0-223 181-403 403-403 222 0 402 180 402 402z" horiz-adv-x="1000" />

<glyph glyph-name="confirmationbold" unicode="&#xe85b;" d="M711 559l66-64-373-359-184 172 63 64 120-115 308 302z m282-210c0-132-51-256-145-349s-217-145-349-145c-132 0-256 51-349 145-94 93-145 217-145 349s51 256 145 349c93 94 217 145 349 145s256-51 349-145c94-93 145-217 145-349z m-88-172c23 55 35 112 35 172s-12 117-35 172c-22 52-54 99-94 140-41 40-88 72-140 94-55 23-112 35-172 35-60 0-117-12-172-35-52-22-99-54-140-94-40-41-72-88-94-140-23-55-35-112-35-172 0-60 12-117 35-172 22-52 54-99 94-140 41-40 88-72 140-94 55-23 112-35 172-35s117 12 172 35c52 22 99 54 140 94 40 41 72 88 94 140z" horiz-adv-x="1000" />

</font>
</defs>
</svg>
