
<svg width="175px" height="22px" viewBox="83 17 175 22" version="1.1" xmlns="http://www.w3.org/2000/svg" xmlns:xlink="http://www.w3.org/1999/xlink">
    <!-- Generator: Sketch 40.3 (33839) - http://www.bohemiancoding.com/sketch -->
    <desc>Created with Sketch.</desc>
    <defs>
        <polygon id="path-1" points="131.569429 21.9685714 0.0314285714 21.9685714 0.0314285714 0.464619048 65.8004286 0.464619048 131.569429 0.464619048 131.569429 21.9685714"></polygon>
    </defs>
    <g id="ODBM®-1-Line_Reverse" stroke="none" stroke-width="1" fill="none" fill-rule="evenodd" transform="translate(83.000000, 17.000000)">
        <g id="Group-4">
            <mask id="mask-2" fill="white">
                <use xlink:href="#path-1"></use>
            </mask>
            <g id="Clip-2"></g>
            <path d="M11.9166667,8.16985714 C11.9166667,8.16985714 11.5164762,8.569 11.3059048,8.78061905 C10.8601429,9.22638095 10.406,9.69728571 10.1037619,10.1880952 L10.1037619,2.10204762 L11.9166667,2.10204762 L11.9166667,8.16985714 L11.9166667,8.16985714 Z M9.34842857,11.198 C8.8937619,10.6815238 8.43961905,10.208 7.68533333,9.77847619 L7.68533333,4.36804762 L9.34842857,4.36804762 L9.34842857,11.198 L9.34842857,11.198 Z M8.24528571,13.5174286 C8.23480952,13.5441429 8.22380952,13.5719048 8.21228571,13.5991429 C6.86452381,12.086381 5.17314286,10.9308571 3.26490476,10.23 L3.91966667,8.45480952 C5.88185714,9.17661905 7.64761905,10.3159048 9.11061905,11.7935714 C8.78795238,12.3461905 8.4977619,12.9213333 8.24528571,13.5174286 L8.24528571,13.5174286 Z M7.36790476,16.3590952 C6.43814286,14.9720476 5.13804762,13.8762381 3.55614286,13.1544286 L4.24652381,11.640619 C5.68333333,12.2964286 6.92580952,13.2151905 7.92314286,14.3534286 C7.69057143,15.0097619 7.50566667,15.6786667 7.36790476,16.3590952 L7.36790476,16.3590952 Z M9.96966667,0.464619048 C4.46442857,0.464619048 0,4.92747619 0,10.4342857 C0,15.1810476 3.32042857,19.151 7.76233333,20.1556667 C7.74661905,19.877 7.73771429,19.5978095 7.73771429,19.3175714 C7.73771429,14.0700476 10.612381,9.26566667 15.237619,6.78019048 L16.1333333,8.448 C12.122,10.6024286 9.62971429,14.7672381 9.62971429,19.3175714 C9.62971429,19.679 9.64542857,20.0383333 9.67738095,20.3960952 C9.77480952,20.3987143 9.87119048,20.4039524 9.96966667,20.4039524 C10.1016667,20.4039524 10.2341905,20.3987143 10.3651429,20.394 C10.3321429,20.0367619 10.3138095,19.676381 10.3138095,19.3175714 C10.3138095,17.3784286 10.7763333,15.5587143 11.6935238,13.9129048 C12.5599048,12.3514286 13.824381,11.0015714 15.3497143,10.0089524 L16.258,11.4049048 C14.9594762,12.2492857 13.8830476,13.3969524 13.1486667,14.7211429 C12.372381,16.1170952 11.9795238,17.663381 11.9795238,19.3175714 C11.9795238,19.6093333 11.9931429,19.901619 12.0193333,20.1923333 C16.5408571,19.247381 19.9388095,15.237619 19.9388095,10.4342857 C19.9388095,4.92747619 15.4749048,0.464619048 9.96966667,0.464619048 L9.96966667,0.464619048 Z" id="Fill-1" fill="#FFFFFF" mask="url(#mask-2)"></path>
            <path d="M81.6100476,22 L80.9044762,20.4400952 L80.9924762,20.3950476 C81.4827619,20.1441429 82.0060476,19.703619 82.4675238,19.151 C82.918,18.6224762 83.2642381,17.93 83.4255714,17.4952381 C83.5130476,17.2464286 83.5292857,17.1579048 83.5292857,17.0327143 C83.5292857,16.9132857 83.5292857,16.799619 83.4910476,16.6917143 L80.7462857,7.24742857 L82.764,7.24742857 L84.202381,13.1135714 C84.3385714,13.6551905 84.4312857,14.1302857 84.5219048,14.588619 C84.5365714,14.6619524 84.5517619,14.7363333 84.565381,14.8091429 C84.6664762,14.335619 84.8010952,13.7489524 84.9514286,13.1350476 L86.2321429,7.24742857 L88.1388095,7.24742857 L86.3520952,13.8526667 C85.7114762,16.2972857 84.9765714,18.8173333 83.6707143,20.3887619 C82.777619,21.4484286 81.875619,21.881619 81.7043333,21.9575714 L81.6100476,22 L81.6100476,22 Z M79.7185714,17.784381 L79.6368571,17.7398571 C79.5991429,17.718381 78.6871905,17.2097619 78.1654762,16.3774286 C77.7469524,15.7043333 77.6992857,14.3649524 77.6992857,13.4168571 L77.6992857,3.311 L79.5048571,3.311 L79.5048571,13.5425714 C79.5011905,14.0438571 79.497,14.8819524 79.651,15.2386667 C79.937,16.0086667 80.5865238,16.3659048 80.5933333,16.3695714 L80.6975714,16.425619 L79.7185714,17.784381 L79.7185714,17.784381 Z M127.345429,17.7723333 C126.116571,17.7723333 125.188381,17.3328571 124.587571,16.4659524 C123.993048,15.611619 123.693429,14.2580952 123.693429,12.4430952 C123.693429,10.7181905 124.062714,9.39033333 124.792381,8.49409524 C125.526238,7.59157143 126.548714,7.1337619 127.833095,7.1337619 C128.27519,7.1337619 128.614619,7.15890476 128.870762,7.20604762 C129.088143,7.24690476 129.321762,7.30871429 129.566381,7.39095238 L129.566381,3.311 L131.373524,3.311 L131.373524,13.9841429 C131.373524,14.6614286 131.380333,15.2837143 131.396048,15.8331905 C131.408619,16.3700952 131.460476,16.9148571 131.549524,17.4507143 L131.569429,17.5717143 L130.281381,17.5717143 L129.945095,16.431381 C129.728238,16.797 129.409762,17.1081429 128.995429,17.3569524 C128.536571,17.6324762 127.981333,17.7723333 127.345429,17.7723333 L127.345429,17.7723333 Z M111.318952,17.7723333 C110.611286,17.7723333 109.987952,17.6445238 109.465714,17.3915238 C108.942952,17.1374762 108.505048,16.7697619 108.164048,16.2978095 C107.825143,15.8300476 107.57319,15.2617143 107.414476,14.6095714 C107.259429,13.9631905 107.180333,13.2282857 107.180333,12.4231905 C107.180333,10.6993333 107.537571,9.36414286 108.24419,8.45690476 C108.954476,7.53866667 109.975905,7.07404762 111.274952,7.07404762 C111.694524,7.07404762 112.116714,7.12328571 112.528429,7.21704762 C112.949571,7.31395238 113.333524,7.51038095 113.670857,7.80109524 C114.006619,8.0902381 114.281619,8.50090476 114.486952,9.02261905 C114.69019,9.54171429 114.792857,10.2200476 114.792857,11.0419048 C114.792857,11.2713333 114.781857,11.5201429 114.759857,11.7815238 C114.737333,12.042381 114.711143,12.3131905 114.68181,12.5939524 L114.671857,12.6871905 L109.051905,12.6871905 C109.058714,13.211 109.109524,13.6939524 109.204857,14.1229524 C109.304381,14.5739524 109.464143,14.9636667 109.67681,15.2774286 C109.887905,15.5890952 110.161333,15.8331905 110.492905,16.0039524 C110.821333,16.1762857 111.241429,16.2627143 111.740619,16.2627143 C112.126143,16.2627143 112.513238,16.1977619 112.891429,16.068381 C113.268048,15.9405714 113.558238,15.7860476 113.753095,15.6079524 L113.852095,15.518381 L114.533571,16.7739524 L114.467571,16.827381 C114.103,17.1301429 113.634714,17.3648095 113.077905,17.5282381 C112.523714,17.6890476 111.93181,17.7723333 111.318952,17.7723333 L111.318952,17.7723333 Z M39.2584762,17.7723333 C38.7770952,17.7723333 38.348619,17.7168095 37.9861429,17.6073333 C37.6147619,17.4952381 37.2931429,17.2904286 37.0296667,16.9965714 C36.7682857,16.7058571 36.5702857,16.3035714 36.4414286,15.8022857 C36.3146667,15.3099048 36.2497143,14.6719048 36.2497143,13.904 L36.2497143,7.31395238 L38.0558095,7.31395238 L38.0558095,13.543619 C38.0558095,14.5378095 38.167381,15.2512381 38.3868571,15.6681905 C38.5984762,16.068381 38.9766667,16.2627143 39.5460476,16.2627143 C39.839381,16.2627143 40.1044286,16.2082381 40.3328095,16.1019048 C40.5632857,15.9955714 40.7733333,15.8504762 40.9582381,15.6713333 C41.1420952,15.4932381 41.3081429,15.2847619 41.4516667,15.0511429 C41.5915238,14.8238095 41.7057143,14.5870476 41.791619,14.3471429 L41.791619,7.31395238 L43.5966667,7.31395238 L43.5966667,14.5865238 C43.5966667,15.0626667 43.6160476,15.5613333 43.6521905,16.0699524 C43.6878095,16.5775238 43.7438571,17.028 43.8166667,17.4082857 L43.8407619,17.5319048 L42.504,17.5319048 L42.1279048,16.2119048 C41.874381,16.61 41.5260476,16.9625238 41.0907619,17.2631905 C40.6025714,17.6010476 39.9860476,17.7723333 39.2584762,17.7723333 L39.2584762,17.7723333 Z M29.8597619,17.7723333 C28.9305238,17.7723333 28.124381,17.5968571 27.4612381,17.2511429 C26.7970476,16.9028095 26.2470476,16.4020476 25.8264286,15.7635238 C25.407381,15.1286667 25.0999048,14.3487143 24.9139524,13.4456667 C24.728,12.5489048 24.6347619,11.5316667 24.6347619,10.4201429 C24.6347619,8.0357619 25.0658571,6.19771429 25.9165238,4.95785714 C26.7750476,3.70595238 28.1018571,3.07057143 29.8597619,3.07057143 C30.8036667,3.07057143 31.6181905,3.24604762 32.2802857,3.59280952 C32.9434286,3.94061905 33.4897619,4.44085714 33.904619,5.07990476 C34.3158095,5.71528571 34.6227619,6.4952381 34.8170952,7.3972381 C35.0093333,8.29609524 35.1078095,9.31438095 35.1078095,10.4201429 C35.1078095,12.806619 34.672,14.6451905 33.814,15.8855714 C32.9481429,17.1369524 31.6181905,17.7723333 29.8597619,17.7723333 L29.8597619,17.7723333 Z M57.9212857,17.7120952 C57.728,17.7120952 57.483381,17.7089524 57.1874286,17.7021429 C56.8982857,17.696381 56.5965714,17.6838095 56.2634286,17.6628571 C55.946,17.6424286 55.6510952,17.6261905 55.3781905,17.6125714 C55.1052857,17.6 54.8879048,17.5785238 54.7323333,17.5502381 L54.6459048,17.5350476 L54.6459048,3.32828571 L54.7339048,3.31257143 C54.9711905,3.27119048 55.2320476,3.24133333 55.5316667,3.22038095 C55.8129524,3.20047619 56.1094286,3.18685714 56.4116667,3.18109524 L57.2874762,3.16066667 C57.5760952,3.15385714 57.846381,3.1512381 58.0983333,3.1512381 C59.1878571,3.1512381 60.1265238,3.32252381 60.8902381,3.66038095 C61.6565714,3.99928571 62.2893333,4.49166667 62.7707143,5.12442857 C63.2494762,5.75247619 63.599381,6.51566667 63.8078571,7.39514286 C64.017381,8.2667619 64.121619,9.25204762 64.121619,10.3211429 C64.121619,11.2844286 64.0205238,12.221 63.8204286,13.1062381 C63.6187619,13.9967143 63.2740952,14.7887143 62.7942857,15.466 C62.315,16.1438095 61.6712381,16.6932857 60.8839524,17.0997619 C60.0966667,17.5062381 59.0998571,17.7120952 57.9212857,17.7120952 L57.9212857,17.7120952 Z M96.2243333,17.6921905 L95.5040952,17.6921905 C95.2311905,17.6921905 94.9352381,17.6822381 94.6225238,17.6628571 C94.3229048,17.6424286 94.0128095,17.6157143 93.698,17.5816667 C93.387381,17.547619 93.1024286,17.4952381 92.8504762,17.4287143 L92.7724286,17.4067143 L92.7724286,3.4487619 L92.8578095,3.43304762 C93.3025238,3.35185714 93.8310476,3.28480952 94.4313333,3.23033333 C95.0248095,3.17795238 95.6800952,3.1512381 96.3788571,3.1512381 C96.8859048,3.1512381 97.3992381,3.1957619 97.9041905,3.28271429 C98.4175238,3.3717619 98.8842381,3.54095238 99.2928095,3.78557143 C99.706619,4.03490476 100.043952,4.38847619 100.295381,4.8347619 C100.546286,5.28471429 100.673571,5.87766667 100.673571,6.59790476 C100.673571,6.94990476 100.628,7.30871429 100.537905,7.66542857 C100.446762,8.02057143 100.300619,8.36052381 100.103667,8.67428571 C99.9067143,8.98909524 99.6563333,9.27352381 99.3624762,9.52128571 C99.1173333,9.724 98.8255714,9.88847619 98.4929524,10.0094762 C98.7726667,10.0780952 99.0455714,10.175 99.3064286,10.2975714 C99.6416667,10.4568095 99.946,10.6804762 100.203714,10.9617619 C100.463524,11.2440952 100.669905,11.5924286 100.822333,11.9968095 C100.973714,12.3990952 101.050714,12.8867619 101.050714,13.444619 C101.050714,14.1758571 100.921333,14.8206667 100.663619,15.3596667 C100.405905,15.9007619 100.048143,16.3475714 99.602381,16.6890952 C99.1592381,17.0285238 98.6406667,17.2841429 98.0597619,17.448619 C97.482,17.611 96.8644286,17.6921905 96.2243333,17.6921905 L96.2243333,17.6921905 Z M118.214905,17.6722857 C117.396714,17.6722857 116.71681,17.4088095 116.192476,16.8918095 C115.668143,16.3727143 115.403095,15.6509048 115.403095,14.7457619 C115.403095,14.1554286 115.514667,13.6541429 115.734143,13.2544762 C115.954143,12.8532381 116.271571,12.5232381 116.67281,12.2754762 C117.070905,12.0282381 117.55019,11.8522381 118.093381,11.7495714 C118.636048,11.649 119.24681,11.5987143 119.905762,11.5987143 L120.344714,11.5987143 C120.462048,11.5987143 120.584619,11.602381 120.711905,11.6118095 C120.748571,11.2388571 120.767952,10.9057143 120.767952,10.6212857 C120.767952,9.88952381 120.650095,9.37304762 120.417524,9.08547619 C120.189143,8.80628571 119.759095,8.66433333 119.135762,8.66433333 C118.736619,8.66433333 118.294,8.71985714 117.821524,8.83195238 C117.350095,8.94195238 116.953048,9.08338095 116.63981,9.25204762 L116.54081,9.30442857 L115.926905,7.97552381 L116.010714,7.92838095 C116.446,7.68480952 116.982381,7.49152381 117.603095,7.35638095 C118.219619,7.2217619 118.880667,7.15366667 119.56581,7.15366667 C120.195952,7.15366667 120.713476,7.24166667 121.103714,7.41242857 C121.496571,7.58842857 121.808238,7.82885714 122.031381,8.12795238 C122.253476,8.42442857 122.402238,8.76961905 122.471381,9.15147619 C122.538952,9.52652381 122.574048,9.91990476 122.574048,10.3211429 C122.574048,11.1079048 122.554667,11.8983333 122.516429,12.6683333 C122.478714,13.4278571 122.460381,14.1528095 122.460381,14.825381 C122.460381,15.3250952 122.478714,15.7970476 122.516429,16.2281429 C122.552571,16.6550476 122.622762,17.0625714 122.725429,17.4412857 L122.761048,17.5717143 L121.298048,17.5717143 L120.924048,16.4355714 C120.699857,16.7571905 120.383476,17.0405714 119.984333,17.2757619 C119.546429,17.5392381 118.94981,17.6722857 118.214905,17.6722857 L118.214905,17.6722857 Z M67.564619,17.6722857 C66.7469524,17.6722857 66.0675714,17.4088095 65.5432381,16.8918095 C65.0194286,16.3727143 64.754381,15.6509048 64.754381,14.7457619 C64.754381,14.1554286 64.8659524,13.6541429 65.0864762,13.2544762 C65.3049048,12.8532381 65.6207619,12.5232381 66.0235714,12.2754762 C66.4216667,12.0292857 66.899381,11.8522381 67.4441429,11.7495714 C67.9857619,11.649 68.596,11.5987143 69.2565238,11.5987143 L69.6954762,11.5987143 C69.8122857,11.5987143 69.935381,11.602381 70.0626667,11.6118095 C70.100381,11.2451429 70.1187143,10.9130476 70.1187143,10.6212857 C70.1187143,9.88952381 70.0008571,9.372 69.7682857,9.08547619 C69.542,8.80628571 69.1109048,8.66433333 68.4880952,8.66433333 C68.0879048,8.66433333 67.6458095,8.71985714 67.1722857,8.83195238 C66.7019048,8.94195238 66.3038095,9.08338095 65.9895238,9.25204762 L65.8910476,9.30442857 L65.2776667,7.97552381 L65.362,7.92838095 C65.7962381,7.68480952 66.3315714,7.49152381 66.9533333,7.35638095 C67.570381,7.2217619 68.2314286,7.15366667 68.915,7.15366667 C69.5482857,7.15366667 70.0647619,7.24166667 70.4534286,7.41295238 C70.8452381,7.58580952 71.1574286,7.8267619 71.3821429,8.12742857 C71.6063333,8.42652381 71.7540476,8.7727619 71.8231905,9.15304762 C71.8897143,9.52338095 71.9242857,9.9167619 71.9242857,10.3211429 C71.9242857,11.1225714 71.9049048,11.9124762 71.8677143,12.6683333 C71.8294762,13.4126667 71.8100952,14.1381429 71.8100952,14.825381 C71.8100952,15.3334762 71.8294762,15.8049048 71.8677143,16.227619 C71.9049048,16.656619 71.9750952,17.0641429 72.0761905,17.4412857 L72.1112857,17.5717143 L70.6482857,17.5717143 L70.2753333,16.4355714 C70.0495714,16.7571905 69.7337143,17.0405714 69.3345714,17.2757619 C68.8950952,17.5392381 68.2995238,17.6722857 67.564619,17.6722857 L67.564619,17.6722857 Z M104.152714,17.5319048 L102.34819,17.5319048 L102.34819,7.31395238 L103.663476,7.31395238 L103.927476,8.28561905 C104.130714,7.953 104.38581,7.6832381 104.689619,7.48209524 C105.284667,7.08714286 106.092905,7.02480952 107.13581,7.31919048 L107.231143,7.34538095 L106.874952,9.0142381 L106.764952,8.97966667 C105.806905,8.67952381 105.142714,8.77433333 104.692238,9.14990476 C104.417238,9.38038095 104.233381,9.69414286 104.151667,10.0828095 L104.152714,17.5319048 L104.152714,17.5319048 Z M73.7979524,17.5319048 L75.6040476,17.5319048 L75.6040476,7.31395238 L73.7979524,7.31395238 L73.7979524,17.5319048 Z M47.0768571,17.5319048 L45.2707619,17.5319048 L45.2707619,7.31395238 L46.5865714,7.31395238 L46.8505714,8.28614286 C47.0527619,7.95352381 47.308381,7.6837619 47.6116667,7.48209524 C48.2082857,7.08714286 49.0165238,7.02480952 50.0594286,7.31919048 L50.1531905,7.34538095 L49.799619,9.0142381 L49.6885714,8.97966667 C48.732619,8.68057143 48.0658095,8.77380952 47.6158571,9.14990476 C47.3398095,9.38038095 47.1580476,9.69361905 47.0747619,10.0828095 L47.0768571,17.5319048 L47.0768571,17.5319048 Z M127.943095,8.64390476 C127.189333,8.64390476 126.620476,8.943 126.201429,9.559 C125.779238,10.1791905 125.566048,11.1560952 125.566048,12.463 C125.566048,13.0391905 125.607429,13.5682381 125.686524,14.0370476 C125.765095,14.4974762 125.88819,14.9018571 126.05319,15.2407619 C126.214,15.5686667 126.425619,15.8242857 126.683333,15.9997619 C126.93581,16.1741905 127.256381,16.2627143 127.634048,16.2627143 C128.647619,16.2627143 129.281952,15.7357619 129.566381,14.652 L129.566381,9.05195238 C129.382524,8.91680952 129.172476,8.81414286 128.945667,8.7502381 C128.697905,8.68004762 128.361619,8.64390476 127.943095,8.64390476 L127.943095,8.64390476 Z M29.8597619,4.65980952 C28.7969524,4.65980952 28.0065238,5.11552381 27.445,6.05 C26.881381,6.99233333 26.5948571,8.46214286 26.5948571,10.4201429 C26.5948571,11.1985238 26.6582381,11.9475714 26.782381,12.6458095 C26.9049524,13.3377619 27.0992857,13.9548095 27.3606667,14.4801905 C27.618381,14.995619 27.9578095,15.4141429 28.3710952,15.7237143 C28.778619,16.0280476 29.2799048,16.1830952 29.8597619,16.1830952 C30.9382857,16.1830952 31.735,15.727381 32.2965238,14.792381 C32.8601429,13.8521429 33.1461429,12.3818095 33.1461429,10.4201429 C33.1461429,9.65747619 33.0832857,8.91680952 32.9596667,8.21752381 C32.8360476,7.52190476 32.6406667,6.9022381 32.3808571,6.37319048 C32.1241905,5.85095238 31.7847619,5.42928571 31.3709524,5.1202381 C30.962381,4.81485714 30.4542857,4.65980952 29.8597619,4.65980952 L29.8597619,4.65980952 Z M119.952905,12.9291905 C119.605619,12.9291905 119.264095,12.9543333 118.939333,13.0072381 C118.614048,13.0585714 118.323333,13.1497143 118.072952,13.277 C117.826762,13.4011429 117.62981,13.5719048 117.487333,13.783 C117.346429,13.9914762 117.275714,14.2612381 117.275714,14.5865238 C117.275714,15.0883333 117.408238,15.4832857 117.672762,15.7540952 C117.939905,16.0285714 118.278286,16.1626667 118.704143,16.1626667 C119.288714,16.1626667 119.746,16.0348571 120.062381,15.785 C120.375095,15.5361905 120.59719,15.2606667 120.722905,14.9647143 L120.722905,12.9600952 C120.611333,12.949619 120.497143,12.9438571 120.385048,12.9380952 C120.242571,12.9312857 120.095905,12.9291905 119.952905,12.9291905 L119.952905,12.9291905 Z M69.302619,12.9291905 C68.9558571,12.9291905 68.6159048,12.9543333 68.290619,13.0072381 C67.9648095,13.0585714 67.6735714,13.1497143 67.4231905,13.277 C67.1775238,13.4011429 66.9805714,13.5719048 66.838619,13.783 C66.6971905,13.9909524 66.6259524,14.2612381 66.6259524,14.5865238 C66.6259524,15.0883333 66.7605714,15.4832857 67.0235238,15.7540952 C67.2922381,16.0285714 67.6274762,16.1626667 68.0538571,16.1626667 C68.6394762,16.1626667 69.0967619,16.0348571 69.4115714,15.785 C69.7253333,15.5361905 69.9474286,15.2606667 70.0747143,14.9647143 L70.0747143,12.9600952 C69.9615714,12.949619 69.8489524,12.9438571 69.7352857,12.9380952 C69.5917619,12.9312857 69.4471905,12.9291905 69.302619,12.9291905 L69.302619,12.9291905 Z M56.5185238,16.0579048 C56.5677619,16.0620952 56.6384762,16.068381 56.7400952,16.0725714 C56.8951429,16.079381 57.0564762,16.0856667 57.2261905,16.0919524 L57.7149048,16.1129048 C57.868381,16.1191905 57.9815238,16.1218095 58.0538095,16.1218095 C58.8426667,16.1218095 59.5115714,15.9662381 60.040619,15.6566667 C60.5680952,15.3470952 60.9918571,14.9259524 61.300381,14.4021429 C61.6089048,13.8751905 61.8325714,13.2534286 61.963,12.5546667 C62.0934286,11.8506667 62.1604762,11.0916667 62.1604762,10.3012381 C62.1604762,9.60195238 62.1018095,8.90842857 61.985,8.23690476 C61.8692381,7.57061905 61.6607619,6.97347619 61.3648095,6.45961905 C61.0714762,5.94838095 60.6660476,5.53142857 60.1595238,5.21557143 C59.6540476,4.9002381 58.990381,4.73995238 58.1868571,4.73995238 L57.7107143,4.73995238 C57.5441429,4.73995238 57.378619,4.7467619 57.2209524,4.75933333 C57.0585714,4.77347619 56.9077143,4.78657143 56.768381,4.80019048 C56.6725238,4.80961905 56.5902857,4.81747619 56.5185238,4.82742857 L56.5185238,16.0579048 L56.5185238,16.0579048 Z M94.644,15.9861429 C94.7157619,16.0018571 94.7985238,16.013381 94.8922857,16.0233333 C95.0331905,16.0369524 95.1871905,16.0495238 95.3574286,16.0620952 C95.5245238,16.0751905 95.697381,16.0856667 95.8723333,16.0919524 C96.0499048,16.0987619 96.2101905,16.1024286 96.3568571,16.1024286 C96.742381,16.1024286 97.1043333,16.0474286 97.4332857,15.9379524 C97.757,15.8300476 98.0466667,15.6645238 98.2939048,15.4481905 C98.5400952,15.2313333 98.7365238,14.9636667 98.8769048,14.6525238 C99.0183333,14.3377143 99.0895714,13.9652857 99.0895714,13.543619 C99.0895714,13.0177143 99.0005238,12.5871429 98.8255714,12.2618571 C98.6490476,11.9391905 98.4180476,11.6861905 98.1404286,11.5107143 C97.8580952,11.3320952 97.5322857,11.209 97.1703333,11.1445714 C96.8,11.0785714 96.4139524,11.0460952 96.0242381,11.0460952 L94.644,11.0460952 L94.644,15.9861429 L94.644,15.9861429 Z M109.083333,11.2770952 L113.055905,11.2770952 C113.072143,10.3567619 112.921286,9.67266667 112.608048,9.24209524 C112.285905,8.79895238 111.857429,8.58419048 111.297476,8.58419048 C110.642714,8.58419048 110.140381,8.80104762 109.758524,9.24785714 C109.390286,9.67947619 109.162429,10.3614762 109.083333,11.2770952 L109.083333,11.2770952 Z M94.644,9.53595238 L95.449619,9.53595238 C95.6565238,9.53595238 95.8922381,9.53019048 96.1525714,9.51604762 C96.4139524,9.50347619 96.6334286,9.48357143 96.8057619,9.45738095 C97.3133333,9.26933333 97.7727143,8.95347619 98.1514286,8.52080952 C98.5238571,8.09547619 98.7119048,7.5627619 98.7119048,6.93785714 C98.7119048,6.51514286 98.6490476,6.15528571 98.5222857,5.87033333 C98.397619,5.58747619 98.2252857,5.36171429 98.0115714,5.19985714 C97.7947143,5.03538095 97.5354286,4.917 97.242619,4.84838095 C96.9440476,4.77609524 96.6224286,4.73995238 96.291381,4.73995238 C95.911619,4.73995238 95.5627619,4.74938095 95.2558095,4.76980952 C95.0033333,4.78657143 94.7990476,4.80542857 94.644,4.82638095 L94.644,9.53595238 L94.644,9.53595238 Z" id="Fill-3" fill="#FFFFFF" mask="url(#mask-2)"></path>
        </g>
        <path d="M74.7161905,5.73990476 C73.9341429,5.73990476 73.2977143,5.10714286 73.2977143,4.32928571 C73.2977143,3.55247619 73.9341429,2.91919048 74.7161905,2.91919048 C75.5003333,2.91919048 76.1378095,3.55247619 76.1378095,4.32928571 C76.1378095,5.10714286 75.5003333,5.73990476 74.7161905,5.73990476" id="Fill-5" fill="#FFFFFF"></path>
        <path d="M148.773429,17.567 L147.438762,17.567 L147.438762,14.4204762 C147.438762,14.0627143 147.397381,13.8102381 147.315667,13.6724762 C147.239714,13.543619 147.111905,13.4807619 146.924381,13.4807619 C146.763048,13.4807619 146.627381,13.5294762 146.510571,13.6284762 C146.392714,13.7274762 146.309952,13.8479524 146.259143,13.9951429 L146.259143,17.567 L144.924476,17.567 L144.924476,12.3692381 L146.001429,12.3692381 L146.129238,12.8982857 C146.248667,12.7322381 146.401619,12.5876667 146.584952,12.4666667 C146.804952,12.3220952 147.092524,12.2487619 147.440857,12.2487619 C147.652476,12.2487619 147.842619,12.2801905 148.007619,12.3435714 C148.175762,12.408 148.31981,12.515381 148.435048,12.6625714 C148.54819,12.8071429 148.633048,13.0035714 148.689619,13.2455714 C148.745143,13.4812857 148.773429,13.7782857 148.773429,14.126619 L148.773429,17.567" id="Fill-6" fill="#FFFFFF"></path>
        <path d="M152.953429,17.6979524 C152.67319,17.6979524 152.393476,17.6639048 152.121619,17.5952857 C151.84819,17.525619 151.625048,17.4334286 151.457952,17.322381 L151.417095,17.2956667 L151.79319,16.2035238 L151.860238,16.2412381 C152.000619,16.3203333 152.161952,16.39 152.340048,16.4481429 C152.518667,16.5073333 152.708286,16.5361429 152.903143,16.5361429 C153.044571,16.5361429 153.161381,16.5047143 153.251476,16.4413333 C153.334762,16.3826667 153.376143,16.2894286 153.376143,16.1548095 C153.376143,16.0285714 153.337381,15.9248571 153.25619,15.837381 C153.170286,15.7457143 153.057143,15.6577143 152.920952,15.5749524 C152.779524,15.4921905 152.630238,15.4057619 152.471524,15.3177619 C152.308619,15.2287143 152.153048,15.1160952 152.007952,14.9851429 C151.861286,14.8531429 151.739238,14.6891905 151.644429,14.5000952 C151.548571,14.3089048 151.500381,14.0674286 151.500381,13.783 C151.500381,13.2932381 151.636571,12.9098095 151.904762,12.6410952 C152.171905,12.3739524 152.57,12.2377619 153.086476,12.2377619 C153.386619,12.2377619 153.674714,12.2707619 153.942381,12.3362381 C154.210048,12.4011905 154.427429,12.4839524 154.58981,12.5829524 L154.630667,12.6075714 L154.312714,13.6557143 L154.247238,13.6284762 C154.119952,13.5750476 153.965952,13.5237143 153.788381,13.4734286 C153.611333,13.4241905 153.435857,13.4000952 153.267714,13.4000952 C152.879571,13.4000952 152.835048,13.6007143 152.835048,13.7520952 C152.835048,13.8620952 152.873286,13.9516667 152.951857,14.0239524 C153.037762,14.104619 153.151429,14.1842381 153.28919,14.2638571 C153.430619,14.3450476 153.581476,14.429381 153.739667,14.5168571 C153.903619,14.6074762 154.059714,14.7211429 154.203762,14.8547143 C154.351476,14.9919524 154.473,15.160619 154.567286,15.3554762 C154.662095,15.5529524 154.71081,15.7980952 154.71081,16.0835714 C154.71081,16.5649524 154.561,16.9583333 154.266095,17.2537619 C153.970667,17.5497143 153.529619,17.6979524 152.953429,17.6979524" id="Fill-7" fill="#FFFFFF"></path>
        <path d="M156.771476,17.6890476 C156.36919,17.6890476 156.06119,17.5685714 155.855333,17.3318095 C155.65419,17.0976667 155.552048,16.7053333 155.552048,16.1652857 L155.552048,13.5724286 L154.993667,13.5724286 L154.993667,12.3692381 L155.552048,12.3692381 L155.552048,11.4337143 L156.885667,11.0188571 L156.885667,12.3692381 L157.870429,12.3692381 L157.870429,13.5724286 L156.885667,13.5724286 L156.885667,15.719 C156.885667,15.9971429 156.912905,16.1961905 156.966333,16.3098571 C157.013476,16.409381 157.092048,16.4549524 157.217762,16.4549524 C157.313095,16.4549524 157.399524,16.4460476 157.477048,16.4266667 C157.553,16.4072857 157.637857,16.3779524 157.730048,16.3381429 L157.806,16.3067143 L157.977286,17.3972857 L157.936429,17.4177143 C157.783476,17.4931429 157.605381,17.558619 157.406333,17.6104762 C157.204667,17.6623333 156.990952,17.6890476 156.771476,17.6890476" id="Fill-8" fill="#FFFFFF"></path>
        <path d="M159.688571,17.567 L158.354429,17.567 L158.354429,12.3692381 L159.393143,12.3692381 L159.515714,12.9009048 C159.604238,12.7217619 159.722095,12.5766667 159.865095,12.4698095 C160.040571,12.3362381 160.246952,12.2686667 160.476905,12.2686667 C160.646095,12.2686667 160.815286,12.3042857 160.97819,12.3744762 L161.021667,12.3938571 L160.864524,13.7185714 L160.788571,13.6902857 C160.432381,13.5556667 160.143762,13.5787143 159.932667,13.741619 C159.814286,13.8327619 159.734143,13.9584762 159.688571,14.1255714 L159.688571,17.567" id="Fill-9" fill="#FFFFFF"></path>
        <path d="M164.684667,14.4382857 L165.953857,14.4382857 C165.965905,14.0946667 165.926095,13.8306667 165.836,13.653619 C165.745905,13.4765714 165.608667,13.3901429 165.416952,13.3901429 C165.181762,13.3901429 165.009429,13.4807619 164.893667,13.6693333 C164.779476,13.851619 164.708762,14.1109048 164.684667,14.4382857 L164.684667,14.4382857 Z M165.397048,17.6979524 C165.03719,17.6979524 164.722905,17.6350952 164.462048,17.509381 C164.199095,17.3841905 163.981714,17.1992857 163.813048,16.962 C163.647524,16.7278571 163.523381,16.4381905 163.443238,16.1034762 C163.36519,15.7708571 163.324857,15.3895238 163.324857,14.968381 C163.324857,14.044381 163.512905,13.3492857 163.882714,12.9045714 C164.254619,12.4556667 164.777905,12.2283333 165.437381,12.2283333 C165.658429,12.2283333 165.876333,12.2613333 166.08481,12.3262857 C166.296429,12.3938571 166.486571,12.5085714 166.652095,12.6662381 C166.817619,12.823381 166.952238,13.0365714 167.053333,13.2979524 C167.153381,13.5572381 167.204714,13.8872381 167.204714,14.2790476 C167.204714,14.4230952 167.195286,14.5818095 167.179048,14.7614762 C167.16281,14.9238571 167.137667,15.1050952 167.102571,15.3130476 L167.093143,15.367 L164.641714,15.367 C164.661095,15.738381 164.745952,16.0285714 164.891048,16.2286667 C165.041905,16.4360952 165.279714,16.5361429 165.62019,16.5361429 C165.827095,16.5361429 166.019333,16.5036667 166.190619,16.4381905 C166.362952,16.3748095 166.493905,16.3061905 166.582952,16.2354762 L166.647905,16.1851905 L167.075333,17.1448095 L167.040238,17.1757143 C166.866333,17.3297143 166.626429,17.4564762 166.328905,17.553381 C166.031905,17.6497619 165.718667,17.6979524 165.397048,17.6979524 L165.397048,17.6979524 Z" id="Fill-10" fill="#FFFFFF"></path>
        <path d="M169.221381,17.6979524 C168.939571,17.6979524 168.660381,17.6639048 168.390095,17.5952857 C168.116143,17.525619 167.892476,17.4344762 167.725381,17.322381 L167.685048,17.2956667 L168.060095,16.2035238 L168.127143,16.2412381 C168.269095,16.3208571 168.430952,16.3905238 168.607476,16.4481429 C168.786095,16.5073333 168.976238,16.5361429 169.170571,16.5361429 C169.314095,16.5361429 169.427238,16.5062857 169.519952,16.4413333 C169.603238,16.3821429 169.644095,16.2889048 169.644095,16.1548095 C169.644095,16.0290952 169.605333,15.925381 169.524667,15.837381 C169.436667,15.7446667 169.323,15.6571905 169.187857,15.5749524 C169.046429,15.4921905 168.897667,15.4057619 168.738429,15.3177619 C168.577095,15.2292381 168.421,15.116619 168.275381,14.9851429 C168.129762,14.8531429 168.00719,14.6902381 167.911857,14.5000952 C167.817048,14.3099524 167.76781,14.0679524 167.76781,13.783 C167.76781,13.2932381 167.904,12.9098095 168.17219,12.6410952 C168.440381,12.3739524 168.837429,12.2377619 169.352857,12.2377619 C169.654048,12.2377619 169.942143,12.2707619 170.209286,12.3362381 C170.479571,12.4017143 170.696429,12.4844762 170.856714,12.5829524 L170.898619,12.6080952 L170.579095,13.6557143 L170.513619,13.6284762 C170.388952,13.5755714 170.234952,13.5242381 170.055286,13.4734286 C169.878238,13.4241905 169.703286,13.4000952 169.535667,13.4000952 C169.147524,13.4000952 169.102476,13.6007143 169.102476,13.7520952 C169.102476,13.8615714 169.14019,13.9511429 169.218238,14.0244762 C169.30781,14.1061905 169.420429,14.1863333 169.556095,14.2638571 C169.699619,14.3450476 169.847857,14.429381 170.007095,14.5168571 C170.17,14.6074762 170.327143,14.7211429 170.47119,14.8547143 C170.617333,14.9909048 170.739381,15.1595714 170.835762,15.3554762 C170.930571,15.554 170.978762,15.798619 170.978762,16.0835714 C170.978762,16.5644286 170.828952,16.9578095 170.534048,17.2537619 C170.238619,17.5497143 169.796524,17.6979524 169.221381,17.6979524" id="Fill-11" fill="#FFFFFF"></path>
        <polygon id="Fill-12" fill="#FFFFFF" points="140.673762 17.567 140.673762 13.3791429 139.339619 16.2595714 138.831524 16.2595714 137.465429 13.4760476 137.465952 17.567 136.13181 17.567 136.13181 10.3420952 137.46281 10.3420952 139.164667 13.8678571 140.767 10.3420952 142.078619 10.3420952 142.078619 17.567"></polygon>
        <path d="M143.462524,10.208 C143.029857,10.208 142.678905,10.5594762 142.678905,10.991619 C142.678905,11.4258571 143.029857,11.7762857 143.462524,11.7762857 C143.895714,11.7762857 144.246667,11.4258571 144.246667,10.991619 C144.246667,10.5594762 143.895714,10.208 143.462524,10.208 L143.462524,10.208 Z M142.79519,17.567 L144.129857,17.567 L144.129857,12.3692381 L142.79519,12.3692381 L142.79519,17.567 Z" id="Fill-13" fill="#FFFFFF"></path>
        <path d="M150.203429,10.208 C149.770238,10.208 149.419286,10.5594762 149.419286,10.991619 C149.419286,11.4258571 149.770238,11.7762857 150.203429,11.7762857 C150.636619,11.7762857 150.987048,11.4258571 150.987048,10.991619 C150.987048,10.5594762 150.636619,10.208 150.203429,10.208 L150.203429,10.208 Z M149.535571,17.567 L150.870238,17.567 L150.870238,12.3692381 L149.535571,12.3692381 L149.535571,17.567 Z" id="Fill-14" fill="#FFFFFF"></path>
        <path d="M162.107,10.208 C161.67381,10.208 161.323381,10.5594762 161.323381,10.991619 C161.323381,11.4258571 161.67381,11.7762857 162.107,11.7762857 C162.540714,11.7762857 162.891667,11.4258571 162.891667,10.991619 C162.891667,10.5594762 162.540714,10.208 162.107,10.208 L162.107,10.208 Z M161.439667,17.567 L162.774333,17.567 L162.774333,12.3692381 L161.439667,12.3692381 L161.439667,17.567 Z" id="Fill-15" fill="#FFFFFF"></path>
        <path d="M172.857143,10.557381 C172.857143,10.6459048 172.821524,10.7475238 172.547571,10.7475238 L172.393048,10.7475238 L172.393048,10.4075714 C172.435476,10.3970952 172.503571,10.3970952 172.564857,10.3970952 C172.652857,10.3970952 172.857143,10.4122857 172.857143,10.557381 L172.857143,10.557381 Z M173.25,10.546381 C173.25,10.238381 173.02319,10.0613333 172.627714,10.0613333 C172.443857,10.0613333 172.177238,10.0822857 172.045762,10.12 L172.016952,10.128381 L172.016952,11.6767619 L172.393048,11.6767619 L172.393048,11.0073333 L172.597857,11.055 L172.994381,11.6767619 L173.437,11.6767619 L172.958762,10.9465714 C173.14,10.8868571 173.25,10.7375714 173.25,10.546381 L173.25,10.546381 Z" id="Fill-16" fill="#FFFFFF"></path>
        <path d="M173.783238,10.892619 C173.783238,11.5217143 173.272,12.0334762 172.642905,12.0334762 C172.01381,12.0334762 171.502571,11.5217143 171.502571,10.892619 C171.502571,10.2635238 172.01381,9.7517619 172.642905,9.7517619 C173.272,9.7517619 173.783238,10.2635238 173.783238,10.892619 L173.783238,10.892619 Z M172.642905,9.31595238 C171.773381,9.31595238 171.066238,10.023619 171.066238,10.892619 C171.066238,11.761619 171.773381,12.4692857 172.642905,12.4692857 C173.512429,12.4692857 174.219571,11.761619 174.219571,10.892619 C174.219571,10.023619 173.512429,9.31595238 172.642905,9.31595238 L172.642905,9.31595238 Z" id="Fill-17" fill="#FFFFFF"></path>
    </g>
</svg>