<?xml version="1.0" encoding="utf-8"?>
<!-- Generator: Adobe Illustrator 19.0.1, SVG Export Plug-In . SVG Version: 6.00 Build 0)  -->
<svg version="1.1" id="Layer_1" xmlns="http://www.w3.org/2000/svg" xmlns:xlink="http://www.w3.org/1999/xlink" x="0px" y="0px"
	 viewBox="0 0 284 41.9" style="enable-background:new 0 0 284 41.9;" xml:space="preserve">
<style type="text/css">
	.st0{fill:#6699CC;}
	.st1{fill:#878787;}
</style>
<g>
	<g>
		<path class="st0" d="M19,0C8.5,0,0,8.5,0,19c0,9.1,6.3,16.6,14.8,18.6c0-0.5,0-1.1,0-1.6c0-10,5.5-19.2,14.3-23.9l1.7,3.2
			C23.1,19.4,18.4,27.3,18.4,36c0,0.7,0,1.4,0.1,2.1c0.2,0,0.4,0,0.6,0c0.3,0,0.5,0,0.8,0c-0.1-0.7-0.1-1.4-0.1-2.1
			c0-3.7,0.9-7.2,2.6-10.3c1.7-3,4.1-5.6,7-7.5l1.7,2.7c-2.5,1.6-4.5,3.8-5.9,6.3c-1.5,2.7-2.2,5.6-2.2,8.8c0,0.6,0,1.1,0.1,1.7
			c8.6-1.8,15.1-9.5,15.1-18.6C38.1,8.5,29.5,0,19,0z M14.1,30.3c-1.8-2.6-4.3-4.7-7.3-6.1l1.3-2.9c2.7,1.3,5.1,3,7,5.2
			C14.7,27.8,14.3,29,14.1,30.3z M15.7,24.9c0,0.1,0,0.1-0.1,0.2c-2.6-2.9-5.8-5.1-9.4-6.4l1.2-3.4c3.7,1.4,7.1,3.6,9.9,6.4
			C16.8,22.7,16.2,23.8,15.7,24.9z M17.8,20.5c-0.9-1-1.7-1.9-3.2-2.7V7.5h3.2V20.5z M22.8,14.7c0,0-0.8,0.8-1.2,1.2
			c-0.9,0.9-1.7,1.7-2.3,2.7V3.1h3.5V14.7z"/>
	</g>
	<g>
		<g>
			<g>
				<polygon class="st1" points="201.3,16.8 190.6,16.8 190.6,4.6 186.7,4.6 186.7,33.1 190.6,33.1 190.6,20.2 201.3,20.2 
					201.3,33.1 205.2,33.1 205.2,4.6 201.3,4.6 				"/>
				<path class="st1" d="M215.8,12.1c-2.6,0-4.6,0.9-6,2.6c-1.4,1.7-2.1,4.5-2.1,8.1c0,3.6,0.7,6.3,2,8c1.3,1.8,3.4,2.7,6.2,2.7
					c2.6,0,4.6-0.9,6-2.6c1.4-1.7,2.1-4.5,2.1-8.1c0-3.6-0.7-6.3-2-8C220.7,13,218.6,12.1,215.8,12.1z M212.7,17
					c0.7-1.2,1.7-1.7,3.1-1.7c0.7,0,1.4,0.2,1.9,0.5c0.5,0.4,1,0.9,1.3,1.5c0.3,0.7,0.6,1.5,0.8,2.4c0.2,0.9,0.2,2,0.2,3.1
					c0,2.7-0.4,4.7-1.1,5.8c-0.7,1.1-1.7,1.7-3.2,1.7c-0.8,0-1.4-0.2-1.9-0.5c-0.5-0.4-1-0.8-1.3-1.5c-0.3-0.7-0.6-1.5-0.8-2.4
					c-0.2-0.9-0.2-2-0.2-3.1C211.6,20.2,212,18.2,212.7,17z"/>
				<path class="st1" d="M241.3,30.1c-0.1-1-0.1-2-0.1-3V12.5h-3.8v14.1c-0.2,0.5-0.4,0.9-0.7,1.4c-0.3,0.5-0.6,0.9-1,1.2
					c-0.4,0.3-0.8,0.6-1.2,0.8c-0.4,0.2-0.9,0.3-1.5,0.3c-1.1,0-1.8-0.4-2.2-1.1c-0.4-0.8-0.6-2.2-0.6-4.2V12.5h-3.8v13.2
					c0,1.5,0.1,2.8,0.4,3.8c0.3,1,0.7,1.8,1.2,2.4c0.5,0.6,1.2,1,1.9,1.2c0.7,0.2,1.6,0.3,2.5,0.3c1.5,0,2.7-0.3,3.7-1
					c0.8-0.6,1.5-1.2,2-1.9l0.7,2.5h2.8l-0.1-0.4C241.5,32,241.4,31.1,241.3,30.1z"/>
				<path class="st1" d="M254.8,22.8c-0.6-0.6-1.3-1-2.1-1.5c-0.8-0.4-1.4-0.8-2-1.2c-0.6-0.4-1.1-0.8-1.5-1.2
					c-0.4-0.4-0.5-0.9-0.5-1.5c0-0.8,0.2-1.3,0.6-1.6c0.4-0.3,1.1-0.5,2.1-0.5c0.7,0,1.5,0.1,2.2,0.3c0.7,0.2,1.3,0.4,1.9,0.6
					l0.3,0.1l1-3l-0.2-0.1c-0.7-0.4-1.5-0.6-2.4-0.8c-0.9-0.2-2-0.3-3.2-0.3c-1.9,0-3.4,0.5-4.5,1.4c-1.1,0.9-1.6,2.3-1.6,4.1
					c0,1.1,0.2,2,0.7,2.8c0.4,0.7,1,1.4,1.6,1.9c0.6,0.5,1.3,1,2.1,1.3c0.7,0.3,1.4,0.7,2,1.2c0.6,0.4,1.1,0.9,1.5,1.4
					c0.4,0.5,0.5,1.1,0.5,1.9c0,0.9-0.3,1.5-0.9,1.9c-0.6,0.4-1.4,0.6-2.3,0.6c-0.8,0-1.6-0.1-2.4-0.3c-0.8-0.2-1.5-0.5-2-0.8
					l-0.3-0.2l-1.2,3.1l0.2,0.1c0.7,0.4,1.5,0.7,2.4,0.9c1,0.2,2.1,0.3,3.4,0.3c1.1,0,2.1-0.2,2.9-0.5c0.8-0.3,1.5-0.7,2.1-1.2
					c0.6-0.5,1-1.1,1.3-1.9c0.3-0.7,0.4-1.4,0.4-2.2c0-1.2-0.2-2.2-0.7-3C256,24,255.5,23.3,254.8,22.8z"/>
				<path class="st1" d="M274.2,16c-0.4-1.1-1-1.9-1.6-2.5c-0.7-0.6-1.5-1-2.3-1.2c-0.8-0.2-1.7-0.3-2.5-0.3c-2.6,0-4.7,0.9-6.1,2.8
					c-1.4,1.8-2.1,4.5-2.1,8c0,1.6,0.2,3.1,0.5,4.4c0.3,1.3,0.8,2.4,1.5,3.4c0.7,1,1.6,1.7,2.6,2.2c1,0.5,2.3,0.8,3.7,0.8
					c1.2,0,2.4-0.2,3.5-0.5c1.1-0.3,2.1-0.8,2.8-1.4l0.2-0.2l-1.5-2.7l-0.3,0.3c-0.4,0.3-0.9,0.6-1.7,0.9c-0.7,0.3-1.5,0.4-2.2,0.4
					c-1,0-1.8-0.2-2.4-0.5c-0.6-0.3-1.2-0.8-1.6-1.4c-0.4-0.6-0.7-1.4-0.9-2.3c-0.2-0.8-0.3-1.7-0.3-2.7h11.1l0-0.3
					c0.1-0.6,0.1-1.1,0.2-1.6c0-0.5,0.1-1,0.1-1.5C274.9,18.4,274.6,17.1,274.2,16z M263.6,20.4c0.2-1.7,0.6-3,1.3-3.9
					c0.7-0.9,1.7-1.3,3-1.3c1.1,0,1.9,0.4,2.5,1.3c0.6,0.8,0.9,2.1,0.9,3.9H263.6z"/>
			</g>
			<g>
				<path class="st1" d="M62.8,9c-0.9-1.2-2.2-2.2-3.6-2.9c-1.5-0.7-3.3-1-5.4-1c-0.5,0-1,0-1.6,0l-1.7,0c-0.6,0-1.1,0-1.7,0.1
					c-0.6,0-1.1,0.1-1.5,0.2l-0.2,0v27.7l0.2,0c0.3,0.1,0.7,0.1,1.2,0.1c0.5,0,1.1,0.1,1.7,0.1c0.6,0,1.2,0.1,1.8,0.1
					c0.6,0,1,0,1.4,0c2.3,0,4.2-0.4,5.7-1.2c1.5-0.8,2.8-1.9,3.7-3.2c0.9-1.3,1.6-2.9,2-4.6c0.4-1.7,0.6-3.6,0.6-5.4
					c0-2.1-0.2-4-0.6-5.7C64.4,11.7,63.7,10.3,62.8,9z M53.6,30.5c-0.1,0-0.4,0-0.7,0l-1.9-0.1c-0.2,0-0.3,0-0.4,0V8.4
					c0.1,0,0.3,0,0.5-0.1c0.3,0,0.6-0.1,0.9-0.1c0.3,0,0.6,0,0.9,0h0.9c1.6,0,2.8,0.3,3.8,0.9c1,0.6,1.8,1.4,2.3,2.4
					c0.6,1,1,2.2,1.2,3.5c0.2,1.3,0.3,2.7,0.3,4c0,1.5-0.1,3-0.4,4.4c-0.3,1.4-0.7,2.6-1.3,3.6c-0.6,1-1.4,1.8-2.4,2.4
					C56.5,30.2,55.2,30.5,53.6,30.5z"/>
				<path class="st1" d="M83.8,23.3c-0.6-0.5-1.3-1-2-1.4c-0.7-0.4-1.3-0.8-2-1.1c-0.6-0.4-1.1-0.8-1.5-1.2
					c-0.4-0.4-0.5-0.9-0.5-1.5c0-0.8,0.2-1.3,0.6-1.7c0.4-0.4,1.1-0.5,2.1-0.5c0.7,0,1.5,0.1,2.1,0.2c0.7,0.2,1.3,0.4,1.9,0.6
					l0.2,0.1l0.9-2.7L85.5,14c-0.6-0.3-1.4-0.6-2.3-0.8c-0.9-0.2-1.9-0.3-3.1-0.3c-1.8,0-3.3,0.4-4.3,1.3c-1,0.9-1.6,2.2-1.6,3.9
					c0,1.1,0.2,2,0.6,2.7c0.4,0.7,0.9,1.3,1.6,1.8c0.6,0.5,1.3,0.9,2,1.3c0.7,0.3,1.4,0.7,2,1.1c0.6,0.4,1.1,0.9,1.5,1.4
					c0.4,0.5,0.6,1.1,0.6,1.9c0,0.9-0.3,1.5-0.9,1.9c-0.6,0.4-1.4,0.6-2.3,0.6c-0.8,0-1.6-0.1-2.4-0.3c-0.8-0.2-1.4-0.5-2-0.8
					l-0.2-0.1l-1.1,2.8l0.1,0.1c0.6,0.4,1.4,0.7,2.4,0.9c0.9,0.2,2,0.3,3.3,0.3c1.1,0,2-0.1,2.8-0.4c0.8-0.3,1.5-0.7,2-1.2
					c0.6-0.5,1-1.1,1.2-1.8c0.3-0.7,0.4-1.4,0.4-2.1c0-1.1-0.2-2.1-0.6-2.9C85,24.5,84.5,23.8,83.8,23.3z"/>
				<path class="st1" d="M99.3,29.6c-0.4,0.3-0.9,0.6-1.5,0.8c-0.6,0.2-1.3,0.3-2,0.3c-0.9,0-1.7-0.2-2.3-0.6
					c-0.6-0.4-1.1-0.9-1.5-1.6c-0.4-0.7-0.7-1.5-0.8-2.4c-0.2-0.9-0.3-1.9-0.3-3c0-2.6,0.4-4.5,1.2-5.7c0.7-1.2,1.8-1.8,3.3-1.8
					c1.3,0,2.5,0.3,3.6,0.9l0.2,0.1l1-2.8l-0.2-0.1c-0.6-0.3-1.3-0.5-2.1-0.7c-0.8-0.2-1.8-0.3-2.9-0.3c-2.5,0-4.4,0.9-5.8,2.7
					c-1.3,1.8-2,4.4-2,7.7c0,1.5,0.1,3,0.4,4.2c0.3,1.3,0.7,2.4,1.3,3.3c0.6,0.9,1.4,1.6,2.4,2.1c1,0.5,2.2,0.7,3.6,0.7
					c1,0,2-0.1,2.9-0.4c0.9-0.2,1.8-0.6,2.5-1.1l0.1-0.1l-1.1-2.7L99.3,29.6z"/>
				<path class="st1" d="M108.7,12.8c-2.5,0-4.5,0.9-5.8,2.6c-1.4,1.7-2,4.3-2,7.9c0,3.5,0.6,6.1,1.9,7.8c1.3,1.7,3.3,2.6,6,2.6
					c2.5,0,4.4-0.8,5.8-2.5c1.4-1.7,2.1-4.3,2.1-7.9c0-3.5-0.6-6.1-1.9-7.8C113.4,13.7,111.4,12.8,108.7,12.8z M111.8,29
					c-0.7,1.2-1.8,1.7-3.2,1.7c-0.8,0-1.4-0.2-2-0.5c-0.5-0.4-1-0.9-1.3-1.5c-0.3-0.7-0.6-1.5-0.8-2.4c-0.2-0.9-0.2-2-0.2-3.1
					c0-2.6,0.4-4.6,1.1-5.8c0.7-1.2,1.8-1.7,3.2-1.7c0.8,0,1.4,0.2,2,0.5c0.5,0.4,1,0.9,1.3,1.5c0.3,0.7,0.6,1.5,0.8,2.4
					c0.2,0.9,0.2,2,0.2,3.1C112.9,25.9,112.6,27.9,111.8,29z"/>
				<path class="st1" d="M145.3,14.3c-0.7-0.6-1.4-1-2.2-1.1c-0.8-0.2-1.6-0.3-2.4-0.3c-2.5,0-4.5,0.9-5.9,2.7
					c-1.4,1.8-2.1,4.4-2.1,7.7c0,1.6,0.2,3,0.5,4.3c0.3,1.3,0.8,2.4,1.5,3.3c0.7,0.9,1.5,1.6,2.5,2.1c1,0.5,2.2,0.7,3.6,0.7
					c1.2,0,2.3-0.2,3.4-0.5c1.1-0.3,2-0.8,2.7-1.4l0.1-0.1l-1.3-2.4l-0.2,0.2c-0.4,0.3-0.9,0.6-1.7,0.9c-0.7,0.2-1.5,0.4-2.2,0.4
					c-1,0-1.8-0.2-2.4-0.5c-0.6-0.3-1.2-0.8-1.6-1.4c-0.4-0.6-0.7-1.4-0.9-2.3c-0.2-0.8-0.3-1.8-0.3-2.8h10.9l0-0.2
					c0.1-0.5,0.1-1.1,0.1-1.6c0-0.5,0.1-1,0.1-1.4c0-1.6-0.2-2.9-0.6-3.9C146.5,15.6,146,14.8,145.3,14.3z M136.4,21
					c0.2-1.8,0.6-3.1,1.3-4c0.7-0.9,1.7-1.3,3-1.3c1.1,0,1.9,0.4,2.5,1.3c0.6,0.8,0.9,2.2,0.9,4H136.4z"/>
				<path class="st1" d="M154.2,13.6c-0.6,0.4-1.1,0.9-1.5,1.6l-0.5-1.9h-2.5v19.9h3.5l0-14.5c0.2-0.8,0.5-1.4,1.1-1.8
					c0.9-0.7,2.2-0.9,4-0.3l0.2,0.1l0.7-3.2l-0.2,0C157,12.7,155.4,12.9,154.2,13.6z"/>
				<path class="st1" d="M161.8,41.9l-1.4-3l0.2-0.1c1-0.5,2-1.3,2.9-2.4c0.9-1,1.6-2.4,1.9-3.2c0.2-0.5,0.2-0.7,0.2-0.9
					c0-0.2,0-0.5-0.1-0.7l-5.3-18.4h3.9l2.8,11.4c0.3,1.1,0.5,2,0.6,2.9c0,0.1,0.1,0.3,0.1,0.4c0.2-0.9,0.5-2.1,0.7-3.3l2.5-11.4
					h3.7l-3.5,12.8c-1.2,4.8-2.7,9.6-5.2,12.7c-1.7,2.1-3.5,2.9-3.8,3.1L161.8,41.9z"/>
				<g>
					<rect x="68.1" y="13.3" class="st1" width="3.5" height="19.9"/>
					<g>
						<path class="st1" d="M69.9,10.3c-1.5,0-2.8-1.2-2.8-2.7c0-1.5,1.2-2.7,2.8-2.7c1.5,0,2.8,1.2,2.8,2.7
							C72.6,9.1,71.4,10.3,69.9,10.3"/>
					</g>
				</g>
				<polygon class="st1" points="129.4,13.3 124.9,27 120.2,13.4 120.2,13.3 116.2,13.3 123.8,33.5 123.8,33.7 125.6,33.7 
					133.1,13.3 				"/>
			</g>
		</g>
		<g>
			<path class="st1" d="M281.1,29.4c0,0.2-0.1,0.3-0.2,0.4c-0.1,0.1-0.3,0.1-0.6,0.1h-0.4V29c0,0,0.1,0,0.2-0.1c0.1,0,0.2,0,0.3,0
				C280.9,28.9,281.1,29.1,281.1,29.4 M279.2,31.8h0.7v-1.5l0.6,0.2l0.9,1.3h0.8l-1-1.4l-0.4-0.2c0.3,0,0.5-0.1,0.7-0.2
				c0.2-0.1,0.3-0.4,0.3-0.6c0-0.4-0.1-0.6-0.4-0.8c-0.3-0.1-0.6-0.2-0.9-0.2c-0.2,0-0.5,0-0.7,0c-0.2,0-0.4,0.1-0.6,0.1V31.8z
				 M278.1,29c0.1-0.3,0.3-0.6,0.5-0.8c0.2-0.2,0.5-0.4,0.8-0.5c0.3-0.1,0.7-0.2,1-0.2c0.4,0,0.7,0.1,1,0.2c0.3,0.1,0.6,0.3,0.8,0.5
				c0.2,0.2,0.4,0.5,0.6,0.8c0.1,0.3,0.2,0.7,0.2,1.2c0,0.5-0.1,0.9-0.2,1.2c-0.1,0.3-0.3,0.6-0.5,0.8c-0.2,0.2-0.5,0.4-0.8,0.5
				c-0.3,0.1-0.7,0.2-1,0.2c-0.3,0-0.7-0.1-1-0.2c-0.3-0.1-0.6-0.3-0.8-0.5c-0.2-0.2-0.4-0.5-0.6-0.8c-0.1-0.3-0.2-0.7-0.2-1.2
				C277.9,29.7,278,29.3,278.1,29 M277.4,31.6c0.2,0.4,0.4,0.8,0.7,1.1c0.3,0.3,0.7,0.5,1.1,0.7c0.4,0.2,0.9,0.2,1.3,0.2
				c0.5,0,0.9-0.1,1.3-0.2c0.4-0.2,0.8-0.4,1.1-0.7c0.3-0.3,0.6-0.6,0.7-1.1c0.2-0.4,0.3-0.9,0.3-1.5c0-0.5-0.1-1-0.3-1.5
				c-0.2-0.4-0.4-0.8-0.7-1.1c-0.3-0.3-0.7-0.5-1.1-0.7c-0.4-0.2-0.9-0.2-1.3-0.2c-0.5,0-0.9,0.1-1.3,0.2c-0.4,0.2-0.8,0.4-1.1,0.7
				c-0.3,0.3-0.6,0.6-0.7,1.1c-0.2,0.4-0.3,0.9-0.3,1.5C277.1,30.7,277.2,31.2,277.4,31.6"/>
		</g>
	</g>
</g>
</svg>
