<?xml version="1.0" encoding="utf-8"?>
<!-- Generator: Adobe Illustrator 19.0.0, SVG Export Plug-In . SVG Version: 6.00 Build 0)  -->
<svg version="1.1" id="Layer_1" xmlns="http://www.w3.org/2000/svg" xmlns:xlink="http://www.w3.org/1999/xlink" x="0px" y="0px"
	 viewBox="122.4 362.7 304.7 67.8" style="enable-background:new 122.4 362.7 304.7 67.8;" xml:space="preserve">
<style type="text/css">
	.st0{fill:#c2c5ca;}
</style>
<g>
	<g>
		<path class="st0" d="M156.3,362.7c-18.7,0-33.9,15.2-33.9,33.9c0,16.1,11.3,29.6,26.4,33c-0.1-0.9-0.1-1.9-0.1-2.8
			c0-17.8,9.8-34.1,25.5-42.6l3,5.7c-13.6,7.3-22.1,21.5-22.1,36.9c0,1.2,0.1,2.4,0.2,3.7c0.3,0,0.7,0,1,0c0.5,0,0.9,0,1.3,0
			c-0.1-1.2-0.2-2.4-0.2-3.7c0-6.6,1.6-12.8,4.7-18.4c2.9-5.3,7.2-9.9,12.4-13.3l3.1,4.7c-4.4,2.9-8.1,6.8-10.6,11.3
			c-2.6,4.7-4,10-4,15.6c0,1,0,2,0.1,3c15.4-3.2,26.9-16.8,26.9-33.1C190.1,377.9,175,362.7,156.3,362.7z M147.4,416.7
			c-3.2-4.7-7.6-8.4-12.9-10.9l2.3-5.1c4.9,2.2,9.1,5.3,12.5,9.2C148.5,412.1,147.9,414.4,147.4,416.7z M150.4,407.1
			c0,0.1-0.1,0.2-0.1,0.3c-4.6-5.1-10.3-9.1-16.8-11.4l2.2-6c6.7,2.5,12.7,6.3,17.6,11.3C152.3,403.1,151.3,405,150.4,407.1z
			 M154.4,399.2c-1.7-1.8-3.6-3.4-5.8-4.8v-18h5.8V399.2z M163.1,388.9c0,0-1.4,1.4-2.1,2.1c-1.5,1.5-2.9,3.1-4.1,4.8v-27.2h6.3
			L163.1,388.9L163.1,388.9z"/>
	</g>
</g>
<g>
	<path class="st0" d="M208.2,411.2c-0.7,0-1.3,0.2-1.7,0.7s-0.6,1.2-0.6,2.3v0.4H205v1.8h0.9v6.4h2.1v-6.4h1.4v-1.8H208
		c0-0.6,0-0.9,0.1-1.2c0.1-0.2,0.3-0.3,0.5-0.3s0.3,0,0.5,0c0.1,0,0.3,0.1,0.5,0.1h0.1l0.4-1.7v-0.1l0,0
		C209.5,411.3,208.9,411.2,208.2,411.2z"/>
	<path class="st0" d="M213.8,414.4c-0.4,0-0.7,0.1-1,0.3s-0.5,0.5-0.6,0.8l-0.2-0.9l0,0h-1.6v8.3h2.1v-5.5c0.1-0.3,0.2-0.5,0.4-0.6
		c0.4-0.3,0.8-0.3,1.4-0.1h0.1l0.2-2l0,0l0,0C214.4,414.5,214.1,414.4,213.8,414.4z"/>
	<path class="st0" d="M218.7,414.4c-1,0-1.8,0.4-2.4,1.1c-0.6,0.7-0.9,1.8-0.9,3.3c0,2.9,1.1,4.4,3.3,4.4c1,0,1.9-0.4,2.4-1.1
		c0.6-0.7,0.9-1.8,0.9-3.3c0-1.4-0.3-2.5-0.8-3.3S219.8,414.4,218.7,414.4z M219.6,420.7c-0.2,0.4-0.5,0.5-0.9,0.5s-0.7-0.2-0.9-0.6
		c-0.2-0.4-0.3-1.1-0.3-1.9c0-0.9,0.1-1.6,0.3-2c0.2-0.4,0.5-0.6,0.8-0.6c0.4,0,0.7,0.2,0.9,0.6c0.2,0.4,0.3,1.1,0.3,1.9
		C219.9,419.6,219.8,420.3,219.6,420.7z M215.6,417.7L215.6,417.7L215.6,417.7z M216,416.3c0-0.1,0.1-0.2,0.1-0.3
		C216.1,416.1,216,416.2,216,416.3z"/>
	<path class="st0" d="M232.6,415c-0.2-0.2-0.4-0.4-0.7-0.5c-0.3-0.1-0.6-0.1-0.9-0.1c-0.5,0-0.9,0.1-1.2,0.3s-0.6,0.5-0.8,0.8
		c-0.2-0.4-0.4-0.7-0.6-0.9c-0.3-0.2-0.6-0.3-1.1-0.3s-0.9,0.1-1.3,0.3c-0.3,0.2-0.5,0.5-0.7,0.8l-0.2-0.9h-1.6v8.3h2.1V417
		c0.1-0.2,0.2-0.4,0.4-0.6s0.4-0.2,0.6-0.2c0.3,0,0.5,0.1,0.6,0.4s0.2,0.7,0.2,1.4v4.8h2.1V417c0.1-0.3,0.2-0.5,0.4-0.6
		c0.2-0.1,0.4-0.2,0.6-0.2c0.3,0,0.5,0.1,0.6,0.4s0.1,0.7,0.1,1.2v5h2.1v-5.4c0-0.6,0-1.1-0.1-1.5
		C232.9,415.6,232.8,415.3,232.6,415z"/>
	<path class="st0" d="M245,412.7c-0.3-0.5-0.8-0.9-1.3-1.2c-0.5-0.3-1.1-0.4-1.9-0.4c-1.4,0-2.4,0.5-3.1,1.5c-0.7,1-1,2.5-1,4.5
		c0,0.9,0.1,1.7,0.2,2.5c0.2,0.7,0.4,1.4,0.7,1.9s0.8,0.9,1.3,1.2s1.1,0.4,1.9,0.4c1.4,0,2.4-0.5,3.1-1.5s1-2.5,1-4.5
		c0-0.9-0.1-1.7-0.2-2.5C245.6,413.9,245.3,413.2,245,412.7z M243.2,420.2c-0.3,0.6-0.8,0.9-1.4,0.9c-0.3,0-0.6-0.1-0.8-0.3
		c-0.2-0.2-0.4-0.5-0.6-0.8s-0.3-0.8-0.3-1.3c-0.1-0.5-0.1-1-0.1-1.6c0-2.6,0.6-4,1.8-4c0.3,0,0.6,0.1,0.9,0.3
		c0.2,0.2,0.4,0.5,0.6,0.8c0.1,0.4,0.3,0.8,0.3,1.3c0.1,0.5,0.1,1,0.1,1.6C243.7,418.5,243.5,419.5,243.2,420.2z M238,418.5
		c0-0.1,0-0.1,0-0.2C237.9,418.3,237.9,418.4,238,418.5z"/>
	<path class="st0" d="M253.6,421.6c0-0.4,0-0.9,0-1.3v-5.7h-2.1v5.5c-0.1,0.3-0.2,0.6-0.4,0.8c-0.2,0.2-0.4,0.3-0.7,0.3
		s-0.5-0.1-0.6-0.3c-0.1-0.2-0.2-0.7-0.2-1.3v-4.9h-2.1v5.4c0,0.6,0,1.1,0.2,1.5c0.1,0.4,0.2,0.7,0.4,1c0.2,0.2,0.4,0.4,0.7,0.5
		c0.3,0.1,0.6,0.1,0.9,0.1c0.5,0,1-0.1,1.4-0.4c0.3-0.2,0.6-0.5,0.8-0.9l0.3,1l0,0h1.6v-0.1C253.7,422.4,253.7,422.1,253.6,421.6z"
		/>
	<path class="st0" d="M258.7,414.4c-0.4,0-0.7,0.1-1,0.3s-0.5,0.5-0.6,0.8l-0.2-0.9l0,0h-1.6v8.3h2.1v-5.5c0.1-0.3,0.2-0.5,0.4-0.6
		c0.3-0.3,0.8-0.3,1.4-0.1h0.1l0.2-2l0,0l0,0C259.3,414.5,259,414.4,258.7,414.4z"/>
	<path class="st0" d="M270.5,412.8c-0.4-0.5-0.9-0.9-1.5-1.2c-0.6-0.3-1.4-0.4-2.3-0.4c-0.2,0-0.4,0-0.6,0s-0.5,0-0.7,0
		c-0.3,0-0.5,0-0.8,0c-0.2,0-0.5,0-0.7,0.1l0,0v11.5l0,0c0.1,0,0.3,0,0.6,0.1c0.2,0,0.5,0,0.8,0s0.5,0,0.8,0c0.2,0,0.4,0,0.6,0
		c1,0,1.8-0.2,2.4-0.5s1.2-0.8,1.5-1.3c0.4-0.5,0.6-1.2,0.8-1.9c0.2-0.7,0.2-1.5,0.2-2.3c0-0.9-0.1-1.7-0.2-2.4
		C271.1,413.9,270.8,413.3,270.5,412.8z M268,420.7c-0.3,0.2-0.7,0.3-1.2,0.3c0,0-0.1,0-0.2,0s-0.2,0-0.3,0c-0.1,0-0.2,0-0.2,0l0,0
		c-0.1,0-0.1,0-0.1,0v-7.8c0.1,0,0.2,0,0.4,0c0.2,0,0.4,0,0.5,0c0.5,0,0.9,0.1,1.2,0.3c0.3,0.2,0.5,0.5,0.7,0.8s0.3,0.8,0.3,1.2
		c0.1,0.5,0.1,1,0.1,1.4c0,0.5,0,1.1-0.1,1.6s-0.2,0.9-0.4,1.3C268.6,420.2,268.3,420.5,268,420.7z M271.3,415.7c0,0.1,0,0.1,0,0.2
		C271.3,415.8,271.3,415.7,271.3,415.7z"/>
	<path class="st0" d="M278.4,421.6c0-0.4,0-0.9,0-1.4c0-0.6,0-1,0.1-1.5c0-0.5,0-1,0-1.5c0-0.9-0.2-1.6-0.6-2.1s-1-0.7-2-0.7
		c-0.6,0-1.2,0.1-1.7,0.2c-0.5,0.1-0.9,0.3-1.2,0.5l0,0l0.5,1.6h0.1c0.3-0.1,0.6-0.2,0.9-0.3s0.7-0.1,1-0.1c0.4,0,0.7,0.1,0.8,0.4
		c0.1,0.3,0.2,0.7,0.1,1.3c-0.1,0-0.3,0-0.4,0c-1,0-1.8,0.2-2.4,0.5c-0.7,0.4-1.1,1.1-1.1,2.1c0,0.7,0.2,1.3,0.6,1.8
		c0.4,0.4,0.9,0.7,1.6,0.7c0.5,0,0.9-0.1,1.2-0.3c0.3-0.2,0.6-0.5,0.7-0.8l0.3,0.9l0,0h1.7v-0.1C278.5,422.4,278.4,422,278.4,421.6z
		 M274.8,419.7c0.1-0.1,0.2-0.2,0.4-0.3c0.2-0.1,0.4-0.1,0.6-0.1c0.1,0,0.2,0,0.3,0c0.1,0,0.3,0,0.4,0v1.3c-0.1,0.2-0.2,0.3-0.4,0.5
		c-0.2,0.1-0.4,0.2-0.7,0.2c-0.2,0-0.4-0.1-0.5-0.2c-0.1-0.2-0.2-0.4-0.2-0.7C274.7,420,274.7,419.8,274.8,419.7z"/>
	<path class="st0" d="M291.3,419v0.3c0,0.2-0.1,0.5-0.1,0.7c-0.1-0.3-0.1-0.7-0.2-1.1l-0.8-4.1l0,0h-2.4l2.2,7.5l0,0l0,0
		c0,0.1,0.1,0.2,0.1,0.3s0,0.2-0.1,0.3v0.1c-0.1,0.3-0.4,0.7-0.7,0.9c-0.4,0.3-0.7,0.5-1,0.7h-0.1l0.7,1.9v0.1h0.1
		c0.4-0.1,1.2-0.5,1.8-1.3c0.9-1.1,1.4-2.8,1.8-4.1l1.6-6.2v-0.1H292L291.3,419z"/>
	<path class="st0" d="M304.8,417.6c-0.2-0.2-0.4-0.4-0.6-0.5c-0.2-0.1-0.5-0.2-0.7-0.3l0,0c0.3-0.1,0.5-0.2,0.7-0.4s0.4-0.4,0.5-0.7
		c0.1-0.2,0.2-0.5,0.3-0.8c0.1-0.3,0.1-0.6,0.1-0.9c0-0.6-0.1-1.1-0.3-1.4c-0.2-0.4-0.5-0.7-0.8-0.9c-0.3-0.2-0.7-0.4-1.2-0.4
		c-0.4-0.1-0.9-0.1-1.4-0.1s-1,0-1.6,0.1c-0.5,0-1,0.1-1.3,0.2l0,0v11.4l0,0c0.2,0.1,0.5,0.1,0.8,0.2c0.3,0,0.6,0.1,0.9,0.1
		s0.5,0,0.8,0h0.6c0.5,0,1-0.1,1.5-0.2c0.5-0.1,0.9-0.3,1.2-0.6c0.3-0.3,0.6-0.6,0.8-1.1c0.2-0.4,0.3-1,0.3-1.6
		c0-0.4-0.1-0.8-0.2-1.2C305.1,418.1,305,417.8,304.8,417.6z M301.6,421.1c-0.2,0-0.4,0-0.6,0s-0.3,0-0.4-0.1v-3.1h0.8
		c0.2,0,0.4,0,0.7,0c0.2,0,0.4,0.1,0.5,0.2c0.2,0.1,0.3,0.3,0.4,0.5s0.1,0.5,0.1,0.8c0,0.5-0.1,1-0.4,1.2
		C302.4,421,302,421.1,301.6,421.1z M302.6,415.5c-0.2,0.3-0.5,0.5-0.8,0.6c-0.1,0-0.2,0-0.4,0.1c-0.2,0-0.3,0-0.4,0h-0.4v-3.1
		c0.2,0,0.5-0.1,0.9-0.1c0.2,0,0.4,0,0.6,0.1c0.2,0,0.3,0.1,0.4,0.2c0.1,0.1,0.2,0.2,0.3,0.4c0.1,0.2,0.1,0.4,0.1,0.7
		C302.9,414.9,302.8,415.3,302.6,415.5z"/>
	<path class="st0" d="M310.3,414.4c-0.4,0-0.7,0.1-1,0.3s-0.5,0.5-0.6,0.8l-0.2-0.9l0,0h-1.6v8.3h2.1v-5.5c0.1-0.3,0.2-0.5,0.4-0.6
		c0.3-0.3,0.8-0.3,1.4-0.1h0.1l0.2-2l0,0l0,0C310.8,414.5,310.6,414.4,310.3,414.4z"/>
	<path class="st0" d="M317.2,415c-0.3-0.3-0.6-0.4-0.9-0.5c-0.3-0.1-0.7-0.2-1-0.2c-1,0-1.9,0.4-2.5,1.1s-0.9,1.8-0.9,3.3
		c0,0.7,0.1,1.3,0.2,1.8s0.3,1,0.6,1.4c0.3,0.4,0.6,0.7,1,0.9s0.9,0.3,1.5,0.3c0.5,0,1-0.1,1.5-0.2c0.5-0.2,0.9-0.4,1.1-0.6l0,0
		l-0.7-1.5H317c-0.1,0.1-0.4,0.2-0.6,0.3c-0.3,0.1-0.6,0.2-0.9,0.2c-0.6,0-1-0.2-1.2-0.5s-0.4-0.8-0.4-1.5h4l0,0
		c0.1-0.3,0.1-0.6,0.1-0.9s0-0.5,0-0.8c0-0.6-0.1-1.2-0.2-1.6C317.7,415.6,317.4,415.3,317.2,415z M315.2,416.1
		c0.3,0,0.6,0.1,0.7,0.5c0.1,0.3,0.2,0.7,0.2,1.3H314c0-0.6,0.2-1,0.3-1.3C314.5,416.3,314.8,416.1,315.2,416.1z"/>
	<path class="st0" d="M325,421.6c0-0.4,0-0.9,0-1.4c0-0.6,0-1,0.1-1.5c0-0.5,0-1,0-1.5c0-0.9-0.2-1.6-0.6-2.1s-1-0.7-2-0.7
		c-0.6,0-1.2,0.1-1.7,0.2c-0.5,0.1-0.9,0.3-1.2,0.5l0,0l0.5,1.6h0.1c0.3-0.1,0.6-0.2,0.9-0.3s0.7-0.1,1-0.1c0.4,0,0.7,0.1,0.8,0.4
		c0.1,0.3,0.2,0.7,0.1,1.3c-0.1,0-0.3,0-0.4,0c-1,0-1.8,0.2-2.4,0.5c-0.7,0.4-1.1,1.1-1.1,2.1c0,0.7,0.2,1.3,0.6,1.8
		c0.4,0.4,0.9,0.7,1.6,0.7c0.5,0,0.9-0.1,1.2-0.3c0.3-0.2,0.6-0.5,0.7-0.8l0.3,0.9l0,0h1.7v-0.1C325.1,422.4,325,422,325,421.6z
		 M321.4,419.7c0.1-0.1,0.2-0.2,0.4-0.3c0.2-0.1,0.4-0.1,0.6-0.1c0.1,0,0.2,0,0.3,0c0.1,0,0.3,0,0.4,0v1.3c-0.1,0.2-0.2,0.3-0.4,0.5
		c-0.2,0.1-0.4,0.2-0.7,0.2c-0.2,0-0.4-0.1-0.5-0.2c-0.1-0.2-0.2-0.4-0.2-0.7C321.2,420,321.3,419.8,321.4,419.7z"/>
	<path class="st0" d="M332.7,421.3c0-0.4,0-0.9,0-1.4v-8.6h-2.1v3.3c-0.1-0.1-0.3-0.1-0.4-0.1c-0.2,0-0.4,0-0.7,0
		c-1,0-1.8,0.4-2.3,1.1s-0.8,1.9-0.8,3.3c0,1.5,0.2,2.6,0.7,3.2c0.5,0.7,1.2,1,2,1c0.2,0,0.3-0.1,0.5-0.1c0.1,0,0.2,0,0.3-0.1
		c0.3-0.1,0.5-0.2,0.7-0.4c0.1-0.1,0.2-0.2,0.2-0.3c0.1-0.1,0.2-0.2,0.3-0.3l0.2,0.9l0,0h1.5v-0.1
		C332.8,422.3,332.8,421.8,332.7,421.3z M330.7,416.5v3.8c-0.1,0.3-0.2,0.5-0.4,0.6c-0.2,0.1-0.4,0.2-0.7,0.2
		c-0.4,0-0.6-0.2-0.8-0.6c-0.2-0.4-0.3-1-0.3-1.7c0-1,0.1-1.7,0.3-2.1c0.2-0.4,0.5-0.6,0.9-0.6c0.2,0,0.4,0,0.5,0.1
		C330.5,416.4,330.6,416.5,330.7,416.5z"/>
	<polygon class="st0" points="342.6,417 339.8,411.3 339.8,411.3 337.7,411.3 337.7,422.9 339.8,422.9 339.8,416.1 342,420.7 
		342.1,420.8 342.8,420.8 345,416 345,422.9 347.2,422.9 347.2,411.3 345.2,411.3 	"/>
	<path class="st0" d="M358.7,415c-0.2-0.2-0.4-0.4-0.7-0.5c-0.3-0.1-0.6-0.1-0.9-0.1c-0.6,0-1,0.1-1.4,0.3c-0.3,0.2-0.6,0.5-0.8,0.8
		l-0.2-0.9H353v8.3h2.1v-5.7c0.1-0.2,0.2-0.5,0.4-0.6c0.2-0.2,0.4-0.2,0.7-0.2c0.3,0,0.5,0.1,0.7,0.3c0.1,0.2,0.2,0.6,0.2,1.2v5h2.1
		v-5.5c0-0.6,0-1-0.1-1.4C359,415.6,358.8,415.3,358.7,415z"/>
	<path class="st0" d="M368.9,418.6c-0.2-0.2-0.5-0.4-0.7-0.5c-0.3-0.1-0.5-0.3-0.7-0.4c-0.2-0.1-0.4-0.3-0.5-0.4
		c-0.1-0.1-0.2-0.3-0.2-0.5c0-0.4,0.2-0.6,0.7-0.6c0.3,0,0.6,0,0.9,0.1c0.3,0.1,0.5,0.2,0.7,0.2h0.1l0.5-1.6l0,0
		c-0.3-0.2-0.6-0.3-1-0.4c-0.4-0.1-0.9-0.2-1.4-0.2c-0.8,0-1.4,0.2-1.9,0.6c-0.4,0.4-0.6,1-0.6,1.8c0,0.5,0.1,0.8,0.2,1.1
		c0.1,0.3,0.3,0.6,0.6,0.8c0.2,0.2,0.5,0.4,0.7,0.5c0.3,0.1,0.5,0.3,0.7,0.4c0.2,0.1,0.4,0.3,0.5,0.4c0.1,0.1,0.2,0.3,0.2,0.5
		s-0.1,0.4-0.2,0.5c-0.2,0.1-0.4,0.2-0.6,0.2c-0.3,0-0.6,0-0.9-0.1c-0.3-0.1-0.6-0.2-0.8-0.3h-0.1l-0.6,1.6l0,0l0,0
		c0.3,0.2,0.6,0.3,1.1,0.4c0.4,0.1,0.9,0.2,1.3,0.2c0.9,0,1.6-0.2,2.1-0.7s0.7-1.1,0.7-1.9c0-0.5-0.1-0.8-0.2-1.2
		C369.3,419.1,369.1,418.8,368.9,418.6z"/>
	<path class="st0" d="M375,421c-0.2,0.1-0.3,0.1-0.4,0.1s-0.3,0-0.4,0c-0.2,0-0.4-0.1-0.4-0.3c-0.1-0.2-0.1-0.5-0.1-1v-3.5h1.6v-1.8
		h-1.6v-2.2l-2,0.6l0,0v1.5h-0.9v1.8h0.9v4.2c0,0.9,0.2,1.5,0.5,1.9c0.3,0.4,0.8,0.6,1.4,0.6c0.3,0,0.7,0,1-0.1
		c0.3-0.1,0.6-0.2,0.8-0.3l0,0L375,421L375,421z"/>
	<path class="st0" d="M379.9,414.4c-0.4,0-0.7,0.1-1,0.3s-0.5,0.5-0.6,0.8l-0.2-0.9l0,0h-1.6v8.3h2.1v-5.5c0.1-0.3,0.2-0.5,0.4-0.6
		c0.3-0.3,0.8-0.3,1.4-0.1h0.1l0.2-2l0,0l0,0C380.4,414.5,380.1,414.4,379.9,414.4z"/>
	<path class="st0" d="M390.8,415c-0.3-0.3-0.6-0.4-0.9-0.5c-0.3-0.1-0.7-0.2-1-0.2c-1,0-1.9,0.4-2.5,1.1s-0.9,1.8-0.9,3.3
		c0,0.7,0.1,1.3,0.2,1.8s0.3,1,0.6,1.4c0.3,0.4,0.6,0.7,1,0.9s0.9,0.3,1.5,0.3c0.5,0,1-0.1,1.5-0.2c0.5-0.2,0.9-0.4,1.1-0.6l0,0
		l-0.7-1.5h-0.1c-0.1,0.1-0.4,0.2-0.6,0.3c-0.3,0.1-0.6,0.2-0.9,0.2c-0.6,0-1-0.2-1.2-0.5s-0.4-0.8-0.4-1.5h4l0,0
		c0.1-0.3,0.1-0.6,0.1-0.9s0-0.5,0-0.8c0-0.6-0.1-1.2-0.2-1.6C391.3,415.6,391.1,415.3,390.8,415z M388.8,416.1
		c0.3,0,0.6,0.1,0.7,0.5c0.2,0.3,0.2,0.7,0.2,1.3h-2.1c0-0.6,0.2-1,0.3-1.3C388.2,416.3,388.4,416.1,388.8,416.1z"/>
	<path class="st0" d="M397.8,419.4c-0.2-0.3-0.3-0.6-0.6-0.8c-0.2-0.2-0.5-0.4-0.7-0.5c-0.3-0.1-0.5-0.3-0.7-0.4
		c-0.2-0.1-0.4-0.3-0.5-0.4c-0.1-0.1-0.2-0.3-0.2-0.5c0-0.4,0.2-0.6,0.7-0.6c0.3,0,0.6,0,0.8,0.1c0.3,0.1,0.5,0.2,0.7,0.2h0.1
		l0.5-1.6l0,0c-0.3-0.2-0.6-0.3-1-0.4c-0.4-0.1-0.9-0.2-1.4-0.2c-0.8,0-1.4,0.2-1.9,0.6c-0.4,0.4-0.6,1-0.6,1.8
		c0,0.5,0.1,0.8,0.2,1.1c0.1,0.3,0.3,0.6,0.6,0.8c0.2,0.2,0.5,0.4,0.7,0.5c0.3,0.1,0.5,0.3,0.7,0.4c0.2,0.1,0.4,0.3,0.5,0.4
		c0.1,0.1,0.2,0.3,0.2,0.5s-0.1,0.4-0.2,0.5c-0.2,0.1-0.3,0.2-0.6,0.2c-0.3,0-0.6,0-0.9-0.1c-0.3-0.1-0.6-0.2-0.8-0.3h-0.1l-0.6,1.6
		l0,0l0,0c0.3,0.2,0.6,0.3,1.1,0.4c0.4,0.1,0.9,0.2,1.3,0.2c0.9,0,1.6-0.2,2.1-0.7s0.7-1.1,0.7-1.9C398,420.1,398,419.7,397.8,419.4
		z"/>
	<path class="st0" d="M286.9,421.5c0,0-0.4-0.2-0.6-0.7c-0.1-0.2-0.1-0.9-0.1-1.2v-8.3h-2v8.2c0,0.8,0,1.9,0.4,2.5
		c0.5,0.7,1.3,1.2,1.3,1.2l0.3,0.2l1.1-1.5L286.9,421.5z"/>
	<g>
		<g>
			<path class="st0" d="M282.4,422.9h-2.1v-8.3h2.1V422.9z"/>
		</g>
		<path class="st0" d="M282.6,412.4c0,0.7-0.6,1.3-1.3,1.3c-0.7,0-1.3-0.6-1.3-1.3c0-0.7,0.6-1.3,1.3-1.3S282.6,411.7,282.6,412.4z"
			/>
	</g>
	<g>
		<g>
			<path class="st0" d="M351.3,422.9h-2.1v-8.3h2.1V422.9z"/>
		</g>
		<circle class="st0" cx="350.2" cy="412.3" r="1.3"/>
	</g>
	<g>
		<g>
			<path class="st0" d="M363.1,422.9H361v-8.3h2.1V422.9z"/>
		</g>
		<path class="st0" d="M363.3,412.3c0,0.7-0.6,1.3-1.3,1.3c-0.7,0-1.3-0.6-1.3-1.3s0.6-1.3,1.3-1.3
			C362.7,411.1,363.3,411.6,363.3,412.3z"/>
	</g>
	<g>
		<g>
			<path class="st0" d="M384,422.9h-2.1v-8.3h2.1V422.9z"/>
		</g>
		<path class="st0" d="M384.2,412.3c0,0.7-0.6,1.3-1.3,1.3c-0.7,0-1.3-0.6-1.3-1.3s0.6-1.3,1.3-1.3
			C383.6,411.1,384.2,411.6,384.2,412.3z"/>
	</g>
</g>
<g>
	<g>
		<g>
			<g>
				<g>
					<polygon class="st0" points="349.6,383.9 339.5,383.9 339.5,372.3 335.9,372.3 335.9,399.1 339.5,399.1 339.5,387 349.6,387 
						349.6,399.1 353.2,399.1 353.2,372.3 349.6,372.3 					"/>
					<path class="st0" d="M363.2,379.4c-2.4,0-4.3,0.8-5.7,2.5c-1.3,1.6-2,4.2-2,7.6c0,3.3,0.6,5.9,1.8,7.5c1.2,1.7,3.2,2.5,5.8,2.5
						c2.4,0,4.3-0.8,5.7-2.5c1.3-1.6,2-4.2,2-7.6c0-3.3-0.6-5.9-1.8-7.5C367.8,380.2,365.8,379.4,363.2,379.4z M360.3,384
						c0.7-1.1,1.6-1.6,2.9-1.6c0.7,0,1.3,0.2,1.8,0.5s0.9,0.8,1.2,1.4c0.3,0.6,0.6,1.4,0.7,2.2c0.1,0.9,0.2,1.9,0.2,2.9
						c0,2.5-0.3,4.4-1,5.5c-0.7,1.1-1.6,1.6-3,1.6c-0.7,0-1.3-0.2-1.8-0.5s-0.9-0.8-1.2-1.4c-0.3-0.6-0.6-1.4-0.7-2.2
						c-0.1-0.9-0.2-1.9-0.2-2.9C359.2,386.9,359.6,385.1,360.3,384z"/>
					<path class="st0" d="M387.1,396.2c-0.1-0.9-0.1-1.9-0.1-2.8v-13.7h-3.5V393c-0.2,0.4-0.4,0.9-0.6,1.3c-0.3,0.4-0.6,0.8-0.9,1.1
						c-0.3,0.3-0.7,0.6-1.1,0.8s-0.9,0.3-1.4,0.3c-1,0-1.7-0.3-2.1-1.1c-0.4-0.8-0.6-2.1-0.6-3.9v-11.7h-3.5v12.4
						c0,1.4,0.1,2.6,0.4,3.6c0.2,1,0.6,1.7,1.1,2.3s1.1,1,1.8,1.2c0.7,0.2,1.5,0.3,2.4,0.3c1.4,0,2.5-0.3,3.5-1
						c0.8-0.5,1.4-1.1,1.8-1.8l0.7,2.3h2.7l-0.1-0.3C387.3,398,387.2,397.2,387.1,396.2z"/>
					<path class="st0" d="M399.7,389.4c-0.6-0.5-1.3-1-2-1.4c-0.7-0.4-1.3-0.7-1.9-1.1c-0.6-0.3-1-0.7-1.4-1.1
						c-0.3-0.4-0.5-0.8-0.5-1.4c0-0.7,0.2-1.2,0.6-1.5s1.1-0.5,2-0.5c0.7,0,1.4,0.1,2,0.2c0.7,0.2,1.2,0.4,1.7,0.6l0.3,0.1l1-2.8
						l-0.2-0.1c-0.6-0.3-1.4-0.6-2.2-0.8c-0.8-0.2-1.8-0.3-3-0.3c-1.8,0-3.2,0.4-4.2,1.3c-1,0.9-1.5,2.1-1.5,3.8
						c0,1,0.2,1.9,0.6,2.6s0.9,1.3,1.5,1.8s1.3,0.9,2,1.2c0.7,0.3,1.3,0.7,1.9,1.1c0.6,0.4,1,0.8,1.4,1.3c0.3,0.5,0.5,1,0.5,1.7
						c0,0.8-0.3,1.4-0.8,1.8c-0.6,0.4-1.3,0.6-2.1,0.6c-0.8,0-1.5-0.1-2.2-0.3c-0.7-0.2-1.4-0.4-1.9-0.7l-0.3-0.2l-1.1,2.9l0.2,0.1
						c0.6,0.4,1.4,0.7,2.3,0.9c0.9,0.2,2,0.3,3.2,0.3c1,0,2-0.1,2.8-0.4s1.5-0.7,2-1.2s0.9-1.1,1.2-1.7c0.3-0.7,0.4-1.4,0.4-2.1
						c0-1.1-0.2-2.1-0.6-2.8C400.9,390.6,400.3,389.9,399.7,389.4z"/>
					<path class="st0" d="M417.9,383.1c-0.4-1-0.9-1.8-1.5-2.3s-1.4-0.9-2.2-1.1c-0.8-0.2-1.6-0.3-2.3-0.3c-2.4,0-4.4,0.9-5.7,2.6
						c-1.3,1.7-2,4.2-2,7.5c0,1.5,0.1,2.9,0.4,4.1s0.8,2.3,1.4,3.2s1.5,1.6,2.4,2.1c1,0.5,2.2,0.7,3.5,0.7c1.1,0,2.2-0.2,3.3-0.5
						c1-0.3,1.9-0.8,2.6-1.3l0.2-0.2l-1.4-2.5l-0.3,0.2c-0.3,0.3-0.9,0.6-1.6,0.8s-1.4,0.4-2.1,0.4c-0.9,0-1.7-0.2-2.3-0.5
						c-0.6-0.3-1.1-0.8-1.5-1.3c-0.4-0.6-0.7-1.3-0.9-2.1c-0.2-0.8-0.3-1.6-0.3-2.6H418v-0.3c0.1-0.5,0.1-1,0.1-1.5s0.1-1,0.1-1.4
						C418.5,385.3,418.3,384,417.9,383.1z M407.9,387.2c0.2-1.6,0.6-2.9,1.2-3.6c0.7-0.8,1.6-1.2,2.8-1.2c1,0,1.8,0.4,2.4,1.2
						c0.6,0.8,0.8,2,0.8,3.6H407.9z"/>
				</g>
				<g>
					<path class="st0" d="M219.7,376.5c-0.9-1.2-2-2.1-3.4-2.7c-1.4-0.6-3.1-0.9-5.1-0.9c-0.5,0-0.9,0-1.5,0h-1.6
						c-0.5,0-1.1,0-1.6,0.1c-0.5,0-1,0.1-1.4,0.2h-0.2v26h0.1c0.3,0,0.7,0.1,1.2,0.1s1,0.1,1.6,0.1s1.1,0.1,1.7,0.1c0.5,0,1,0,1.3,0
						c2.1,0,3.9-0.4,5.4-1.1c1.4-0.7,2.6-1.7,3.5-3c0.9-1.2,1.5-2.7,1.9-4.3s0.5-3.3,0.5-5.1c0-2-0.2-3.8-0.6-5.4
						C221.3,379.1,220.6,377.7,219.7,376.5z M211.2,396.6c-0.1,0-0.3,0-0.6,0l-1.8-0.1c-0.2,0-0.3,0-0.4,0V376c0.1,0,0.3,0,0.5-0.1
						c0.3,0,0.5,0,0.8-0.1c0.3,0,0.6,0,0.9,0h0.9c1.5,0,2.7,0.3,3.6,0.9c0.9,0.6,1.7,1.3,2.2,2.3c0.5,0.9,0.9,2,1.1,3.2
						c0.2,1.2,0.3,2.5,0.3,3.8c0,1.4-0.1,2.8-0.4,4.1c-0.2,1.3-0.6,2.4-1.2,3.4c-0.6,1-1.3,1.7-2.3,2.3
						C213.8,396.3,212.6,396.6,211.2,396.6z"/>
					<path class="st0" d="M239.5,389.9c-0.6-0.5-1.2-1-1.9-1.3c-0.6-0.3-1.3-0.7-1.9-1.1c-0.6-0.3-1-0.7-1.4-1.1
						c-0.3-0.4-0.5-0.9-0.5-1.4c0-0.7,0.2-1.2,0.6-1.6c0.4-0.3,1.1-0.5,2-0.5c0.7,0,1.4,0.1,2,0.2c0.7,0.2,1.2,0.4,1.7,0.6l0.2,0.1
						l0.9-2.5l-0.1-0.1c-0.6-0.3-1.3-0.6-2.1-0.8c-0.8-0.2-1.8-0.3-2.9-0.3c-1.7,0-3.1,0.4-4,1.2c-1,0.8-1.5,2.1-1.5,3.7
						c0,1,0.2,1.8,0.6,2.5c0.4,0.7,0.9,1.2,1.5,1.7s1.2,0.9,1.9,1.2s1.3,0.7,1.8,1.1c0.6,0.4,1,0.8,1.4,1.3c0.3,0.5,0.5,1,0.5,1.8
						s-0.3,1.4-0.8,1.8c-0.6,0.4-1.3,0.6-2.2,0.6c-0.8,0-1.5-0.1-2.2-0.3s-1.3-0.4-1.9-0.7l-0.2-0.1l-1,2.7l0.1,0.1
						c0.6,0.3,1.3,0.6,2.2,0.8c0.9,0.2,1.9,0.3,3.1,0.3c1,0,1.9-0.1,2.7-0.4s1.4-0.6,1.9-1.1s0.9-1,1.2-1.7c0.3-0.6,0.4-1.3,0.4-2
						c0-1.1-0.2-2-0.6-2.7C240.6,391,240.1,390.4,239.5,389.9z"/>
					<path class="st0" d="M254,395.8c-0.4,0.3-0.8,0.5-1.4,0.7s-1.2,0.3-1.9,0.3c-0.9,0-1.6-0.2-2.1-0.5c-0.6-0.4-1-0.9-1.4-1.5
						c-0.4-0.6-0.6-1.4-0.8-2.2c-0.2-0.9-0.2-1.8-0.2-2.8c0-2.4,0.4-4.3,1.1-5.4c0.7-1.1,1.7-1.7,3.1-1.7c1.2,0,2.4,0.3,3.4,0.8
						l0.2,0.1l0.9-2.7l-0.1-0.1c-0.5-0.3-1.2-0.5-2-0.7s-1.7-0.3-2.7-0.3c-2.3,0-4.2,0.9-5.4,2.5c-1.2,1.7-1.9,4.1-1.9,7.2
						c0,1.5,0.1,2.8,0.4,4s0.7,2.2,1.2,3.1c0.6,0.9,1.3,1.5,2.2,2c0.9,0.5,2,0.7,3.3,0.7c1,0,1.9-0.1,2.7-0.3
						c0.9-0.2,1.7-0.6,2.4-1.1l0.1-0.1l-1-2.5L254,395.8z"/>
					<path class="st0" d="M262.8,380.1c-2.4,0-4.2,0.8-5.5,2.4c-1.3,1.6-1.9,4.1-1.9,7.4c0,3.2,0.6,5.7,1.8,7.3
						c1.2,1.6,3.1,2.5,5.6,2.5c2.3,0,4.2-0.8,5.5-2.4c1.3-1.6,1.9-4.1,1.9-7.4c0-3.2-0.6-5.7-1.8-7.3
						C267.2,380.9,265.3,380.1,262.8,380.1z M265.7,395.3c-0.7,1.1-1.6,1.6-3,1.6c-0.7,0-1.3-0.2-1.8-0.5s-0.9-0.8-1.2-1.4
						c-0.3-0.6-0.6-1.4-0.7-2.2c-0.1-0.9-0.2-1.8-0.2-2.9c0-2.5,0.3-4.3,1-5.4c0.7-1.1,1.7-1.6,3-1.6c0.7,0,1.3,0.2,1.8,0.5
						s0.9,0.8,1.2,1.4c0.3,0.6,0.6,1.4,0.7,2.2c0.1,0.9,0.2,1.8,0.2,2.9C266.8,392.4,266.4,394.2,265.7,395.3z"/>
					<path class="st0" d="M297.1,381.4c-0.6-0.5-1.3-0.9-2.1-1.1c-0.7-0.2-1.5-0.3-2.3-0.3c-2.4,0-4.2,0.9-5.5,2.5
						c-1.3,1.7-1.9,4.1-1.9,7.2c0,1.5,0.1,2.8,0.4,4s0.7,2.2,1.4,3.1c0.6,0.9,1.4,1.5,2.4,2s2.1,0.7,3.4,0.7c1.1,0,2.2-0.1,3.2-0.4
						s1.9-0.7,2.5-1.3l0.1-0.1l-1.2-2.3l-0.2,0.2c-0.4,0.3-0.9,0.6-1.6,0.8s-1.4,0.4-2.1,0.4c-0.9,0-1.7-0.2-2.3-0.5
						c-0.6-0.3-1.1-0.8-1.5-1.3c-0.4-0.6-0.7-1.3-0.9-2.1c-0.2-0.8-0.3-1.7-0.3-2.6h10.2v-0.2c0.1-0.5,0.1-1,0.1-1.5
						s0.1-0.9,0.1-1.3c0-1.5-0.2-2.7-0.6-3.7C298.2,382.7,297.7,382,297.1,381.4z M288.8,387.8c0.2-1.7,0.6-2.9,1.2-3.7
						c0.7-0.8,1.6-1.2,2.8-1.2c1,0,1.8,0.4,2.4,1.2s0.8,2,0.8,3.7H288.8z"/>
					<path class="st0" d="M305.5,380.8c-0.6,0.4-1,0.9-1.4,1.5l-0.5-1.8h-2.4v18.7h3.3v-13.6c0.1-0.7,0.5-1.3,1-1.7
						c0.8-0.7,2-0.9,3.8-0.3l0.2,0.1l0.6-3h-0.2C308,380,306.6,380.1,305.5,380.8z"/>
					<path class="st0" d="M312.6,407.3l-1.3-2.8l0.2-0.1c0.9-0.5,1.8-1.3,2.7-2.3c0.8-1,1.5-2.2,1.7-3c0.2-0.5,0.2-0.6,0.2-0.8
						c0-0.2,0-0.4-0.1-0.6l-5-17.2h3.7l2.6,10.7c0.3,1,0.4,1.8,0.6,2.7c0,0.1,0.1,0.3,0.1,0.4c0.2-0.9,0.4-1.9,0.7-3l2.3-10.7h3.5
						l-3.2,12c-1.2,4.5-2.5,9-4.9,11.9c-1.6,1.9-3.3,2.7-3.6,2.9L312.6,407.3z"/>
					<g>
						<rect x="224.8" y="380.5" class="st0" width="3.3" height="18.7"/>
						<g>
							<path class="st0" d="M226.4,377.7c-1.4,0-2.6-1.2-2.6-2.6c0-1.4,1.2-2.6,2.6-2.6c1.4,0,2.6,1.2,2.6,2.6
								C229,376.5,227.9,377.7,226.4,377.7"/>
						</g>
					</g>
					<polygon class="st0" points="282.2,380.5 278,393.3 273.6,380.7 273.6,380.5 269.8,380.5 276.9,399.5 277,399.6 278.7,399.6 
						285.7,380.5 					"/>
				</g>
			</g>
		</g>
	</g>
	<g>
		<path class="st0" d="M424.4,395.6c0,0.2-0.1,0.3-0.2,0.4c-0.1,0.1-0.3,0.1-0.5,0.1h-0.4v-0.8c0,0,0.1,0,0.2,0s0.2,0,0.3,0
			C424.1,395.2,424.4,395.3,424.4,395.6 M422.6,397.9h0.6v-1.4l0.6,0.2l0.9,1.3h0.7l-0.9-1.3l-0.3-0.2c0.2,0,0.4-0.1,0.6-0.2
			c0.2-0.1,0.2-0.3,0.2-0.6s-0.1-0.6-0.4-0.7c-0.2-0.1-0.5-0.2-0.9-0.2c-0.2,0-0.4,0-0.7,0c-0.2,0-0.4,0.1-0.5,0.1L422.6,397.9
			L422.6,397.9z M421.6,395.2c0.1-0.3,0.3-0.6,0.5-0.8s0.5-0.4,0.8-0.5c0.3-0.1,0.6-0.2,1-0.2c0.3,0,0.7,0,0.9,0.2
			c0.3,0.1,0.6,0.3,0.8,0.5c0.2,0.2,0.4,0.5,0.5,0.8s0.2,0.7,0.2,1.1c0,0.4-0.1,0.8-0.2,1.1s-0.3,0.6-0.5,0.8
			c-0.2,0.2-0.5,0.4-0.8,0.5c-0.3,0.1-0.6,0.2-1,0.2c-0.3,0-0.6,0-0.9-0.2c-0.3-0.1-0.6-0.3-0.8-0.5c-0.2-0.2-0.4-0.5-0.5-0.8
			s-0.2-0.7-0.2-1.1C421.4,395.9,421.5,395.5,421.6,395.2 M420.9,397.7c0.2,0.4,0.4,0.7,0.7,1c0.3,0.3,0.6,0.5,1,0.6
			c0.4,0.1,0.8,0.2,1.3,0.2c0.4,0,0.8-0.1,1.2-0.2c0.4-0.1,0.7-0.3,1-0.6c0.3-0.3,0.5-0.6,0.7-1c0.2-0.4,0.3-0.9,0.3-1.4
			s-0.1-1-0.2-1.4c-0.2-0.4-0.4-0.7-0.7-1c-0.3-0.3-0.6-0.5-1-0.6c-0.4-0.1-0.8-0.2-1.3-0.2c-0.4,0-0.8,0.1-1.2,0.2
			c-0.4,0.1-0.7,0.3-1,0.6s-0.5,0.6-0.7,1c-0.2,0.4-0.3,0.9-0.3,1.4C420.7,396.8,420.7,397.3,420.9,397.7"/>
	</g>
</g>
</svg>
