<?xml version="1.0" encoding="utf-8"?>
<!-- Generator: Adobe Illustrator 17.1.0, SVG Export Plug-In . SVG Version: 6.00 Build 0)  -->
<!DOCTYPE svg PUBLIC "-//W3C//DTD SVG 1.1//EN" "http://www.w3.org/Graphics/SVG/1.1/DTD/svg11.dtd">
<svg version="1.1" id="Layer_1" xmlns="http://www.w3.org/2000/svg" xmlns:xlink="http://www.w3.org/1999/xlink" x="0px" y="0px"
	 viewBox="137.5 623.4 612 81.4" enable-background="new 137.5 623.4 612 81.4" xml:space="preserve">
<g>
	<g>
		<path fill="#FAB432" d="M176.8,623.4c-21.6,0-39.3,17.5-39.3,39.3c0,18.7,13,34.4,30.5,38.2c0-1,0-2.2,0-3.3
			c0-20.5,11.4-39.5,29.5-49.2l3.5,6.5c-15.9,8.5-25.6,24.8-25.6,42.7c0,1.4,0,2.8,0.2,4.3c0.4,0,0.8,0,1.2,0c0.6,0,1,0,1.6,0
			c-0.2-1.4-0.2-2.8-0.2-4.3c0-7.5,1.8-14.8,5.5-21.2c3.5-6.1,8.3-11.4,14.4-15.3l3.7,5.5c-5.1,3.3-9.4,7.7-12.2,13
			c-3.1,5.5-4.7,11.6-4.7,18.1c0,1.2,0,2.2,0.2,3.5c17.7-3.7,31.1-19.5,31.1-38.4C216,641.1,198.5,623.4,176.8,623.4z M166.6,686.1
			c-3.7-5.5-8.7-9.8-15.1-12.6l2.6-5.9c5.7,2.6,10.6,6.1,14.4,10.6C167.8,680.8,167.2,683.4,166.6,686.1z M170,674.9
			c0,0.2,0,0.2-0.2,0.4c-5.3-5.9-12-10.6-19.5-13.2l2.6-6.9c7.7,2.8,14.6,7.3,20.3,13.2C172.1,670.2,171.1,672.4,170,674.9z
			 M174.7,665.7c-2-2-4.3-3.9-6.7-5.5v-20.9h6.7V665.7z M184.7,653.7c0,0-1.6,1.6-2.4,2.4c-1.8,1.8-3.5,3.7-4.9,5.5v-31.5h7.3
			L184.7,653.7L184.7,653.7z"/>
	</g>
</g>
<g>
	<path fill="#878787" d="M489.4,659.2h2.8c0.8,0,1.6,0,2.6,0c1,0,1.8-0.2,2.4-0.2c1.8-0.6,3.5-1.8,4.9-3.5c1.4-1.6,2-3.5,2-5.7
		c0-1.6-0.2-2.8-0.6-3.9c-0.4-1-1-1.8-1.8-2.4c-0.8-0.6-1.8-1-2.8-1.2c-1-0.2-2.2-0.4-3.5-0.4c-1.4,0-2.6,0-3.9,0.2
		c-1,0-1.6,0.2-2.2,0.2V659.2z M541.8,665.7h14.4c0-3.3-0.4-5.9-1.6-7.3c-1.2-1.6-2.6-2.4-4.7-2.4c-2.4,0-4.3,0.8-5.7,2.4
		C543.1,659.8,542.2,662.3,541.8,665.7 M489.4,682.8c0.2,0,0.6,0.2,0.8,0.2c0.6,0,1,0,1.6,0.2c0.6,0,1.2,0,1.8,0.2
		c0.6,0,1.2,0,1.8,0c1.4,0,2.6-0.2,3.9-0.6c1.2-0.4,2.2-1,3.1-1.8c0.8-0.8,1.6-1.8,2-2.8c0.6-1.2,0.8-2.4,0.8-4.1
		c0-1.8-0.4-3.5-1-4.7c-0.6-1.2-1.4-2-2.4-2.6c-1-0.6-2.2-1-3.5-1.4c-1.4-0.2-2.8-0.4-4.3-0.4H489v17.9L489.4,682.8L489.4,682.8z
		 M350.2,683c0.2,0,0.4,0,0.8,0c0.6,0,1.2,0,1.8,0h1.8c0.6,0,1,0,1.2,0c2.8,0,5.3-0.6,7.3-1.6c1.8-1.2,3.5-2.6,4.7-4.7
		c1.2-1.8,2-4.3,2.4-6.7c0.4-2.6,0.8-5.3,0.8-8.1c0-2.6-0.2-5.1-0.6-7.5c-0.4-2.4-1.2-4.7-2.2-6.5c-1-1.8-2.6-3.5-4.5-4.5
		c-1.8-1.2-4.3-1.8-7.1-1.8h-1.8c-0.6,0-1.2,0-1.8,0s-1.2,0-1.6,0.2c-0.4,0-0.6,0-0.8,0V683H350.2z M396.8,671.6
		c-1.2,0-2.4,0-3.7,0.2c-1.2,0.2-2.2,0.6-3.3,1c-0.8,0.4-1.6,1-2,1.8c-0.6,0.8-0.8,1.8-0.8,2.8c0,1.8,0.4,3.3,1.4,4.3
		c1,1,2.2,1.4,3.7,1.4c2,0,3.9-0.4,4.9-1.4c1.2-0.8,2-1.8,2.4-3.1v-7.3c-0.4,0-0.8,0-1.2,0C398,671.6,397.4,671.6,396.8,671.6
		 M581.5,671.6c-1.2,0-2.4,0-3.7,0.2c-1.2,0.2-2.2,0.6-3.3,1c-0.8,0.4-1.6,1-2.2,1.8c-0.4,0.8-0.8,1.8-0.8,2.8
		c0,1.8,0.4,3.3,1.4,4.3c1,1,2.2,1.4,3.7,1.4c2,0,3.9-0.4,4.9-1.4c1.2-0.8,2-1.8,2.4-3.1v-7.3c-0.4,0-0.8,0-1.2,0
		C582.5,671.6,582.1,671.6,581.5,671.6 M253.2,641.5c-3.9,0-6.7,1.6-8.7,5.1c-2,3.5-3.1,8.7-3.1,15.9c0,2.8,0.2,5.5,0.6,8.1
		c0.4,2.4,1.2,4.7,2,6.7c1,1.8,2.2,3.5,3.7,4.5c1.4,1,3.3,1.6,5.5,1.6c3.9,0,6.9-1.6,8.9-5.1c2-3.5,3.1-8.7,3.1-15.9
		c0-2.8-0.2-5.5-0.6-8.1c-0.4-2.4-1.2-4.9-2-6.7c-1-1.8-2.2-3.5-3.7-4.5C257.1,642.1,255.3,641.5,253.2,641.5 M610.6,656
		c-2.8,0-4.9,1-6.3,3.3c-1.6,2.2-2.2,5.9-2.2,10.6c0,2,0.2,4.1,0.4,5.7c0.2,1.6,0.8,3.1,1.4,4.5c0.6,1.2,1.4,2,2.2,2.8
		c0.8,0.6,2,1,3.5,1c3.7,0,6.1-1.8,7.1-5.9v-20.3c-0.6-0.4-1.4-0.8-2.2-1C613.4,656.2,612.2,656,610.6,656 M315.9,688.5h-6.5v-37.2
		h4.9l1,3.5c0.8-1.2,1.6-2.2,2.8-2.8c2.2-1.4,5.1-1.6,8.9-0.6h0.4l-1.2,6.1l-0.4-0.2c-3.5-1-5.9-0.8-7.5,0.6c-1,0.8-1.6,2-2,3.5
		L315.9,688.5z M419.8,688.5h-6.5v-37.2h6.5V688.5z M523.9,688.5h-6.5v-37.2h4.9l1,3.5c0.8-1.2,1.6-2.2,2.8-2.8
		c2.2-1.4,5.1-1.6,8.9-0.6h0.4l-1.2,6.1l-0.4-0.2c-3.5-1-5.9-0.8-7.5,0.6c-1,0.8-1.6,2-2,3.5L523.9,688.5z M390.5,688.9
		c-3.1,0-5.5-1-7.3-2.8s-2.8-4.5-2.8-7.7c0-2.2,0.4-4.1,1.2-5.5c0.8-1.4,2-2.6,3.5-3.7c1.4-0.8,3.3-1.6,5.1-1.8
		c2-0.4,4.3-0.6,6.5-0.6h1.6c0.4,0,0.8,0,1.4,0c0.2-1.4,0.2-2.6,0.2-3.7c0-2.6-0.4-4.5-1.2-5.7c-0.8-1-2.4-1.6-4.7-1.6
		c-1.4,0-3.1,0.2-4.9,0.6c-1.6,0.4-3.3,1-4.3,1.6l-0.4,0.2l-2.2-4.9l0.4-0.2c1.6-0.8,3.5-1.6,5.9-2c2.2-0.4,4.7-0.8,7.1-0.8
		c2.2,0,4.3,0.4,5.7,1c1.4,0.6,2.6,1.4,3.5,2.6c0.8,1,1.4,2.4,1.6,3.7c0.2,1.4,0.4,2.8,0.4,4.3c0,2.8,0,5.9-0.2,8.5
		c-0.2,2.6-0.2,5.3-0.2,7.9c0,1.8,0,3.7,0.2,5.1c0.2,1.6,0.4,3.1,0.8,4.5l0.2,0.4h-5.3l-1.4-4.1c-0.8,1.2-2,2.2-3.5,3.1
		C395.4,688.5,393.2,688.9,390.5,688.9 M575.2,688.9c-3.1,0-5.5-1-7.3-2.8s-2.8-4.5-2.8-7.7c0-2.2,0.4-4.1,1.2-5.5
		c0.8-1.4,2-2.6,3.5-3.7c1.4-0.8,3.3-1.6,5.1-1.8c2-0.4,4.3-0.6,6.5-0.6h1.6c0.4,0,0.8,0,1.4,0c0.2-1.4,0.2-2.6,0.2-3.7
		c0-2.6-0.4-4.5-1.2-5.7c-0.8-1-2.4-1.6-4.7-1.6c-1.4,0-3.1,0.2-4.9,0.6c-1.6,0.4-3.3,1-4.3,1.6l-0.4,0.2l-2.2-4.9l0.4-0.2
		c1.6-0.8,3.5-1.6,5.9-2c2.2-0.4,4.7-0.8,7.1-0.8c2.2,0,4.3,0.4,5.7,1c1.4,0.6,2.6,1.4,3.5,2.6c0.8,1,1.4,2.2,1.6,3.7
		c0.2,1.4,0.4,2.8,0.4,4.3c0,2.8,0,5.7-0.2,8.5c-0.2,2.8-0.2,5.5-0.2,7.9c0,1.8,0,3.5,0.2,5.1c0.2,1.6,0.4,3.1,0.8,4.5l0.2,0.4H587
		l-1.4-4.1c-0.8,1.2-2,2.2-3.5,3.1C580.1,688.5,577.8,688.9,575.2,688.9 M495.1,689.1h-2.6c-1,0-2,0-3.3-0.2c-1,0-2.2-0.2-3.5-0.2
		c-1.2-0.2-2.2-0.4-3.1-0.6h-0.2v-50.8h0.4c1.6-0.2,3.5-0.6,5.7-0.8c2.2-0.2,4.5-0.2,7.1-0.2c1.8,0,3.7,0.2,5.5,0.4
		c1.8,0.4,3.7,1,5.1,1.8c1.4,0.8,2.6,2.2,3.7,3.9c1,1.6,1.4,3.9,1.4,6.5c0,1.2-0.2,2.6-0.4,3.9c-0.4,1.2-0.8,2.4-1.6,3.7
		c-0.8,1.2-1.6,2.2-2.6,3.1c-0.8,0.8-2,1.4-3.3,1.8c1,0.2,2,0.6,3.1,1c1.2,0.6,2.2,1.4,3.3,2.4c1,1,1.6,2.2,2.2,3.9
		c0.6,1.4,0.8,3.3,0.8,5.3c0,2.6-0.4,5.1-1.4,6.9c-1,2-2.2,3.7-3.9,4.9c-1.6,1.2-3.5,2.2-5.7,2.8
		C499.5,688.7,497.3,689.1,495.1,689.1 M355.5,689.1c-0.6,0-1.6,0-2.6,0c-1,0-2.2,0-3.5-0.2c-1.2,0-2.2-0.2-3.3-0.2
		c-1,0-1.8-0.2-2.4-0.2h-0.4v-51.9h0.4c0.8-0.2,1.8-0.2,2.8-0.4c1,0,2-0.2,3.3-0.2h3.3c1,0,2,0,3.1,0c4.1,0,7.3,0.6,10.2,1.8
		s5.1,3.1,6.9,5.3s3.1,5.1,3.9,8.3c0.8,3.3,1.2,6.7,1.2,10.6c0,3.5-0.4,6.9-1,10.2c-0.8,3.3-2,6.1-3.7,8.5c-1.8,2.4-4.1,4.5-6.9,5.9
		C363.3,688.3,359.8,689.1,355.5,689.1 M253.2,689.3c-3.5,0-6.3-0.6-8.7-1.8s-4.5-3.1-5.9-5.5c-1.6-2.2-2.6-5.1-3.3-8.5
		c-0.6-3.3-1-6.9-1-11c0-8.7,1.6-15.5,4.7-19.9c3.1-4.5,7.9-6.9,14.4-6.9c3.5,0,6.3,0.6,8.7,1.8s4.5,3.1,5.9,5.5
		c1.4,2.2,2.6,5.1,3.3,8.5c0.6,3.3,1,6.9,1,11c0,8.7-1.6,15.5-4.7,19.9C264.4,687.1,259.5,689.3,253.2,689.3 M287.4,689.3
		c-1.8,0-3.3-0.2-4.7-0.6c-1.4-0.4-2.4-1.2-3.5-2.2s-1.6-2.4-2.2-4.3c-0.4-1.8-0.6-4.1-0.6-6.9v-24h6.5v22.8c0,3.7,0.4,6.3,1.2,7.7
		c0.8,1.4,2.2,2.2,4.3,2.2c1,0,2-0.2,2.8-0.6c0.8-0.4,1.6-0.8,2.2-1.6c0.6-0.6,1.2-1.4,1.8-2.2c0.4-0.8,1-1.6,1.2-2.6v-25.6h6.5
		v26.4c0,1.8,0,3.5,0.2,5.5c0.2,1.8,0.4,3.5,0.6,4.9v0.4h-4.7l-1.4-4.9c-1,1.4-2.2,2.6-3.9,3.9C292.3,688.7,290,689.3,287.4,689.3
		 M550,689.3c-2.6,0-4.9-0.4-6.7-1.4s-3.5-2.2-4.7-4.1c-1.2-1.6-2.2-3.9-2.6-6.1c-0.6-2.4-0.8-5.1-0.8-7.9c0-6.3,1.2-11.2,3.9-14.4
		c2.6-3.3,6.3-5.1,11-5.1c1.6,0,3.1,0.2,4.5,0.6c1.6,0.4,2.8,1,4.1,2s2.2,2.6,3.1,4.5c0.8,1.8,1,4.3,1,7.3c0,0.8,0,1.8-0.2,2.6
		c0,1-0.2,1.8-0.2,3.1v0.4h-20.5c0,1.8,0.2,3.7,0.6,5.3c0.4,1.6,1,3.1,1.6,4.3c0.8,1.2,1.8,2,3.1,2.6c1.2,0.6,2.6,1,4.5,1
		c1.4,0,2.8-0.2,4.3-0.6c1.4-0.4,2.4-1,3.1-1.6l0.4-0.4l2.4,4.7l-0.2,0.2c-1.4,1-3.1,2-5.1,2.6C554.4,689.1,552.2,689.3,550,689.3
		 M608.6,689.3c-4.5,0-7.9-1.6-10-4.7c-2.2-3.1-3.3-8.1-3.3-14.6c0-6.3,1.4-11.2,4.1-14.4c2.6-3.3,6.3-4.9,11-4.9
		c1.6,0,2.8,0,3.9,0.2c0.8,0.2,1.6,0.4,2.4,0.6v-14.8h6.5v38.8c0,2.4,0,4.7,0,6.7c0,2,0.2,3.9,0.6,5.9v0.4h-4.7l-1.2-4.1
		c-0.8,1.4-2,2.4-3.5,3.5C612.8,688.9,610.8,689.3,608.6,689.3 M434.9,689.3l-0.2-0.2c-0.2,0-3.5-2-5.3-4.9
		c-1.6-2.4-1.6-7.3-1.6-10.8v-36.8h6.5v37.2c0,1.8,0,4.9,0.6,6.1c1,2.8,3.5,4.1,3.5,4.1l0.4,0.2L434.9,689.3z M441.8,704.8l-2.6-5.7
		l0.4-0.2c1.8-0.8,3.7-2.4,5.3-4.5c1.6-1.8,2.8-4.5,3.5-6.1c0.4-0.8,0.4-1.2,0.4-1.6c0-0.4,0-0.8-0.2-1.2l-10-34.4h7.3l5.3,21.4
		c0.4,2,0.8,3.7,1.2,5.3c0,0.2,0.2,0.6,0.2,0.8c0.4-1.6,0.8-3.9,1.4-6.1l4.7-21.6h6.9l-6.5,24c-2.2,8.9-5.1,18.1-9.8,23.8
		c-3.3,3.9-6.5,5.5-7.1,5.7L441.8,704.8z"/>
	<g>
		<path fill="#878787" d="M416.8,645.4c-2.8,0-5.1-2.2-5.1-5.1c0-2.8,2.2-5.1,5.1-5.1s5.1,2.2,5.1,5.1
			C421.8,643.2,419.6,645.4,416.8,645.4"/>
	</g>
</g>
<g>
	<path fill="#878787" d="M648.8,680.4c0,2-0.2,3.5-0.8,4.3c-0.4,0.8-1.4,1.2-2.6,1.2c-0.8,0-1.4,0-1.8-0.2c-0.4-0.2-0.8-0.4-1-0.8
		c-0.4-0.4-0.6-1-0.6-1.6c-0.2-0.8-0.2-1.6-0.2-2.6v-14.2H638v15.5c0,2.4,0.6,4.3,1.8,5.5c1.2,1.2,3.1,1.8,5.5,1.8
		c2.2,0,3.9-0.6,5.1-1.8c1.2-1.2,1.8-3.3,1.8-5.9v-14.8h-3.5L648.8,680.4L648.8,680.4z"/>
	<path fill="#878787" d="M664.9,673.3c-0.4-0.6-1-0.8-1.6-1c-0.6-0.2-1.2-0.4-2-0.4c-1,0-2,0.2-2.8,0.6c-0.4,0.2-1,0.6-1.2,0.8
		l-0.4-1.2h-2.6v16.3h3.5v-11.6c0.2-0.6,0.6-1,1-1.4c0.4-0.4,1.2-0.6,1.8-0.6c0.8,0,1.4,0.2,1.6,0.8c0.4,0.6,0.6,1.6,0.6,3.1v9.8
		h3.5v-10.2c0-1.2,0-2.2-0.2-2.8C665.7,674.5,665.3,673.9,664.9,673.3z"/>
	<polygon fill="#878787" points="683.6,672.2 680.6,681.6 680.3,682.4 680.1,681.6 676.9,672.2 673,672.2 679.3,688.9 681.2,688.9 
		687.3,672.2 	"/>
	<path fill="#878787" d="M697.2,673c-0.6-0.4-1.2-0.8-1.8-1c-0.6-0.2-1.4-0.2-2-0.2c-2,0-3.7,0.8-4.9,2.2c-1.2,1.4-1.6,3.7-1.6,6.3
		c0,1.2,0.2,2.4,0.4,3.5c0.2,1,0.6,2,1.2,2.6c0.6,0.8,1.2,1.4,2,1.8c0.8,0.4,1.8,0.6,3.1,0.6c1,0,1.8-0.2,2.8-0.4
		c0.8-0.2,1.6-0.6,2.2-1.2l0.4-0.2l-1.4-2.6l-0.4,0.4c-0.2,0.2-0.6,0.4-1.2,0.6c-1.2,0.4-2.6,0.4-3.5,0c-0.4-0.2-0.8-0.6-1-1
		c-0.2-0.4-0.6-1-0.6-1.6c-0.2-0.6-0.2-1-0.2-1.8h8.5v-0.4c0-0.4,0-0.8,0.2-1.2c0-0.4,0-0.8,0-1.2c0-1.2-0.2-2.4-0.4-3.3
		C698.2,674.3,697.8,673.7,697.2,673z M690.3,678.3c0.2-1.2,0.4-2,0.8-2.4c0.4-0.6,1.2-0.8,2-0.8s1.2,0.2,1.6,0.8
		c0.4,0.6,0.6,1.4,0.6,2.6L690.3,678.3L690.3,678.3z"/>
	<path fill="#878787" d="M704.6,672.6c-0.2,0.2-0.6,0.4-0.8,0.6l-0.2-1h-2.6v16.3h3.5v-11.6c0.2-0.6,0.4-1,0.6-1.2
		c0.6-0.4,1.4-0.6,2.8-0.2l0.6,0.2l0.6-3.3l-0.4-0.2C706.8,671.8,705.6,672,704.6,672.6z"/>
	<path fill="#878787" d="M717.8,680.2c-0.6-0.4-1-0.8-1.6-1.2c-0.6-0.2-1-0.6-1.6-0.8c-0.4-0.2-0.8-0.6-1-0.8
		c-0.2-0.2-0.4-0.6-0.4-1s0.2-0.8,0.4-1c0.2-0.2,0.8-0.4,1.4-0.4c0.6,0,1,0,1.6,0.2c0.6,0.2,1,0.2,1.4,0.4l0.6,0.2l1-2.8l-0.4-0.2
		c-0.6-0.2-1.2-0.6-1.8-0.6c-0.6-0.2-1.6-0.2-2.4-0.2c-1.6,0-2.8,0.4-3.7,1c-0.8,0.8-1.4,1.8-1.4,3.3c0,0.8,0.2,1.6,0.6,2.2
		c0.4,0.6,0.8,1,1.2,1.4s1,0.8,1.6,1c0.6,0.2,1,0.6,1.4,0.8c0.4,0.2,0.8,0.6,1,1c0.2,0.4,0.4,0.8,0.4,1.2c0,0.6-0.2,1-0.6,1.2
		c-0.8,0.6-2.2,0.6-3.5,0.2c-0.6-0.2-1-0.4-1.4-0.6l-0.6-0.2l-1,2.8l0.4,0.2c0.6,0.4,1.2,0.6,2,0.8c0.8,0.2,1.6,0.2,2.6,0.2
		c0.8,0,1.6-0.2,2.4-0.4c0.6-0.2,1.2-0.6,1.6-1c0.4-0.4,0.8-1,1-1.4c0.2-0.6,0.4-1.2,0.4-1.8c0-1-0.2-1.8-0.6-2.4
		C718.8,681.2,718.4,680.6,717.8,680.2z"/>
	<path fill="#878787" d="M735.1,685.5c-0.4,0.2-0.6,0.2-1,0.4c-0.2,0-0.6,0.2-1,0.2s-0.6-0.2-0.8-0.4c-0.2-0.2-0.2-0.6-0.2-1.6v-8.5
		h3.7v-3.1H732v-3.9l-3.5,1v2.8h-2v3.1h2v8.9c0,1.6,0.2,2.8,0.8,3.5c0.6,0.8,1.6,1.2,2.8,1.2c0.6,0,1.4,0,2-0.2
		c0.6-0.2,1.2-0.4,1.8-0.6l0.4-0.2l-0.8-2.6L735.1,685.5z"/>
	<path fill="#878787" d="M669.8,665.7c-1.4,0-2.4,1.2-2.4,2.4c0,1.4,1.2,2.4,2.4,2.4c1.4,0,2.4-1.2,2.4-2.4
		C672.4,666.7,671.2,665.7,669.8,665.7z"/>
	<rect x="667.9" y="672.2" fill="#878787" width="3.5" height="16.3"/>
	<path fill="#878787" d="M723.1,665.7c-1.4,0-2.4,1.2-2.4,2.4c0,1.4,1.2,2.4,2.4,2.4c1.4,0,2.4-1.2,2.4-2.4
		C725.5,666.7,724.5,665.7,723.1,665.7z"/>
	<rect x="721.2" y="672.2" fill="#878787" width="3.5" height="16.3"/>
	<path fill="#878787" d="M746,672.2l-2,9.2c0,0.2-0.2,0.6-0.2,0.8c0-0.2-0.2-0.6-0.2-1l-2.2-9.2h-3.9l4.3,14.8c0,0.2,0,0.2,0,0.4
		c0,0.2,0,0.2-0.2,0.6c-0.2,0.6-0.8,1.6-1.4,2.4c-0.6,0.8-1.4,1.4-2,1.8l-0.4,0.2l1.4,3.1l0.4-0.2c0.4-0.2,1.8-0.8,3.1-2.4
		c2-2.4,3.3-6.3,4.1-10.2l2.8-10.6H746L746,672.2L746,672.2z"/>
</g>
<g>
	<path fill="#878787" d="M649.4,655.8c-0.4,0.2-0.8,0.4-1.4,0.6c-0.6,0.2-1.2,0.2-1.8,0.2c-1.6,0-3.1-0.6-4.1-2
		c-1-1.4-1.6-3.7-1.6-6.3c0-1.6,0.2-3.1,0.4-4.1c0.2-1,0.6-2,1.2-2.6c0.4-0.6,1-1,1.6-1.4c1.2-0.6,2.8-0.4,4.1-0.2
		c0.6,0.2,1,0.2,1.4,0.4l0.6,0.2l1-3.1l-0.4-0.2c-0.6-0.2-1.2-0.4-1.8-0.6c-0.8-0.2-1.6-0.2-2.8-0.2c-1,0-2.2,0.2-3.3,0.6
		c-1,0.4-2,1-2.8,2c-0.8,1-1.4,2.2-2,3.7c-0.4,1.4-0.8,3.3-0.8,5.3c0,2,0.2,3.9,0.6,5.3c0.4,1.4,1,2.6,1.8,3.7s1.8,1.6,2.8,2
		c1,0.4,2.2,0.6,3.5,0.6c1,0,1.8,0,2.8-0.2c1-0.2,1.6-0.6,2.2-1l0.2-0.2l-1-2.8L649.4,655.8z"/>
	<path fill="#878787" d="M663.5,644.2c-0.4-0.6-1-0.8-1.6-1c-0.6-0.2-1.2-0.4-2-0.4c-1,0-2,0.2-2.6,0.6c-0.4,0.2-0.6,0.4-1,0.6V637
		h-3.5v22.4h3.5V648c0.2-0.6,0.6-1.2,1-1.6c0.6-0.4,1.2-0.6,1.8-0.6c1.2,0,1.6,0.4,1.8,0.8c0.4,0.6,0.4,1.6,0.4,3.1v9.8h3.5V649
		c0-1.2,0-2-0.2-2.8C664.1,645.4,663.9,644.6,663.5,644.2z"/>
	<path fill="#878787" d="M670,643.4c-0.2,0.2-0.6,0.4-0.8,0.6l-0.2-1h-2.6v16.3h3.5v-11.6c0.2-0.6,0.4-1,0.6-1.2
		c0.6-0.4,1.4-0.6,2.8-0.2l0.6,0.2l0.6-3.3l-0.4-0.2C672.2,642.7,671,642.7,670,643.4z"/>
	<path fill="#878787" d="M690.3,651.1c-0.6-0.4-1-0.8-1.6-1.2c-0.6-0.2-1-0.6-1.6-0.8c-0.4-0.2-0.8-0.6-1-0.8
		c-0.2-0.2-0.4-0.6-0.4-1s0.2-0.8,0.4-1c0.2-0.2,0.8-0.4,1.4-0.4c0.6,0,1,0,1.6,0.2c0.6,0.2,1,0.2,1.4,0.4l0.6,0.2l1-2.8l-0.4-0.2
		c-0.6-0.2-1.2-0.6-1.8-0.6c-0.6-0.2-1.6-0.2-2.4-0.2c-1.6,0-2.8,0.4-3.7,1c-0.8,0.8-1.4,1.8-1.4,3.3c0,0.8,0.2,1.6,0.6,2.2
		c0.4,0.6,0.8,1,1.2,1.4s1,0.8,1.6,1c0.6,0.2,1,0.6,1.4,0.8c0.4,0.2,0.8,0.6,1,1s0.4,0.8,0.4,1.2c0,0.6-0.2,1-0.6,1.2
		c-0.8,0.6-2.2,0.6-3.5,0.2c-0.6-0.2-1-0.4-1.4-0.6l-0.6-0.2l-1,2.8l0.4,0.2c0.6,0.4,1.2,0.6,2,0.8c0.8,0.2,1.6,0.2,2.6,0.2
		c0.8,0,1.6-0.2,2.4-0.4c0.6-0.2,1.2-0.6,1.6-1c0.4-0.4,0.8-1,1-1.4c0.2-0.6,0.4-1.2,0.4-1.8c0-1-0.2-1.8-0.6-2.4
		C691.1,652.1,690.7,651.5,690.3,651.1z"/>
	<path fill="#878787" d="M701.9,656.4c-0.4,0.2-0.6,0.2-1,0.4c-0.2,0-0.6,0.2-1,0.2s-0.6-0.2-0.8-0.4c-0.2-0.2-0.2-0.6-0.2-1.6v-8.5
		h3.7v-3.1h-3.7v-3.9l-3.5,1v2.8h-2v3.1h2v8.9c0,1.6,0.2,2.8,0.8,3.5c0.6,0.8,1.6,1.2,2.8,1.2c0.6,0,1.4,0,2-0.2
		c0.6-0.2,1.2-0.4,1.8-0.6l0.4-0.2l-0.8-2.6L701.9,656.4z"/>
	<path fill="#878787" d="M722.4,657c0-0.6,0-1.4,0-2c0-1,0-2.2,0-3.3c0-1.2,0-2.4,0-3.7c0-0.6,0-1.2-0.2-1.8
		c-0.2-0.6-0.4-1.2-0.8-1.6c-0.4-0.6-0.8-0.8-1.6-1.2c-0.6-0.2-1.4-0.4-2.4-0.4s-2,0.2-3.1,0.4c-1,0.2-1.8,0.6-2.4,0.8l-0.4,0.2
		l1.2,2.6l0.4-0.2c0.4-0.2,1-0.4,1.6-0.6c1.6-0.4,3.1-0.2,3.7,0.2c0.2,0.2,0.4,0.8,0.4,2c0,0.4,0,0.8,0,1.2h-0.2h-0.4
		c-1,0-2,0-2.8,0.2c-0.8,0.2-1.6,0.4-2.2,0.8c-0.6,0.4-1.2,1-1.6,1.6c-0.4,0.6-0.6,1.4-0.6,2.4c0,1.4,0.4,2.6,1.2,3.5
		c0.8,0.8,2,1.2,3.3,1.2s2.2-0.2,2.8-0.6c0.4-0.2,0.8-0.6,1-0.8l0.4,1.4h3.1l-0.2-0.6C722.7,658.4,722.4,657.8,722.4,657z
		 M719,652.5v2.6c-0.2,0.4-0.4,0.8-0.8,1c-0.4,0.4-1,0.4-1.8,0.4c-0.6,0-1-0.2-1.2-0.6c-0.2-0.4-0.4-0.8-0.4-1.6c0-0.4,0-0.8,0.2-1
		c0.2-0.2,0.4-0.4,0.8-0.6c0.4-0.2,0.8-0.2,1.2-0.4c0.4,0,1-0.2,1.4-0.2C718.4,652.5,718.6,652.5,719,652.5
		C718.8,652.5,719,652.5,719,652.5z"/>
	<path fill="#878787" d="M735.5,644.2c-0.4-0.6-1-0.8-1.6-1c-0.6-0.2-1.2-0.4-2-0.4c-1,0-2,0.2-2.8,0.6c-0.4,0.2-1,0.6-1.2,0.8
		l-0.4-1.2h-2.6v16.3h3.5v-11.6c0.2-0.6,0.6-1,1-1.4s1-0.6,1.8-0.6s1.4,0.2,1.6,0.8c0.4,0.6,0.6,1.6,0.6,3.1v9.8h3.5v-10.4
		c0-1.2,0-2.2-0.2-2.8C736.1,645.4,735.9,644.6,735.5,644.2z"/>
	<circle fill="#878787" cx="677.9" cy="638.9" r="2.4"/>
	<rect x="676.1" y="643.2" fill="#878787" width="3.5" height="16.3"/>
	<path fill="#878787" d="M707.2,636.4c-1.4,0-2.4,1.2-2.4,2.4c0,1.4,1.2,2.4,2.4,2.4c1.4,0,2.4-1.2,2.4-2.4
		C709.6,637.7,708.6,636.4,707.2,636.4z"/>
	<rect x="705.4" y="643.2" fill="#878787" width="3.5" height="16.3"/>
</g>
</svg>
