<?xml version="1.0" encoding="UTF-8"?>
<svg width="272px" height="68px" viewBox="0 0 272 68" version="1.1" xmlns="http://www.w3.org/2000/svg" xmlns:xlink="http://www.w3.org/1999/xlink">
    <!-- Generator: Sketch 53.2 (72643) - https://sketchapp.com -->
    <title>ODBP® 2 Line_Black</title>
    <desc>Created with Sketch.</desc>
    <g id="Page-1" stroke="none" stroke-width="1" fill="none" fill-rule="evenodd">
        <g id="ODBP®-2-Line_Black" fill="#C2C5CA" fill-rule="nonzero">
            <path d="M34.86,2.57146328e-15 C17.6078999,-0.0204539669 3.10060156,12.9371564 1.18022934,30.082055 C-0.740142879,47.2269535 10.5408964,63.0730737 27.37,66.87 C27.31,65.93 27.28,64.98 27.28,64.03 C27.2696312,46.2261532 37.0584648,29.8614678 52.75,21.45 L55.75,27.11 C42.1456047,34.4041454 33.6596342,48.5935489 33.67,64.03 C33.67,65.26 33.67,66.47 33.83,67.69 L34.83,67.69 L36.18,67.69 C36.07,66.48 36,65.26 36,64.04 C35.9591257,57.6198567 37.5707883,51.2971802 40.68,45.68 C43.6836898,40.3210893 47.9463191,35.7735983 53.1,32.43 L56.19,37.17 C47.0445283,43.028632 41.5554742,53.1794155 41.66,64.04 C41.66,65.04 41.66,66.04 41.79,67.04 C58.7800352,63.4793306 70.3252305,47.6466587 68.5214074,30.3814947 C66.7175843,13.1163308 52.1491151,0.0119522543 34.79,0.04 L34.86,2.57146328e-15 Z M26.03,54 C22.8130179,49.2336707 18.3275151,45.4616919 13.08,43.11 L15.43,37.97 C20.1992629,40.1147642 24.4544883,43.2550387 27.91,47.18 C27.1210207,49.3986328 26.4927312,51.6711692 26.03,53.98 L26.03,54 Z M29.03,44.35 L28.91,44.63 C24.3404422,39.4926183 18.5730969,35.5629917 12.12,33.19 L14.33,27.19 C20.9717293,29.6280948 26.9945532,33.4999102 31.97,38.53 C30.8563366,40.3958475 29.8675048,42.3334233 29.01,44.33 L29.03,44.35 Z M32.77,36.47 C31.1915385,34.5369394 29.2776155,32.9041768 27.12,31.65 L27.12,13.26 L32.77,13.26 L32.77,36.47 Z M41.49,26.19 C41.49,26.19 40.14,27.55 39.42,28.26 C37.8824201,29.6964596 36.5135851,31.3034989 35.34,33.05 L35.34,5.56 L41.49,5.56 L41.49,26.19 Z" id="Shape"></path>
            <path d="M204.75,21.6 L206.21,21.6 C206.58,21.6 207.01,21.6 207.48,21.6 C207.878422,21.5857834 208.275723,21.5490582 208.67,21.49 C209.608421,21.1384342 210.443841,20.5574221 211.1,19.8 C211.779916,19.0017092 212.136625,17.9779566 212.1,16.93 C212.117713,16.2694113 211.998549,15.6123029 211.75,15 C211.555531,14.5225206 211.238109,14.1050419 210.83,13.79 C210.418703,13.4781538 209.94435,13.259747 209.44,13.15 C208.873135,13.0159296 208.292502,12.9488044 207.71,12.95 C207.03,12.95 206.39,12.95 205.84,13.01 C205.29,13.07 205.01,13.07 204.73,13.11 L204.75,21.6 Z M230.9,24.75 L238.09,24.75 C238.214436,23.4686317 237.930951,22.1806988 237.28,21.07 C236.749695,20.2881793 235.854045,19.8346855 234.91,19.87 C233.842814,19.8195807 232.81248,20.2664278 232.12,21.08 C231.346351,22.1491495 230.920413,23.430456 230.9,24.75 L230.9,24.75 Z M204.75,33.28 L205.2,33.35 L206.04,33.42 L206.98,33.47 L207.85,33.47 C208.511985,33.4766529 209.170626,33.3753235 209.8,33.17 C210.374858,32.9819312 210.905569,32.6791539 211.36,32.28 C211.813771,31.8827253 212.175499,31.3913207 212.42,30.84 C212.682481,30.206447 212.811828,29.5256718 212.8,28.84 C212.834239,28.0356623 212.669361,27.2353128 212.32,26.51 C212.027102,25.9599621 211.60072,25.4923173 211.08,25.15 C210.543373,24.8218851 209.949654,24.5979684 209.33,24.49 C208.643266,24.3692804 207.947263,24.3090494 207.25,24.31 L204.75,24.3099889 L204.75,33.28 Z M135.75,33.41 L136.16,33.41 L137.04,33.41 L137.92,33.41 L138.53,33.41 C139.783214,33.4537485 141.025563,33.163867 142.13,32.57 C143.074221,32.0241535 143.860008,31.2418123 144.41,30.3 C144.978584,29.3099618 145.377428,28.2317291 145.59,27.11 C146.043029,24.5263755 146.043029,21.8836245 145.59,19.3 C145.410518,18.1687551 145.03128,17.0784455 144.47,16.08 C143.940269,15.158836 143.191483,14.3825714 142.29,13.82 C141.202922,13.2074512 139.966765,12.9096655 138.72,12.96 L137.85,12.96 C137.55,12.96 137.25,12.96 136.97,12.96 L136.15,13.03 L135.69,13.03 L135.75,33.41 Z M158.9,27.74 C158.287353,27.7407273 157.675628,27.787526 157.07,27.88 C156.524927,27.9631237 155.99559,28.1283309 155.5,28.37 C155.076203,28.5845581 154.712056,28.9006101 154.44,29.29 C154.171497,29.7245928 154.039156,30.2295783 154.06,30.74 C154.009896,31.5141158 154.268821,32.2765087 154.78,32.86 C155.268487,33.3570496 155.943566,33.6256296 156.64,33.6 C157.514636,33.6567212 158.382446,33.413311 159.1,32.91 C159.616503,32.5237712 160.028873,32.0151821 160.3,31.43 L160.3,27.8 L159.69,27.8 L158.9,27.8 L158.9,27.74 Z M250.62,27.8 C250.004019,27.8003389 249.388941,27.8471383 248.78,27.94 C248.238455,28.0245448 247.712625,28.1897097 247.22,28.43 C246.792525,28.6390444 246.427115,28.9561929 246.16,29.35 C245.885089,29.7822151 245.748998,30.2881944 245.77,30.8 C245.719896,31.5741158 245.978821,32.3365087 246.49,32.92 C246.983633,33.4154825 247.660984,33.6835252 248.36,33.66 C249.915528,33.7916376 251.382571,32.9194504 252.01,31.49 L252.01,27.86 L251.4,27.86 L250.62,27.86 L250.62,27.8 Z M87.48,12.86 C85.6647677,12.7984751 83.9714981,13.7710395 83.11,15.37 C82.11,17.08 81.57,19.74 81.57,23.29 C81.5647715,24.6307664 81.6785512,25.9693512 81.91,27.29 C82.0967218,28.4418311 82.4504449,29.5602698 82.96,30.61 C83.3835364,31.494132 84.0106939,32.2652273 84.79,32.86 C85.5705658,33.4258139 86.5163274,33.7176288 87.48,33.69 C89.3082373,33.7622157 91.018524,32.7887872 91.89,31.18 C92.89,29.47 93.43,26.81 93.43,23.26 C93.4363441,21.9191887 93.3225559,20.5805048 93.09,19.26 C92.9145885,18.1053606 92.5779712,16.9810587 92.09,15.92 C91.6662209,15.0304411 91.0393803,14.2528847 90.26,13.65 C89.4620323,13.0810913 88.499531,12.7895307 87.52,12.82 L87.48,12.86 Z M265.13,20.03 C263.855787,19.9792341 262.651252,20.6119959 261.97,21.69 C261.090643,23.2969458 260.691476,25.1227 260.82,26.95 C260.816158,27.9043856 260.889733,28.8575105 261.04,29.8 C261.159404,30.5546283 261.384972,31.2885681 261.71,31.98 C261.963846,32.5283812 262.356886,33.0007183 262.85,33.35 C263.358859,33.6863062 263.96053,33.8542144 264.57,33.83 C266.4,33.83 267.57,32.83 268.07,30.91 L268.07,20.72 C267.729203,20.4729537 267.346301,20.289974 266.94,20.18 C266.348692,20.0306504 265.73965,19.9633529 265.13,19.98 L265.13,20.03 Z M118.59,36.11 L115.32,36.11 L115.32,17.57 L117.7,17.57 L118.18,19.34 C118.521256,18.7534252 118.993566,18.2537348 119.56,17.88 C120.64,17.16 122.1,17.05 123.99,17.58 L124.16,17.58 L123.52,20.58 L123.32,20.52 C121.59,19.98 120.38,20.15 119.56,20.83 C119.041562,21.2609969 118.688237,21.858115 118.56,22.52 L118.59,36.11 Z M170.24,36.11 L166.97,36.11 L166.97,17.57 L170.24,17.57 L170.24,36.11 Z M221.94,36.11 L218.67,36.11 L218.67,17.57 L221.05,17.57 L221.53,19.33 C221.877194,18.7506245 222.348498,18.2554133 222.91,17.88 C223.99,17.16 225.45,17.05 227.34,17.58 L227.51,17.58 L226.87,20.58 L226.67,20.52 C224.94,19.98 223.73,20.15 222.92,20.83 C222.401562,21.2609969 222.048237,21.858115 221.92,22.52 L221.94,36.11 Z M155.69,36.36 C154.328881,36.4080966 153.007044,35.8988643 152.03,34.95 C151.040031,33.904313 150.523023,32.497906 150.6,31.06 C150.568068,30.1237062 150.774525,29.1946477 151.2,28.36 C151.603716,27.6326569 152.18953,27.022721 152.9,26.59 C153.68871,26.1133035 154.560864,25.7909122 155.47,25.64 C156.552004,25.4430403 157.650268,25.349286 158.75,25.36 L159.59,25.36 L160.26,25.36 C160.324432,24.7621325 160.35781,24.1613254 160.36,23.56 C160.451056,22.589911 160.230364,21.6160622 159.73,20.78 C159.10833,20.1939889 158.257905,19.9154014 157.41,20.02 C156.607793,20.0284874 155.80922,20.1291479 155.03,20.32 C154.286866,20.4799498 153.567559,20.7354048 152.89,21.08 L152.71,21.18 L151.59,18.77 L151.74,18.69 C152.646295,18.218463 153.6165,17.8815864 154.62,17.69 C155.787072,17.442441 156.976962,17.3184243 158.17,17.32 C159.122297,17.2851272 160.071686,17.4450602 160.96,17.79 C161.622602,18.0714358 162.201288,18.5192288 162.64,19.09 C163.046537,19.6362755 163.320422,20.2696339 163.44,20.94 C163.561979,21.6400304 163.622211,22.3494252 163.62,23.06 C163.62,24.51 163.62,25.94 163.52,27.31 C163.42,28.68 163.41,29.97 163.41,31.22 C163.41,32.14 163.41,32.99 163.52,33.75 C163.58141,34.492413 163.70518,35.2283424 163.89,35.95 L163.96,36.19 L161.31,36.19 L160.59,34.11 C160.134878,34.7327784 159.551842,35.2510325 158.88,35.63 C157.897831,36.1543196 156.792091,36.4031111 155.68,36.35 L155.69,36.36 Z M247.39,36.35 C246.028881,36.3980966 244.707044,35.8888643 243.73,34.94 C242.740031,33.894313 242.223023,32.487906 242.3,31.05 C242.268068,30.1137062 242.474525,29.1846477 242.9,28.35 C243.303716,27.6226569 243.88953,27.012721 244.6,26.58 C245.389444,26.1048296 246.261299,25.7825489 247.17,25.63 C248.252122,25.4339297 249.350302,25.3401826 250.45,25.35 L251.25,25.35 L251.92,25.35 C251.98,24.6833333 252.01,24.0833333 252.01,23.55 C252.101056,22.579911 251.880364,21.6060622 251.38,20.77 C250.75833,20.1839889 249.907905,19.9054014 249.06,20.01 C248.257877,20.019707 247.459441,20.1203501 246.68,20.31 C245.953164,20.4899538 245.251226,20.7586383 244.59,21.11 L244.41,21.21 L243.3,18.8 L243.45,18.72 C244.357673,18.2516666 245.327404,17.9149543 246.33,17.72 C247.500341,17.471742 248.69362,17.3477215 249.89,17.35 C250.838953,17.3164927 251.784802,17.4764025 252.67,17.82 C253.333769,18.0994415 253.912926,18.547599 254.35,19.12 C254.762181,19.6629967 255.036676,20.2977678 255.15,20.97 C255.274975,21.6697818 255.33855,22.3791475 255.34,23.09 C255.34,24.52 255.34,25.94 255.23,27.34 C255.12,28.74 255.13,30.03 255.13,31.25 C255.13,32.15 255.13,33.01 255.23,33.79 C255.29053,34.5299447 255.417712,35.2629174 255.61,35.98 L255.68,36.22 L253.03,36.22 L252.35,34.16 C251.89869,34.7825322 251.318953,35.3008852 250.65,35.68 C249.663838,36.203275 248.555184,36.4519451 247.44,36.4 L247.39,36.35 Z M207.62,36.4 L206.32,36.4 C205.82,36.4 205.32,36.4 204.72,36.34 C204.12,36.28 203.62,36.26 203.05,36.2 C202.530473,36.1447105 202.015739,36.0511226 201.51,35.92 L201.37,35.92 L201.37,10.58 L201.53,10.58 C202.33,10.43 203.29,10.31 204.38,10.21 C205.47,10.11 206.64,10.07 207.9,10.07 C208.824724,10.0714731 209.747787,10.148395 210.66,10.3 C211.54921,10.4499165 212.403357,10.7617481 213.18,11.22 C213.941732,11.6808913 214.566586,12.3368154 214.99,13.12 C215.489675,14.1065959 215.727281,15.205097 215.68,16.31 C215.679942,16.961403 215.595916,17.6100813 215.43,18.24 C215.26454,18.8861044 215.001516,19.503198 214.65,20.07 C214.283794,20.6452181 213.831922,21.1611612 213.31,21.6 C212.839247,21.9840617 212.304366,22.2819698 211.73,22.48 C212.235577,22.6100452 212.727758,22.7874981 213.2,23.01 C213.815378,23.3015723 214.368801,23.7090009 214.83,24.21 C215.318554,24.7566593 215.698645,25.3912754 215.95,26.08 C216.239304,26.9259722 216.37807,27.8161102 216.36,28.71 C216.390288,29.9013388 216.150997,31.0841235 215.66,32.17 C215.224102,33.1166522 214.565305,33.9435807 213.74,34.58 C212.906767,35.2141202 211.959665,35.682579 210.95,35.96 C209.864827,36.2556952 208.744733,36.4036956 207.62,36.4 L207.62,36.4 Z M138.26,36.4 C137.91,36.4 137.47,36.4 136.94,36.4 C136.41,36.4 135.87,36.4 135.26,36.33 L133.66,36.24 C133.26802,36.2288615 132.877187,36.1921165 132.49,36.13 L132.33,36.13 L132.33,10.36 L132.49,10.36 C132.969824,10.2766075 133.453899,10.2198539 133.94,10.19 C134.45,10.19 134.94,10.13 135.53,10.12 L137.12,10.12 L138.59,10.12 C140.318807,10.0745939 142.038274,10.3878433 143.64,11.04 C144.984702,11.6169835 146.158823,12.5294233 147.05,13.69 C147.954665,14.9136993 148.591794,16.3140191 148.92,17.8 C149.316759,19.5382721 149.508069,21.3171144 149.49,23.1 C149.493302,24.7813946 149.31222,26.4580817 148.95,28.1 C148.617803,29.6352013 147.985712,31.0896906 147.09,32.38 C146.19246,33.628909 145.00512,34.6412359 143.63,35.33 C141.953938,36.1223648 140.112854,36.502924 138.26,36.44 L138.26,36.4 Z M87.45,36.55 C85.9489854,36.5881652 84.4607047,36.2658187 83.11,35.61 C81.8930867,34.9849392 80.8593497,34.0545759 80.11,32.91 C79.2965731,31.6319759 78.7364091,30.2094989 78.46,28.72 C78.1037839,26.9154735 77.9328963,25.0792698 77.95,23.24 C77.95,18.92 78.73,15.59 80.27,13.35 C81.8941256,11.0468753 84.5974413,9.75200982 87.41,9.93 C88.9297005,9.90118512 90.4333868,10.2444925 91.79,10.93 C93.0110442,11.5444832 94.0464989,12.4729408 94.79,13.62 C95.5867526,14.9064502 96.1456484,16.325707 96.44,17.81 C96.8041075,19.6135131 96.9783908,21.4501915 96.96,23.29 C96.96,27.61 96.17,30.94 94.62,33.19 C92.9833075,35.4879996 90.2756791,36.7775265 87.46,36.6 L87.45,36.55 Z M104.46,36.6 C103.682765,36.6134148 102.90779,36.512331 102.16,36.3 C101.4883,36.1038085 100.885335,35.7226237 100.42,35.2 C99.9010721,34.5737962 99.5378259,33.8335965 99.36,33.04 C99.1038359,31.9118397 98.9863006,30.7566348 99.01,29.6 L99.01,17.57 L102.28,17.57 L102.28,28.86 C102.193328,30.1686313 102.398258,31.4801835 102.88,32.7 C103.298109,33.4505956 104.126245,33.876494 104.98,33.78 C105.468764,33.7874634 105.953301,33.6885086 106.4,33.49 C106.818364,33.2910639 107.203018,33.0278797 107.54,32.71 C107.879022,32.3723777 108.177689,31.9965269 108.43,31.59 C108.678636,31.1849676 108.886327,30.7561861 109.05,30.31 L109.05,17.57 L112.31,17.57 L112.31,30.74 C112.31,31.61 112.31,32.51 112.42,33.43 C112.468277,34.2417319 112.565117,35.0498448 112.71,35.85 L112.76,36.08 L110.34,36.08 L109.66,33.69 C109.165619,34.441809 108.526536,35.0876914 107.78,35.59 C106.793373,36.2287807 105.634685,36.5498627 104.46,36.51 L104.46,36.6 Z M234.95,36.51 C233.792147,36.5379956 232.643115,36.3020336 231.59,35.82 C230.646982,35.3634474 229.835043,34.6753632 229.23,33.82 C228.583172,32.8986897 228.124417,31.8588447 227.88,30.76 C227.578464,29.4653956 227.434089,28.1391619 227.45,26.81 C227.45,23.68 228.1,21.27 229.38,19.62 C230.694518,17.9434125 232.742325,17.0108956 234.87,17.12 C235.633982,17.1219643 236.395359,17.2091705 237.14,17.38 C237.907029,17.5567473 238.618256,17.9209503 239.21,18.44 C239.872453,19.0461428 240.377039,19.8047383 240.68,20.65 C241.088499,21.8221352 241.278312,23.0593129 241.24,24.3 C241.24,24.72 241.24,25.17 241.18,25.64 C241.12,26.11 241.09,26.64 241.04,27.11 L241.04,27.28 L230.84,27.28 C230.844256,28.1539569 230.93808,29.0251761 231.12,29.88 C231.268618,30.6241499 231.55705,31.3333532 231.97,31.97 C232.344711,32.5272562 232.853686,32.9812072 233.45,33.29 C234.154906,33.6251483 234.92992,33.7863238 235.71,33.76 C236.41778,33.7575338 237.12039,33.6393061 237.79,33.41 C238.362898,33.2418746 238.894282,32.9557446 239.35,32.57 L239.53,32.41 L240.77,34.68 L240.65,34.78 C239.906931,35.373151 239.048831,35.8056061 238.13,36.05 C237.095868,36.3450147 236.025385,36.4931318 234.95,36.49 L234.95,36.51 Z M263.95,36.49 C261.987462,36.6203825 260.096756,35.727969 258.95,34.13 C257.88,32.58 257.33,30.13 257.33,26.84 C257.33,23.72 258,21.31 259.33,19.69 C260.677509,18.0489964 262.718643,17.1377097 264.84,17.23 C265.469313,17.216185 266.098578,17.2596979 266.72,17.36 C267.147623,17.4385076 267.568793,17.5488138 267.98,17.69 L267.98,10.31 L271.25,10.31 L271.25,29.63 C271.25,30.86 271.25,31.99 271.25,32.98 C271.273859,33.9620633 271.367428,34.9411926 271.53,35.91 L271.53,36.13 L269.19,36.13 L268.58,34.06 C268.159171,34.757401 267.567108,35.3356948 266.86,35.74 C265.948411,36.2621504 264.910062,36.5217377 263.86,36.49 L263.95,36.49 Z M177.61,36.49 L177.47,36.41 C176.408577,35.7981573 175.49655,34.9578628 174.8,33.95 C174.04,32.73 173.96,30.3 173.96,28.58 L173.96,10.33 L177.23,10.33 L177.23,28.85 C177.160255,29.880599 177.247928,30.9158089 177.49,31.92 C177.819312,32.7726351 178.420269,33.49308 179.2,33.97 L179.39,34.07 L177.61,36.49 Z M181.04,44.13 L179.76,41.3 L179.92,41.22 C180.949832,40.6536503 181.857292,39.8889365 182.59,38.97 C183.324983,38.0682975 183.912281,37.0557155 184.33,35.97 C184.447805,35.7051689 184.512364,35.4197504 184.52,35.13 C184.53409,34.9233721 184.506894,34.716007 184.44,34.52 L179.44,17.41 L183.09,17.41 L185.69,28.04 C185.94,29.04 186.11,29.88 186.27,30.71 C186.27,30.84 186.33,30.97 186.35,31.11 C186.53,30.25 186.78,29.19 187.05,28.11 L189.37,17.45 L192.82,17.45 L189.59,29.45 C188.43,33.88 187.1,38.45 184.73,41.29 C183.761314,42.4816012 182.547046,43.450287 181.17,44.13 L181.04,44.13 Z" id="Shape"></path>
            <path d="M168.67,14.72 C167.26433,14.7089748 166.132699,13.5624651 166.140035,12.1567712 C166.14737,10.7510772 167.290906,9.61644073 168.696614,9.62008701 C170.102323,9.62373329 171.239957,10.7642869 171.24,12.17 C171.237353,12.8489558 170.965098,13.4990513 170.483128,13.9772702 C170.001158,14.4554891 169.348956,14.7226574 168.67,14.72" id="Path"></path>
            <path d="M80.81,49.72 C79.8951394,49.7105317 78.9822991,49.8078566 78.09,50.01 L78.09,62.49 L79.85,62.49 L79.85,57.89 C80.2408207,57.9457449 80.6352316,57.9724846 81.03,57.97 C83.08,57.97 85.03,56.8 85.03,53.73 C84.99,50.4 82.84,49.72 80.81,49.72 Z M80.81,56.38 C80.4743245,56.3882547 80.1388073,56.3580582 79.81,56.29 L79.81,51.38 C80.1663588,51.3168037 80.5282192,51.2899992 80.89,51.3 C81.525738,51.2491613 82.1496602,51.4927889 82.5827311,51.9609737 C83.015802,52.4291585 83.2101476,53.0701445 83.11,53.7 C83.15,55.84 82.02,56.38 80.81,56.38 L80.81,56.38 Z" id="Shape"></path>
            <path d="M93.27,53.48 L91.59,53.48 L91.59,59.62 C91.34,60.43 90.8,61.19 89.95,61.19 C89.1,61.19 88.84,60.58 88.84,58.94 L88.84,53.48 L87.16,53.48 L87.16,59.32 C87.16,62.04 88.01,62.72 89.5,62.72 C90.5017889,62.7249052 91.4151237,62.1472404 91.84,61.24 L91.92,61.24 L92.26,62.49 L93.48,62.49 C93.334104,61.6210523 93.2638408,60.741089 93.27,59.86 L93.27,53.48 Z" id="Path"></path>
            <path d="M100.14,53.27 C99.4085562,53.2441166 98.7052783,53.5534116 98.23,54.11 L98.23,54.11 L98.23,49.88 L96.56,49.88 L96.56,62.05 C97.4114007,62.4705841 98.3504721,62.6830747 99.3,62.67 C101.57,62.67 102.94,61.1 102.94,57.8 C102.88,54.65 101.92,53.27 100.14,53.27 Z M99.4,61.17 C98.977778,61.1770063 98.559837,61.0845111 98.18,60.9 L98.18,56 C98.3101089,55.2840517 98.9323305,54.7627308 99.66,54.76 C100.66,54.76 101.15,55.9 101.15,57.86 C101.15,60.11 100.5,61.17 99.4,61.17 Z" id="Shape"></path>
            <path d="M108.08,61.11 C107.7,61.11 107.48,60.81 107.48,59.96 L107.48,49.88 L105.81,49.88 L105.81,60.76 C105.81,62.16 106.42,62.68 107.47,62.68 C108.015019,62.6818989 108.554004,62.5659149 109.05,62.34 L108.89,60.99 C108.63177,61.0877792 108.355488,61.1287099 108.08,61.11 L108.08,61.11 Z" id="Path"></path>
            <rect id="Rectangle" x="111.58" y="53.48" width="1.67" height="9"></rect>
            <path d="M112.4,51.88 C112.683696,51.9114024 112.96729,51.820079 113.179353,51.6290317 C113.391415,51.4379844 113.511733,51.1654235 113.51,50.88 C113.524705,50.5822318 113.412135,50.2922508 113.200373,50.0823963 C112.988611,49.8725419 112.697623,49.7626011 112.4,49.78 C112.102908,49.7545394 111.809952,49.8629865 111.60105,50.0757578 C111.392147,50.2885292 111.289093,50.5834249 111.32,50.88 C111.319103,51.1596775 111.435369,51.4269501 111.640587,51.6169662 C111.845804,51.8069824 112.121218,51.9023758 112.4,51.88 Z" id="Path"></path>
            <path d="M118.05,55.68 C118.05,55.03 118.39,54.74 119.13,54.74 C119.734871,54.7496225 120.331014,54.8858837 120.88,55.14 L121.27,53.79 C120.539106,53.410485 119.72316,53.2245733 118.9,53.25 C118.217049,53.1642688 117.532254,53.3944453 117.039739,53.8752797 C116.547225,54.356114 116.300682,55.0351882 116.37,55.72 C116.37,58.63 119.78,58.27 119.78,60.18 C119.78,60.92 119.26,61.18 118.55,61.18 C117.884907,61.1782694 117.232372,60.9987362 116.66,60.66 L116.19,62.11 C116.938842,62.5251746 117.783909,62.735579 118.64,62.72 C119.372949,62.8055859 120.106581,62.5656102 120.647262,62.063412 C121.187942,61.5612139 121.481335,60.8472631 121.45,60.11 C121.45,57.11 118.05,57.28 118.05,55.68 Z" id="Path"></path>
            <path d="M128.13,53.25 C127.272251,53.218713 126.455106,53.6160406 125.95,54.31 L125.9,54.31 L125.9,49.88 L124.22,49.88 L124.22,62.49 L125.9,62.49 L125.9,56.11 C126.056696,55.3488358 126.704315,54.7872928 127.48,54.74 C128.48,54.74 128.76,55.48 128.76,56.99 L128.76,62.45 L130.43,62.45 L130.43,56.59 C130.43,54.04 129.7,53.25 128.13,53.25 Z" id="Path"></path>
            <path d="M134.59,51.88 C134.87531,51.914494 135.161669,51.8245714 135.376042,51.6331669 C135.590415,51.4417624 135.712078,51.1673798 135.71,50.88 C135.721774,50.5812799 135.60686,50.2914767 135.393573,50.0819985 C135.180286,49.8725204 134.88846,49.7628462 134.59,49.78 C134.292908,49.7545394 133.999952,49.8629865 133.79105,50.0757578 C133.582147,50.2885292 133.479093,50.5834249 133.51,50.88 C133.509103,51.1596775 133.625369,51.4269501 133.830587,51.6169662 C134.035804,51.8069824 134.311218,51.9023758 134.59,51.88 Z" id="Path"></path>
            <rect id="Rectangle" x="133.78" y="53.48" width="1.67" height="9"></rect>
            <path d="M142.78,53.27 C141.845613,53.2413099 140.961963,53.694464 140.44,54.47 L140.39,54.47 L140.15,53.47 L138.87,53.47 L138.87,62.47 L140.59,62.47 L140.59,56.11 C140.776319,55.3647292 141.441844,54.8388823 142.21,54.83 C143.13,54.83 143.45,55.46 143.45,57.04 L143.45,62.52 L145.13,62.52 L145.13,56.61 C145.09,54.04 144.29,53.27 142.78,53.27 Z" id="Path"></path>
            <path d="M151.49,53.3 C149.14,53.3 147.86,54.91 147.86,58.07 C147.86,61.23 148.78,62.67 150.68,62.67 C151.394329,62.7502789 152.096795,62.4410412 152.52,61.86 L152.59,61.86 L152.59,62.43 C152.59,64.11 152.18,64.81 150.81,64.81 C150.156133,64.8066275 149.510967,64.6598437 148.92,64.38 L148.51,65.78 C149.299972,66.1731385 150.179168,66.3524254 151.06,66.3 C153.06,66.3 154.25,65.15 154.25,62.72 L154.25,53.84 C153.380333,53.4610557 152.438356,53.2767557 151.49,53.3 Z M152.56,59.98 C152.459163,60.6946371 151.841614,61.2221261 151.12,61.21 C150.04,61.21 149.59,59.97 149.59,58.04 C149.59,55.75 150.27,54.8 151.35,54.8 C151.767496,54.7856784 152.182365,54.8713951 152.56,55.05 L152.56,59.98 Z" id="Shape"></path>
        </g>
    </g>
</svg>