<?xml version="1.0" encoding="utf-8"?>
<!-- Generator: Adobe Illustrator 19.1.0, SVG Export Plug-In . SVG Version: 6.00 Build 0)  -->
<!DOCTYPE svg PUBLIC "-//W3C//DTD SVG 1.1//EN" "http://www.w3.org/Graphics/SVG/1.1/DTD/svg11.dtd">
<svg version="1.1" id="Layer_1" xmlns="http://www.w3.org/2000/svg" xmlns:xlink="http://www.w3.org/1999/xlink" x="0px" y="0px"
	 viewBox="0 0 259.3 38.1" style="enable-background:new 0 0 259.3 38.1;" xml:space="preserve">
<style type="text/css">
	.st0{fill:#FAB432;}
	.st1{fill:#878787;}
</style>
<g>
	<g>
		<g>
			<path class="st0" d="M19,0C8.5,0,0,8.5,0,19c0,9.1,6.3,16.6,14.8,18.6c0-0.5,0-1.1,0-1.6c0-10,5.5-19.2,14.3-23.9l1.7,3.2
				C23.1,19.4,18.4,27.3,18.4,36c0,0.7,0,1.4,0.1,2.1c0.2,0,0.4,0,0.6,0c0.3,0,0.5,0,0.8,0c-0.1-0.7-0.1-1.4-0.1-2.1
				c0-3.7,0.9-7.2,2.6-10.3c1.7-3,4.1-5.6,7-7.5l1.7,2.7c-2.5,1.6-4.5,3.8-5.9,6.3c-1.5,2.7-2.2,5.6-2.2,8.8c0,0.6,0,1.1,0.1,1.7
				c8.6-1.8,15.1-9.5,15.1-18.6C38.1,8.5,29.5,0,19,0z M14.1,30.3c-1.8-2.6-4.3-4.7-7.3-6.1l1.3-2.9c2.7,1.3,5.1,3,7,5.2
				C14.7,27.8,14.3,29,14.1,30.3z M15.7,24.9c0,0.1,0,0.1-0.1,0.2c-2.6-2.9-5.8-5.1-9.4-6.4l1.2-3.4c3.7,1.4,7.1,3.6,9.9,6.4
				C16.8,22.7,16.2,23.8,15.7,24.9z M17.8,20.5c-0.9-1-1.7-1.9-3.2-2.7V7.5h3.2V20.5z M22.8,14.7c0,0-0.8,0.8-1.2,1.2
				c-0.9,0.9-1.7,1.7-2.3,2.7V3.1h3.5V14.7z"/>
		</g>
		<g>
			<path class="st1" d="M180.7,17.3h1.5c0.4,0,0.8,0,1.3,0c0.5,0,0.9-0.1,1.2-0.1c1-0.4,1.8-1,2.6-1.8c0.7-0.8,1.1-1.8,1.1-3
				c0-0.8-0.1-1.5-0.4-2c-0.2-0.5-0.6-1-1-1.3c-0.4-0.3-0.9-0.5-1.5-0.7c-0.6-0.1-1.2-0.2-1.8-0.2c-0.7,0-1.4,0-2,0.1
				c-0.5,0-0.9,0.1-1.2,0.1V17.3z M208.2,20.6h7.6c0-1.8-0.3-3.1-0.9-3.9c-0.6-0.8-1.4-1.3-2.5-1.3c-1.2,0-2.2,0.4-2.9,1.3
				C208.8,17.6,208.4,18.9,208.2,20.6 M180.7,29.6c0.1,0,0.3,0.1,0.5,0.1c0.3,0,0.6,0,0.9,0.1c0.3,0,0.6,0,1,0.1c0.3,0,0.6,0,0.9,0
				c0.7,0,1.4-0.1,2.1-0.3c0.6-0.2,1.2-0.5,1.6-0.9c0.5-0.4,0.8-0.9,1.1-1.5c0.3-0.6,0.4-1.3,0.4-2.1c0-1-0.2-1.8-0.5-2.4
				c-0.3-0.6-0.8-1.1-1.3-1.4c-0.5-0.3-1.2-0.6-1.9-0.7c-0.7-0.1-1.4-0.2-2.2-0.2h-2.6V29.6z M107.9,29.8c0.1,0,0.2,0,0.4,0
				c0.3,0,0.6,0,0.9,0l0.9,0c0.3,0,0.5,0,0.6,0c1.5,0,2.8-0.3,3.8-0.9c1-0.6,1.8-1.4,2.4-2.4c0.6-1,1-2.2,1.3-3.5
				c0.2-1.3,0.4-2.8,0.4-4.3c0-1.3-0.1-2.7-0.3-3.9c-0.2-1.3-0.6-2.4-1.2-3.4c-0.6-1-1.3-1.8-2.3-2.4c-1-0.6-2.2-0.9-3.8-0.9h-0.9
				c-0.3,0-0.6,0-0.9,0c-0.3,0-0.6,0.1-0.9,0.1c-0.2,0-0.3,0-0.5,0.1V29.8z M132.3,23.8c-0.7,0-1.3,0-1.9,0.1
				c-0.6,0.1-1.2,0.3-1.7,0.5c-0.5,0.2-0.8,0.6-1.1,1c-0.3,0.4-0.4,0.9-0.4,1.5c0,1,0.3,1.7,0.8,2.2c0.5,0.5,1.2,0.8,2,0.8
				c1.1,0,2-0.2,2.6-0.7c0.6-0.5,1-1,1.3-1.6v-3.8c-0.2,0-0.4,0-0.6,0C132.9,23.8,132.6,23.8,132.3,23.8 M229,23.8
				c-0.7,0-1.3,0-1.9,0.1c-0.6,0.1-1.2,0.3-1.7,0.5c-0.5,0.2-0.8,0.6-1.1,1c-0.3,0.4-0.4,0.9-0.4,1.5c0,1,0.3,1.7,0.8,2.2
				c0.5,0.5,1.2,0.8,2,0.8c1.1,0,2-0.2,2.6-0.7c0.6-0.5,1-1,1.3-1.6v-3.8c-0.2,0-0.4,0-0.6,0C229.6,23.8,229.3,23.8,229,23.8 M57,8
				c-2,0-3.5,0.9-4.6,2.7c-1.1,1.8-1.6,4.6-1.6,8.3c0,1.5,0.1,2.9,0.4,4.2c0.2,1.3,0.6,2.5,1.1,3.5c0.5,1,1.1,1.8,1.9,2.4
				c0.8,0.6,1.7,0.9,2.8,0.9c2.1,0,3.6-0.9,4.7-2.7c1.1-1.8,1.6-4.6,1.6-8.3c0-1.5-0.1-2.9-0.4-4.2c-0.2-1.3-0.6-2.5-1.1-3.5
				c-0.5-1-1.1-1.8-1.9-2.4C59.1,8.3,58.1,8,57,8 M244.3,15.6c-1.4,0-2.5,0.6-3.3,1.7c-0.8,1.2-1.2,3-1.2,5.5c0,1.1,0.1,2.1,0.2,3
				c0.1,0.9,0.4,1.7,0.7,2.3c0.3,0.6,0.7,1.1,1.2,1.4c0.5,0.3,1.1,0.5,1.8,0.5c1.9,0,3.1-1,3.7-3.1V16.4c-0.4-0.3-0.8-0.5-1.2-0.6
				C245.7,15.7,245.1,15.6,244.3,15.6 M89.9,32.6h-3.4V13.1h2.5l0.5,1.9c0.4-0.6,0.9-1.2,1.5-1.5c1.1-0.8,2.7-0.9,4.7-0.3l0.2,0
				l-0.7,3.2l-0.2-0.1c-1.8-0.6-3.1-0.4-4,0.3c-0.5,0.4-0.9,1-1,1.8L89.9,32.6z M144.3,32.6h-3.4V13.1h3.4V32.6z M198.8,32.6h-3.4
				V13.1h2.5l0.5,1.9c0.4-0.6,0.9-1.2,1.5-1.5c1.1-0.8,2.7-0.9,4.7-0.3l0.2,0l-0.7,3.2l-0.2-0.1c-1.8-0.6-3.1-0.4-4,0.3
				c-0.5,0.4-0.9,1-1,1.8L198.8,32.6z M129,32.9c-1.6,0-2.9-0.5-3.9-1.5c-1-1-1.5-2.4-1.5-4.1c0-1.1,0.2-2.1,0.6-2.8
				c0.4-0.8,1-1.4,1.8-1.9c0.8-0.5,1.7-0.8,2.7-1c1-0.2,2.2-0.3,3.5-0.3h0.8c0.2,0,0.5,0,0.7,0c0.1-0.7,0.1-1.3,0.1-1.9
				c0-1.4-0.2-2.4-0.7-2.9c-0.4-0.5-1.3-0.8-2.4-0.8c-0.8,0-1.6,0.1-2.5,0.3c-0.9,0.2-1.7,0.5-2.3,0.8l-0.2,0.1l-1.2-2.5l0.2-0.1
				c0.8-0.5,1.9-0.8,3-1.1c1.2-0.3,2.4-0.4,3.7-0.4c1.2,0,2.2,0.2,2.9,0.5c0.7,0.3,1.3,0.8,1.8,1.4c0.4,0.6,0.7,1.2,0.8,2
				c0.1,0.7,0.2,1.5,0.2,2.2c0,1.5,0,3-0.1,4.5c-0.1,1.4-0.1,2.8-0.1,4.1c0,1,0,1.9,0.1,2.7c0.1,0.8,0.2,1.6,0.4,2.3l0.1,0.2h-2.8
				l-0.7-2.2c-0.4,0.6-1,1.2-1.8,1.6C131.5,32.6,130.4,32.9,129,32.9 M225.7,32.9c-1.6,0-2.9-0.5-3.9-1.5c-1-1-1.5-2.4-1.5-4.1
				c0-1.1,0.2-2.1,0.6-2.8c0.4-0.8,1-1.4,1.8-1.9c0.8-0.5,1.7-0.8,2.7-1c1-0.2,2.2-0.3,3.5-0.3h0.8c0.2,0,0.5,0,0.7,0
				c0.1-0.7,0.1-1.3,0.1-1.9c0-1.4-0.2-2.4-0.7-2.9c-0.4-0.5-1.3-0.8-2.4-0.8c-0.8,0-1.6,0.1-2.5,0.3c-0.9,0.2-1.7,0.5-2.3,0.8
				l-0.2,0.1l-1.2-2.5l0.2-0.1c0.8-0.5,1.9-0.8,3-1.1c1.2-0.3,2.4-0.4,3.7-0.4c1.2,0,2.2,0.2,2.9,0.5c0.8,0.3,1.3,0.8,1.8,1.4
				c0.4,0.6,0.7,1.2,0.8,2c0.1,0.7,0.2,1.5,0.2,2.2c0,1.5,0,3-0.1,4.5c-0.1,1.5-0.1,2.8-0.1,4.1c0,1,0,1.9,0.1,2.7
				c0.1,0.8,0.2,1.6,0.4,2.3l0.1,0.2h-2.8l-0.7-2.2c-0.4,0.6-1,1.2-1.8,1.6C228.2,32.6,227.1,32.9,225.7,32.9 M183.7,32.9h-1.4
				c-0.5,0-1.1,0-1.7-0.1c-0.6,0-1.2-0.1-1.8-0.2c-0.6-0.1-1.1-0.2-1.6-0.3l-0.1,0V5.7l0.2,0c0.8-0.2,1.9-0.3,3-0.4
				c1.1-0.1,2.4-0.2,3.7-0.2c1,0,1.9,0.1,2.9,0.3c1,0.2,1.9,0.5,2.7,1c0.8,0.5,1.4,1.2,1.9,2c0.5,0.9,0.7,2,0.7,3.4
				c0,0.7-0.1,1.4-0.3,2c-0.2,0.7-0.5,1.3-0.8,1.9c-0.4,0.6-0.9,1.1-1.4,1.6c-0.5,0.4-1,0.7-1.7,0.9c0.5,0.1,1.1,0.3,1.6,0.5
				c0.6,0.3,1.2,0.7,1.7,1.3c0.5,0.5,0.9,1.2,1.2,2c0.3,0.8,0.4,1.7,0.4,2.8c0,1.4-0.2,2.6-0.7,3.7c-0.5,1-1.2,1.9-2,2.5
				c-0.8,0.6-1.8,1.1-2.9,1.4C186.1,32.7,184.9,32.9,183.7,32.9 M110.6,32.9c-0.4,0-0.8,0-1.4,0c-0.6,0-1.1,0-1.8-0.1
				c-0.6,0-1.2-0.1-1.7-0.1c-0.5,0-0.9-0.1-1.2-0.1l-0.2,0V5.5l0.2,0c0.5-0.1,1-0.1,1.5-0.2c0.5,0,1.1-0.1,1.7-0.1l1.7,0
				c0.6,0,1.1,0,1.5,0c2.1,0,3.9,0.3,5.3,1c1.5,0.6,2.7,1.6,3.6,2.8c0.9,1.2,1.6,2.7,2,4.3c0.4,1.7,0.6,3.5,0.6,5.6
				c0,1.8-0.2,3.6-0.6,5.3c-0.4,1.7-1,3.2-2,4.5c-0.9,1.3-2.1,2.3-3.6,3.1C114.7,32.5,112.8,32.9,110.6,32.9 M57,33
				c-1.8,0-3.3-0.3-4.6-1c-1.3-0.7-2.3-1.6-3.1-2.8c-0.8-1.2-1.4-2.7-1.7-4.4C47.2,23.1,47,21.1,47,19c0-4.6,0.8-8.1,2.4-10.4
				C51.1,6.2,53.6,5,57,5c1.8,0,3.4,0.3,4.6,1c1.3,0.7,2.3,1.6,3.1,2.8c0.8,1.2,1.4,2.7,1.7,4.4C66.8,15,67,16.9,67,19
				c0,4.6-0.8,8.1-2.5,10.4C62.9,31.8,60.4,33,57,33 M74.9,33c-0.9,0-1.7-0.1-2.4-0.3c-0.7-0.2-1.3-0.6-1.8-1.2
				c-0.5-0.6-0.9-1.3-1.1-2.3c-0.2-0.9-0.4-2.2-0.4-3.6V13.1h3.4V25c0,1.9,0.2,3.3,0.6,4.1c0.4,0.8,1.1,1.1,2.2,1.1
				c0.6,0,1.1-0.1,1.5-0.3c0.4-0.2,0.8-0.5,1.2-0.8c0.4-0.3,0.7-0.7,0.9-1.2c0.3-0.4,0.5-0.9,0.6-1.3V13.1h3.4V27
				c0,0.9,0,1.9,0.1,2.8c0.1,1,0.2,1.8,0.3,2.6l0,0.2h-2.6l-0.7-2.5c-0.5,0.8-1.1,1.4-2,2C77.5,32.7,76.3,33,74.9,33 M212.5,33
				c-1.4,0-2.5-0.2-3.5-0.7c-1-0.5-1.8-1.2-2.5-2.1c-0.6-0.9-1.1-2-1.4-3.2c-0.3-1.2-0.4-2.6-0.4-4.2c0-3.3,0.7-5.8,2-7.6
				c1.4-1.8,3.3-2.6,5.8-2.6c0.8,0,1.6,0.1,2.4,0.3c0.8,0.2,1.5,0.6,2.2,1.1c0.6,0.6,1.2,1.3,1.6,2.3c0.4,1,0.6,2.3,0.6,3.9
				c0,0.4,0,0.9-0.1,1.4c0,0.5-0.1,1-0.1,1.6l0,0.2h-10.7c0,1,0.1,1.9,0.3,2.7c0.2,0.9,0.5,1.6,0.9,2.2c0.4,0.6,0.9,1.1,1.6,1.4
				c0.6,0.3,1.4,0.5,2.4,0.5c0.7,0,1.5-0.1,2.2-0.4c0.7-0.2,1.3-0.5,1.6-0.9l0.2-0.2l1.3,2.4l-0.1,0.1c-0.7,0.6-1.6,1-2.7,1.3
				C214.8,32.9,213.7,33,212.5,33 M243.1,33c-2.3,0-4.1-0.8-5.3-2.5c-1.1-1.6-1.7-4.2-1.7-7.7c0-3.3,0.7-5.8,2.1-7.5
				c1.4-1.7,3.4-2.6,5.8-2.6c0.8,0,1.5,0,2,0.1c0.4,0.1,0.9,0.2,1.3,0.4V5.4h3.4v20.4c0,1.3,0,2.5,0,3.5c0,1,0.1,2.1,0.3,3.1l0,0.2
				h-2.5l-0.6-2.2c-0.4,0.7-1,1.3-1.8,1.8C245.4,32.8,244.3,33,243.1,33 M152.2,33.1L152,33c-0.1,0-1.8-1-2.8-2.6
				c-0.8-1.3-0.9-3.8-0.9-5.7V5.4h3.4V25c0,1,0,2.6,0.3,3.2c0.5,1.5,1.8,2.2,1.8,2.2l0.2,0.1L152.2,33.1z M155.8,41.1l-1.3-3
				l0.2-0.1c0.9-0.5,1.9-1.3,2.8-2.4c0.9-1,1.5-2.3,1.8-3.2c0.2-0.5,0.2-0.6,0.2-0.9c0-0.2,0-0.4-0.1-0.7l-5.2-18h3.9l2.7,11.2
				c0.3,1,0.4,1.9,0.6,2.8c0,0.1,0.1,0.3,0.1,0.4c0.2-0.9,0.4-2,0.7-3.2l2.4-11.2h3.6l-3.4,12.6c-1.2,4.7-2.6,9.5-5.1,12.5
				c-1.7,2-3.4,2.9-3.8,3L155.8,41.1z"/>
			<path class="st1" d="M142.6,10.1c-1.5,0-2.7-1.2-2.7-2.7c0-1.5,1.2-2.7,2.7-2.7c1.5,0,2.7,1.2,2.7,2.7
				C145.4,8.9,144.1,10.1,142.6,10.1"/>
		</g>
	</g>
	<g>
		<path class="st1" d="M256.9,29.1c0,0.2-0.1,0.3-0.2,0.3c-0.1,0.1-0.3,0.1-0.5,0.1h-0.4v-0.8c0,0,0.1,0,0.2,0c0.1,0,0.1,0,0.2,0
			C256.7,28.7,256.9,28.8,256.9,29.1 M255.3,31.1h0.6v-1.3l0.5,0.2l0.8,1.1h0.7L257,30l-0.3-0.2c0.2,0,0.4-0.1,0.5-0.2
			c0.1-0.1,0.2-0.3,0.2-0.5c0-0.3-0.1-0.5-0.3-0.7c-0.2-0.1-0.5-0.2-0.8-0.2c-0.2,0-0.4,0-0.6,0c-0.2,0-0.4,0-0.5,0.1V31.1z
			 M254.4,28.8c0.1-0.3,0.3-0.5,0.5-0.7c0.2-0.2,0.4-0.3,0.7-0.4c0.3-0.1,0.6-0.1,0.9-0.1c0.3,0,0.6,0,0.8,0.1
			c0.3,0.1,0.5,0.2,0.7,0.4c0.2,0.2,0.4,0.4,0.5,0.7c0.1,0.3,0.2,0.6,0.2,1c0,0.4-0.1,0.7-0.2,1c-0.1,0.3-0.3,0.5-0.5,0.7
			c-0.2,0.2-0.4,0.3-0.7,0.4c-0.3,0.1-0.6,0.1-0.9,0.1c-0.3,0-0.6,0-0.8-0.1c-0.3-0.1-0.5-0.2-0.7-0.4c-0.2-0.2-0.4-0.4-0.5-0.7
			c-0.1-0.3-0.2-0.6-0.2-1C254.2,29.4,254.3,29,254.4,28.8 M253.8,31c0.1,0.4,0.4,0.7,0.6,0.9c0.3,0.2,0.6,0.4,0.9,0.6
			c0.3,0.1,0.7,0.2,1.1,0.2c0.4,0,0.8-0.1,1.1-0.2s0.6-0.3,0.9-0.6c0.3-0.2,0.5-0.5,0.6-0.9c0.2-0.4,0.2-0.8,0.2-1.2
			c0-0.5-0.1-0.9-0.2-1.2c-0.1-0.4-0.4-0.7-0.6-0.9c-0.3-0.2-0.6-0.4-0.9-0.6c-0.3-0.1-0.7-0.2-1.1-0.2c-0.4,0-0.8,0.1-1.1,0.2
			c-0.3,0.1-0.6,0.3-0.9,0.6c-0.3,0.2-0.5,0.5-0.6,0.9c-0.2,0.4-0.2,0.8-0.2,1.2C253.5,30.2,253.6,30.6,253.8,31"/>
	</g>
</g>
</svg>
